{
classes = (
{
automatic = 1;
code = "A Aacute Abreve Acircumflex Adieresis Agrave Amacron Aogonek Aring Atilde AE B C Cacute Ccaron Ccedilla Ccircumflex Cdotaccent D Eth Dcaron Dcroat E Eacute Ebreve Ecaron Ecircumflex Edieresis Edotaccent Egrave Emacron Eogonek F G Gbreve Gcircumflex Gcommaaccent Gdotaccent H Hbar Hcircumflex I IJ Iacute Ibreve Icircumflex Idieresis Idotaccent Igrave Imacron Iogonek Itilde J Jcircumflex K Kcommaaccent L Lacute Lcaron Lcommaaccent Ldot Lslash M N Nacute Ncaron Ncommaaccent Eng Ntilde O Oacute Obreve Ocircumflex Odieresis Ograve Ohungarumlaut Omacron Oslash Otilde OE P Thorn Q R Racute Rcaron Rcommaaccent S Sacute Scaron Scedilla Scircumflex Scommaaccent T Tbar Tcaron Tcedilla Tcommaaccent U Uacute Ubreve Ucircumflex Udieresis Ugrave Uhungarumlaut Umacron Uogonek Uring Utilde V W Wacute Wcircumflex Wdieresis Wgrave X Y Yacute Ycircumflex Ydieresis Ygrave Z Zacute Zcaron Zdotaccent Delta Omega";
name = Uppercase;
}
);
copyright = "Copyright (c) 2015 Quote-Unquote Apps.";
customParameters = (
{
name = openTypeNameLicenseURL;
value = "http://scripts.sil.org/OFL";
},
{
name = openTypeNameLicense;

glyphs = (
{
glyphname = A;
lastChange = "2015-01-03 15:18:27 +0000";
layers = (
{
layerId = UUID0;
name = "Bold Italic";
paths = (
{
closed = 1;
nodes = (
"362 1187 LINE SMOOTH",
"317 1187 OFFCURVE",
"296 1170 OFFCURVE",
"281 1085 CURVE SMOOTH",
"266 1000 OFFCURVE",
"281 982 OFFCURVE",
"326 982 CURVE SMOOTH",
"489 982 LINE",
"99 205 LINE",
"19 205 LINE SMOOTH",
"-26 205 OFFCURVE",
"-47 188 OFFCURVE",
"-62 103 CURVE SMOOTH",
"-76 18 OFFCURVE",
"-62 0 OFFCURVE",
"-17 0 CURVE SMOOTH",
"387 0 LINE SMOOTH",
"432 0 OFFCURVE",
"453 18 OFFCURVE",
"468 103 CURVE SMOOTH",
"483 188 OFFCURVE",
"468 205 OFFCURVE",
"423 205 CURVE SMOOTH",
"353 205 LINE",
"423 350 LINE",
"787 350 LINE",
"807 205 LINE",
"717 205 LINE SMOOTH",
"672 205 OFFCURVE",
"651 188 OFFCURVE",
"636 103 CURVE SMOOTH",
"621 18 OFFCURVE",
"636 0 OFFCURVE",
"681 0 CURVE SMOOTH",
"1105 0 LINE SMOOTH",
"1150 0 OFFCURVE",
"1171 18 OFFCURVE",
"1186 103 CURVE SMOOTH",
"1201 188 OFFCURVE",
"1186 205 OFFCURVE",
"1141 205 CURVE SMOOTH",
"1050 205 LINE",
"921 1122 LINE SMOOTH",
"914 1168 OFFCURVE",
"885 1187 OFFCURVE",
"832 1187 CURVE SMOOTH"
);
},
{
closed = 1;
nodes = (
"766 555 LINE",
"517 555 LINE",
"716 982 LINE",
"722 982 LINE"
);
}
);
width = 1228;
},
{
layerId = "38D47A70-C265-4203-8B70-C23C50FC2DCC";
name = "Regular Italic";
paths = (
{
closed = 1;
nodes = (
"412 1187 LINE SMOOTH",
"367 1187 OFFCURVE",
"346 1169 OFFCURVE",
"337 1119 CURVE SMOOTH",
"328 1069 OFFCURVE",
"343 1051 OFFCURVE",
"388 1051 CURVE SMOOTH",
"572 1051 LINE",
"79 136 LINE",
"26 136 LINE SMOOTH",
"-19 136 OFFCURVE",
"-40 118 OFFCURVE",
"-49 68 CURVE SMOOTH",
"-57 18 OFFCURVE",
"-42 0 OFFCURVE",
"3 0 CURVE SMOOTH",
"337 0 LINE SMOOTH",
"382 0 OFFCURVE",
"403 18 OFFCURVE",
"411 68 CURVE SMOOTH",
"420 118 OFFCURVE",
"405 136 OFFCURVE",
"360 136 CURVE SMOOTH",
"244 136 LINE",
"369 374 LINE",
"854 374 LINE",
"894 136 LINE",
"754 136 LINE SMOOTH",
"709 136 OFFCURVE",
"688 118 OFFCURVE",
"679 68 CURVE SMOOTH",
"671 18 OFFCURVE",
"686 0 OFFCURVE",
"731 0 CURVE SMOOTH",
"1085 0 LINE SMOOTH",
"1130 0 OFFCURVE",
"1151 18 OFFCURVE",
"1159 68 CURVE SMOOTH",
"1168 118 OFFCURVE",
"1153 136 OFFCURVE",
"1108 136 CURVE SMOOTH",
"1044 136 LINE",
"865 1122 LINE SMOOTH",
"857 1168 OFFCURVE",
"829 1187 OFFCURVE",
"776 1187 CURVE SMOOTH"
);
},
{
closed = 1;
nodes = (
"832 510 LINE",
"440 510 LINE",
"723 1051 LINE",
"742 1051 LINE"
);
}
);
width = 1228;
}
);
unicode = 0041;
},
{
color = 6;
glyphname = Aogonek;
lastChange = "2015-01-03 15:18:27 +0000";
layers = (
{
layerId = UUID0;
name = "Bold Italic";
paths = (
{
closed = 1;
nodes = (
"362 1187 LINE SMOOTH",
"317 1187 OFFCURVE",
"296 1170 OFFCURVE",
"281 1085 CURVE SMOOTH",
"266 1000 OFFCURVE",
"281 982 OFFCURVE",
"326 982 CURVE SMOOTH",
"489 982 LINE",
"99 205 LINE",
"19 205 LINE SMOOTH",
"-26 205 OFFCURVE",
"-47 188 OFFCURVE",
"-62 103 CURVE SMOOTH",
"-76 18 OFFCURVE",
"-62 0 OFFCURVE",
"-17 0 CURVE SMOOTH",
"387 0 LINE SMOOTH",
"432 0 OFFCURVE",
"453 18 OFFCURVE",
"468 103 CURVE SMOOTH",
"483 188 OFFCURVE",
"468 205 OFFCURVE",
"423 205 CURVE SMOOTH",
"353 205 LINE",
"423 350 LINE",
"787 350 LINE",
"807 205 LINE",
"717 205 LINE SMOOTH",
"672 205 OFFCURVE",
"651 188 OFFCURVE",
"636 103 CURVE SMOOTH",
"621 18 OFFCURVE",
"636 0 OFFCURVE",
"681 0 CURVE SMOOTH",
"821 0 LINE",
"689 -77 OFFCURVE",
"589 -173 OFFCURVE",
"589 -300 CURVE SMOOTH",
"589 -408 OFFCURVE",
"672 -472 OFFCURVE",
"811 -472 CURVE SMOOTH",
"890 -472 OFFCURVE",
"982 -457 OFFCURVE",
"1048 -436 CURVE SMOOTH",
"1078 -427 OFFCURVE",
"1094 -400 OFFCURVE",
"1088 -350 CURVE SMOOTH",
"1082 -302 OFFCURVE",
"1063 -280 OFFCURVE",
"1036 -285 CURVE SMOOTH",
"996 -292 OFFCURVE",
"956 -298 OFFCURVE",
"917 -298 CURVE SMOOTH",
"868 -298 OFFCURVE",
"839 -280 OFFCURVE",
"839 -235 CURVE SMOOTH",
"839 -166 OFFCURVE",
"925 -85 OFFCURVE",
"1040 0 CURVE",
"1105 0 LINE SMOOTH",
"1150 0 OFFCURVE",
"1171 18 OFFCURVE",
"1186 103 CURVE SMOOTH",
"1201 188 OFFCURVE",
"1186 205 OFFCURVE",
"1141 205 CURVE SMOOTH",
"1050 205 LINE",
"921 1122 LINE SMOOTH",
"914 1168 OFFCURVE",
"885 1187 OFFCURVE",
"832 1187 CURVE SMOOTH"
);
},
{
closed = 1;
nodes = (
"766 555 LINE",
"517 555 LINE",
"716 982 LINE",
"722 982 LINE"
);
}
);
width = 1228;
},
{
layerId = "38D47A70-C265-4203-8B70-C23C50FC2DCC";
name = "Regular Italic";
paths = (
{
closed = 1;
nodes = (
"412 1187 LINE SMOOTH",
"367 1187 OFFCURVE",
"346 1169 OFFCURVE",
"337 1119 CURVE SMOOTH",
"328 1069 OFFCURVE",
"343 1051 OFFCURVE",
"388 1051 CURVE SMOOTH",
"572 1051 LINE",
"79 136 LINE",
"26 136 LINE SMOOTH",
"-19 136 OFFCURVE",
"-40 118 OFFCURVE",
"-49 68 CURVE SMOOTH",
"-57 18 OFFCURVE",
"-42 0 OFFCURVE",
"3 0 CURVE SMOOTH",
"337 0 LINE SMOOTH",
"382 0 OFFCURVE",
"403 18 OFFCURVE",
"411 68 CURVE SMOOTH",
"420 118 OFFCURVE",
"405 136 OFFCURVE",
"360 136 CURVE SMOOTH",
"244 136 LINE",
"369 374 LINE",
"854 374 LINE",
"894 136 LINE",
"754 136 LINE SMOOTH",
"709 136 OFFCURVE",
"688 118 OFFCURVE",
"679 68 CURVE SMOOTH",
"671 18 OFFCURVE",
"686 0 OFFCURVE",
"731 0 CURVE SMOOTH",
"863 0 LINE",
"733 -101 OFFCURVE",
"659 -200 OFFCURVE",
"659 -310 CURVE SMOOTH",
"659 -406 OFFCURVE",
"720 -472 OFFCURVE",
"827 -472 CURVE SMOOTH",
"891 -472 OFFCURVE",
"957 -460 OFFCURVE",
"1006 -443 CURVE SMOOTH",
"1037 -432 OFFCURVE",
"1047 -411 OFFCURVE",
"1042 -374 CURVE SMOOTH",
"1037 -337 OFFCURVE",
"1022 -322 OFFCURVE",
"995 -326 CURVE SMOOTH",
"959 -332 OFFCURVE",
"923 -336 OFFCURVE",
"884 -336 CURVE SMOOTH",
"844 -336 OFFCURVE",
"819 -316 OFFCURVE",
"819 -277 CURVE SMOOTH",
"819 -205 OFFCURVE",
"887 -117 OFFCURVE",
"1035 0 CURVE",
"1085 0 LINE SMOOTH",
"1130 0 OFFCURVE",
"1151 18 OFFCURVE",
"1159 68 CURVE SMOOTH",
"1168 118 OFFCURVE",
"1153 136 OFFCURVE",
"1108 136 CURVE SMOOTH",
"1044 136 LINE",
"865 1122 LINE SMOOTH",
"857 1168 OFFCURVE",
"829 1187 OFFCURVE",
"776 1187 CURVE SMOOTH"
);
},
{
closed = 1;
nodes = (
"832 510 LINE",
"440 510 LINE",
"723 1051 LINE",
"742 1051 LINE"
);
}
);
width = 1228;
}
);
unicode = 0104;
},
{
glyphname = AE;
lastChange = "2015-01-03 15:18:27 +0000";
layers = (
{
layerId = UUID0;
name = "Bold Italic";
paths = (
{
closed = 1;
nodes = (
"322 1187 LINE SMOOTH",
"277 1187 OFFCURVE",
"256 1169 OFFCURVE",
"241 1084 CURVE SMOOTH",
"226 999 OFFCURVE",
"241 982 OFFCURVE",
"286 982 CURVE SMOOTH",
"388 982 LINE",
"52 205 LINE",
"-1 205 LINE SMOOTH",
"-46 205 OFFCURVE",
"-68 187 OFFCURVE",
"-82 102 CURVE SMOOTH",
"-97 17 OFFCURVE",
"-82 0 OFFCURVE",
"-37 0 CURVE SMOOTH",
"292 0 LINE SMOOTH",
"337 0 OFFCURVE",
"357 17 OFFCURVE",
"372 102 CURVE SMOOTH",
"387 187 OFFCURVE",
"373 205 OFFCURVE",
"328 205 CURVE SMOOTH",
"287 205 LINE",
"341 330 LINE",
"538 330 LINE",
"491 65 LINE SMOOTH",
"483 19 OFFCURVE",
"499 0 OFFCURVE",
"545 0 CURVE SMOOTH",
"1045 0 LINE SMOOTH",
"1091 0 OFFCURVE",
"1113 19 OFFCURVE",
"1121 65 CURVE SMOOTH",
"1178 387 LINE SMOOTH",
"1186 432 OFFCURVE",
"1170 450 OFFCURVE",
"1085 450 CURVE SMOOTH",
"1000 450 OFFCURVE",
"966 432 OFFCURVE",
"958 387 CURVE SMOOTH",
"927 215 LINE",
"747 215 LINE",
"800 514 LINE",
"914 514 LINE SMOOTH",
"959 514 OFFCURVE",
"981 536 OFFCURVE",
"996 621 CURVE SMOOTH",
"1011 706 OFFCURVE",
"997 729 OFFCURVE",
"952 729 CURVE SMOOTH",
"838 729 LINE",
"881 972 LINE",
"1051 972 LINE",
"1029 850 LINE SMOOTH",
"1021 805 OFFCURVE",
"1036 787 OFFCURVE",
"1116 787 CURVE SMOOTH",
"1196 787 OFFCURVE",
"1231 805 OFFCURVE",
"1239 850 CURVE SMOOTH",
"1287 1122 LINE SMOOTH",
"1295 1168 OFFCURVE",
"1280 1187 OFFCURVE",
"1234 1187 CURVE SMOOTH"
);
},
{
closed = 1;
nodes = (
"576 545 LINE",
"431 545 LINE",
"599 972 LINE",
"651 972 LINE"
);
}
);
width = 1228;
},
{
layerId = "38D47A70-C265-4203-8B70-C23C50FC2DCC";
name = "Regular Italic";
paths = (
{
closed = 1;
nodes = (
"433 1187 LINE SMOOTH",
"388 1187 OFFCURVE",
"367 1169 OFFCURVE",
"358 1119 CURVE SMOOTH",
"349 1069 OFFCURVE",
"364 1051 OFFCURVE",
"409 1051 CURVE SMOOTH",
"503 1051 LINE",
"66 136 LINE",
"16 136 LINE SMOOTH",
"-29 136 OFFCURVE",
"-50 118 OFFCURVE",
"-59 68 CURVE SMOOTH",
"-67 18 OFFCURVE",
"-52 0 OFFCURVE",
"-7 0 CURVE SMOOTH",
"287 0 LINE SMOOTH",
"332 0 OFFCURVE",
"353 18 OFFCURVE",
"361 68 CURVE SMOOTH",
"370 118 OFFCURVE",
"355 136 OFFCURVE",
"310 136 CURVE SMOOTH",
"227 136 LINE",
"340 374 LINE",
"561 374 LINE",
"507 68 LINE",
"499 18 OFFCURVE",
"514 0 OFFCURVE",
"559 0 CURVE SMOOTH",
"1005 0 LINE SMOOTH",
"1050 0 OFFCURVE",
"1071 18 OFFCURVE",
"1079 68 CURVE",
"1132 365 LINE SMOOTH",
"1140 411 OFFCURVE",
"1124 430 OFFCURVE",
"1068 430 CURVE SMOOTH",
"1012 430 OFFCURVE",
"990 411 OFFCURVE",
"982 365 CURVE SMOOTH",
"941 136 LINE",
"669 136 LINE",
"742 549 LINE",
"934 549 LINE SMOOTH",
"979 549 OFFCURVE",
"1000 567 OFFCURVE",
"1009 617 CURVE SMOOTH",
"1018 667 OFFCURVE",
"1003 685 OFFCURVE",
"958 685 CURVE SMOOTH",
"766 685 LINE",
"831 1051 LINE",
"1091 1051 LINE",
"1058 865 LINE SMOOTH",
"1050 819 OFFCURVE",
"1066 800 OFFCURVE",
"1122 800 CURVE SMOOTH",
"1178 800 OFFCURVE",
"1200 819 OFFCURVE",
"1208 865 CURVE SMOOTH",
"1253 1119 LINE SMOOTH",
"1262 1169 OFFCURVE",
"1247 1187 OFFCURVE",
"1202 1187 CURVE SMOOTH"
);
},
{
closed = 1;
nodes = (
"585 510 LINE",
"404 510 LINE",
"661 1051 LINE",
"681 1051 LINE"
);
}
);
width = 1228;
}
);
unicode = 00C6;
},
{
glyphname = B;
lastChange = "2015-01-14 13:59:52 +0000";
layers = (
{
background = {
paths = (
{
closed = 1;
nodes = (
"272 1187 LINE SMOOTH",
"227 1187 OFFCURVE",
"206 1169 OFFCURVE",
"191 1084 CURVE SMOOTH",
"176 999 OFFCURVE",
"191 982 OFFCURVE",
"236 982 CURVE SMOOTH",
"343 982 LINE",
"206 205 LINE",
"99 205 LINE SMOOTH",
"54 205 OFFCURVE",
"32 187 OFFCURVE",
"17 102 CURVE SMOOTH",
"2 17 OFFCURVE",
"18 0 OFFCURVE",
"63 0 CURVE SMOOTH",
"640 0 LINE SMOOTH",
"807 0 OFFCURVE",
"937 38 OFFCURVE",
"1021 119 CURVE SMOOTH",
"1096 191 OFFCURVE",
"1132 299 OFFCURVE",
"1132 394 CURVE SMOOTH",
"1132 515 OFFCURVE",
"1065 592 OFFCURVE",
"950 625 CURVE",
"1080 680 OFFCURVE",
"1149 777 OFFCURVE",
"1149 913 CURVE SMOOTH",
"1149 1074 OFFCURVE",
"1028 1187 OFFCURVE",
"773 1187 CURVE SMOOTH"
);
},
{
closed = 1;
nodes = (
"815 499 OFFCURVE",
"871 463 OFFCURVE",
"871 386 CURVE SMOOTH",
"871 340 OFFCURVE",
"854 296 OFFCURVE",
"824 267 CURVE SMOOTH",
"788 232 OFFCURVE",
"731 215 OFFCURVE",
"650 215 CURVE SMOOTH",
"458 215 LINE",
"507 499 LINE",
"699 499 LINE SMOOTH"
);
},
{
closed = 1;
nodes = (
"841 972 OFFCURVE",
"891 943 OFFCURVE",
"891 875 CURVE SMOOTH",
"891 835 OFFCURVE",
"877 794 OFFCURVE",
"853 767 CURVE SMOOTH",
"820 731 OFFCURVE",
"766 714 OFFCURVE",
"688 714 CURVE SMOOTH",
"546 714 LINE",
"591 972 LINE",
"733 972 LINE SMOOTH"
);
}
);
};
layerId = UUID0;
name = "Bold Italic";
paths = (
{
closed = 1;
nodes = (
"272 1187 LINE SMOOTH",
"227 1187 OFFCURVE",
"206 1169 OFFCURVE",
"191 1084 CURVE SMOOTH",
"176 999 OFFCURVE",
"191 982 OFFCURVE",
"236 982 CURVE SMOOTH",
"343 982 LINE",
"206 205 LINE",
"99 205 LINE SMOOTH",
"54 205 OFFCURVE",
"32 187 OFFCURVE",
"17 102 CURVE SMOOTH",
"2 17 OFFCURVE",
"18 0 OFFCURVE",
"63 0 CURVE SMOOTH",
"640 0 LINE SMOOTH",
"980 0 OFFCURVE",
"1132 169 OFFCURVE",
"1132 384 CURVE SMOOTH",
"1132 511 OFFCURVE",
"1062 591 OFFCURVE",
"950 625 CURVE",
"1077 679 OFFCURVE",
"1149 777 OFFCURVE",
"1149 903 CURVE SMOOTH",
"1149 1074 OFFCURVE",
"1028 1187 OFFCURVE",
"773 1187 CURVE SMOOTH"
);
},
{
closed = 1;
nodes = (
"815 499 OFFCURVE",
"871 463 OFFCURVE",
"871 376 CURVE SMOOTH",
"871 291 OFFCURVE",
"815 215 OFFCURVE",
"650 215 CURVE SMOOTH",
"458 215 LINE",
"507 499 LINE",
"699 499 LINE SMOOTH"
);
},
{
closed = 1;
nodes = (
"841 972 OFFCURVE",
"891 943 OFFCURVE",
"891 865 CURVE SMOOTH",
"891 780 OFFCURVE",
"835 714 OFFCURVE",
"688 714 CURVE SMOOTH",
"546 714 LINE",
"591 972 LINE",
"733 972 LINE SMOOTH"
);
}
);
width = 1228;
},
{
background = {
paths = (
{
closed = 1;
nodes = (
"282 1187 LINE SMOOTH",
"237 1187 OFFCURVE",
"216 1169 OFFCURVE",
"207 1119 CURVE SMOOTH",
"198 1069 OFFCURVE",
"213 1051 OFFCURVE",
"258 1051 CURVE SMOOTH",
"380 1051 LINE",
"218 136 LINE",
"96 136 LINE SMOOTH",
"51 136 OFFCURVE",
"30 118 OFFCURVE",
"21 68 CURVE SMOOTH",
"13 18 OFFCURVE",
"28 0 OFFCURVE",
"73 0 CURVE SMOOTH",
"650 0 LINE SMOOTH",
"808 0 OFFCURVE",
"915 50 OFFCURVE",
"984 122 CURVE SMOOTH",
"1056 199 OFFCURVE",
"1086 299 OFFCURVE",
"1086 390 CURVE SMOOTH",
"1086 506 OFFCURVE",
"1024 593 OFFCURVE",
"914 631 CURVE",
"1025 689 OFFCURVE",
"1094 775 OFFCURVE",
"1094 918 CURVE SMOOTH",
"1094 1076 OFFCURVE",
"986 1187 OFFCURVE",
"773 1187 CURVE SMOOTH"
);
},
{
closed = 1;
nodes = (
"857 545 OFFCURVE",
"929 492 OFFCURVE",
"929 388 CURVE SMOOTH",
"929 316 OFFCURVE",
"906 258 OFFCURVE",
"864 215 CURVE SMOOTH",
"813 164 OFFCURVE",
"733 136 OFFCURVE",
"633 136 CURVE SMOOTH",
"368 136 LINE",
"441 545 LINE",
"711 545 LINE SMOOTH"
);
},
{
closed = 1;
nodes = (
"875 1051 OFFCURVE",
"941 1001 OFFCURVE",
"941 907 CURVE SMOOTH",
"941 854 OFFCURVE",
"926 803 OFFCURVE",
"891 763 CURVE SMOOTH",
"849 714 OFFCURVE",
"778 681 OFFCURVE",
"672 681 CURVE SMOOTH",
"465 681 LINE",
"530 1051 LINE",
"737 1051 LINE SMOOTH"
);
}
);
};
layerId = "38D47A70-C265-4203-8B70-C23C50FC2DCC";
name = "Regular Italic";
paths = (
{
closed = 1;
nodes = (
"282 1187 LINE SMOOTH",
"237 1187 OFFCURVE",
"216 1169 OFFCURVE",
"207 1119 CURVE SMOOTH",
"198 1069 OFFCURVE",
"213 1051 OFFCURVE",
"258 1051 CURVE SMOOTH",
"380 1051 LINE",
"218 136 LINE",
"96 136 LINE SMOOTH",
"51 136 OFFCURVE",
"30 118 OFFCURVE",
"21 68 CURVE SMOOTH",
"13 18 OFFCURVE",
"28 0 OFFCURVE",
"73 0 CURVE SMOOTH",
"650 0 LINE SMOOTH",
"932 0 OFFCURVE",
"1086 168 OFFCURVE",
"1086 380 CURVE SMOOTH",
"1086 505 OFFCURVE",
"1020 590 OFFCURVE",
"912 628 CURVE",
"1019 685 OFFCURVE",
"1094 778 OFFCURVE",
"1094 908 CURVE SMOOTH",
"1094 1076 OFFCURVE",
"986 1187 OFFCURVE",
"773 1187 CURVE SMOOTH"
);
},
{
closed = 1;
nodes = (
"857 545 OFFCURVE",
"929 492 OFFCURVE",
"929 378 CURVE SMOOTH",
"929 230 OFFCURVE",
"821 136 OFFCURVE",
"633 136 CURVE SMOOTH",
"368 136 LINE",
"441 545 LINE",
"711 545 LINE SMOOTH"
);
},
{
closed = 1;
nodes = (
"875 1051 OFFCURVE",
"941 1001 OFFCURVE",
"941 897 CURVE SMOOTH",
"941 772 OFFCURVE",
"847 681 OFFCURVE",
"672 681 CURVE SMOOTH",
"465 681 LINE",
"530 1051 LINE",
"747 1051 LINE SMOOTH"
);
}
);
width = 1228;
}
);
unicode = 0042;
},
{
glyphname = C;
lastChange = "2015-01-03 15:18:27 +0000";
layers = (
{
background = {
paths = (
{
closed = 1;
nodes = (
"1064 1209 OFFCURVE",
"1025 1191 OFFCURVE",
"1016 1146 CURVE SMOOTH",
"1003 1078 LINE",
"965 1155 OFFCURVE",
"881 1209 OFFCURVE",
"757 1209 CURVE SMOOTH",
"591 1209 OFFCURVE",
"441 1143 OFFCURVE",
"328 1020 CURVE SMOOTH",
"196 877 OFFCURVE",
"128 661 OFFCURVE",
"128 471 CURVE SMOOTH",
"128 171 OFFCURVE",
"313 -22 OFFCURVE",
"600 -22 CURVE SMOOTH",
"742 -22 OFFCURVE",
"894 15 OFFCURVE",
"1045 84 CURVE SMOOTH",
"1092 105 OFFCURVE",
"1105 145 OFFCURVE",
"1082 225 CURVE SMOOTH",
"1060 302 OFFCURVE",
"1026 322 OFFCURVE",
"982 302 CURVE SMOOTH",
"856 243 OFFCURVE",
"753 205 OFFCURVE",
"630 205 CURVE SMOOTH",
"476 205 OFFCURVE",
"394 302 OFFCURVE",
"394 475 CURVE SMOOTH",
"394 596 OFFCURVE",
"431 749 OFFCURVE",
"500 847 CURVE SMOOTH",
"562 935 OFFCURVE",
"648 982 OFFCURVE",
"757 982 CURVE SMOOTH",
"895 982 OFFCURVE",
"951 891 OFFCURVE",
"928 762 CURVE SMOOTH",
"920 717 OFFCURVE",
"940 699 OFFCURVE",
"1035 699 CURVE SMOOTH",
"1130 699 OFFCURVE",
"1170 717 OFFCURVE",
"1178 762 CURVE SMOOTH",
"1246 1146 LINE SMOOTH",
"1254 1191 OFFCURVE",
"1234 1209 OFFCURVE",
"1149 1209 CURVE SMOOTH"
);
}
);
};
layerId = UUID0;
name = "Bold Italic";
paths = (
{
closed = 1;
nodes = (
"1064 1209 OFFCURVE",
"1025 1191 OFFCURVE",
"1016 1146 CURVE SMOOTH",
"1003 1078 LINE",
"965 1155 OFFCURVE",
"881 1209 OFFCURVE",
"757 1209 CURVE SMOOTH",
"342 1209 OFFCURVE",
"128 819 OFFCURVE",
"128 471 CURVE SMOOTH",
"128 171 OFFCURVE",
"313 -22 OFFCURVE",
"600 -22 CURVE SMOOTH",
"742 -22 OFFCURVE",
"894 15 OFFCURVE",
"1045 84 CURVE SMOOTH",
"1092 105 OFFCURVE",
"1105 145 OFFCURVE",
"1082 225 CURVE SMOOTH",
"1060 302 OFFCURVE",
"1026 322 OFFCURVE",
"982 302 CURVE SMOOTH",
"856 243 OFFCURVE",
"753 205 OFFCURVE",
"630 205 CURVE SMOOTH",
"476 205 OFFCURVE",
"394 302 OFFCURVE",
"394 475 CURVE SMOOTH",
"394 662 OFFCURVE",
"476 982 OFFCURVE",
"757 982 CURVE SMOOTH",
"895 982 OFFCURVE",
"951 891 OFFCURVE",
"928 762 CURVE SMOOTH",
"920 717 OFFCURVE",
"940 699 OFFCURVE",
"1035 699 CURVE SMOOTH",
"1130 699 OFFCURVE",
"1170 717 OFFCURVE",
"1178 762 CURVE SMOOTH",
"1246 1146 LINE SMOOTH",
"1254 1191 OFFCURVE",
"1234 1209 OFFCURVE",
"1149 1209 CURVE SMOOTH"
);
}
);
width = 1228;
},
{
layerId = "38D47A70-C265-4203-8B70-C23C50FC2DCC";
name = "Regular Italic";
paths = (
{
closed = 1;
nodes = (
"1086 1209 OFFCURVE",
"1063 1190 OFFCURVE",
"1055 1144 CURVE SMOOTH",
"1044 1080 LINE",
"993 1159 OFFCURVE",
"903 1209 OFFCURVE",
"772 1209 CURVE SMOOTH",
"387 1209 OFFCURVE",
"140 840 OFFCURVE",
"140 453 CURVE SMOOTH",
"140 166 OFFCURVE",
"305 -22 OFFCURVE",
"575 -22 CURVE SMOOTH",
"729 -22 OFFCURVE",
"881 22 OFFCURVE",
"1023 106 CURVE SMOOTH",
"1063 130 OFFCURVE",
"1068 161 OFFCURVE",
"1045 207 CURVE SMOOTH",
"1021 254 OFFCURVE",
"986 262 OFFCURVE",
"956 242 CURVE SMOOTH",
"847 170 OFFCURVE",
"718 126 OFFCURVE",
"586 126 CURVE SMOOTH",
"404 126 OFFCURVE",
"298 251 OFFCURVE",
"298 461 CURVE SMOOTH",
"298 755 OFFCURVE",
"472 1061 OFFCURVE",
"761 1061 CURVE SMOOTH",
"954 1061 OFFCURVE",
"1020 945 OFFCURVE",
"997 814 CURVE SMOOTH",
"989 768 OFFCURVE",
"1005 749 OFFCURVE",
"1061 749 CURVE SMOOTH",
"1117 749 OFFCURVE",
"1139 768 OFFCURVE",
"1147 814 CURVE SMOOTH",
"1205 1144 LINE SMOOTH",
"1213 1190 OFFCURVE",
"1198 1209 OFFCURVE",
"1142 1209 CURVE SMOOTH"
);
}
);
width = 1228;
}
);
unicode = 0043;
},
{
color = 6;
glyphname = Ccedilla;
lastChange = "2014-11-22 20:01:13 +0000";
layers = (
{
background = {
paths = (
{
closed = 1;
nodes = (
"1003 1078 LINE",
"965 1155 OFFCURVE",
"881 1209 OFFCURVE",
"757 1209 CURVE SMOOTH",
"591 1209 OFFCURVE",
"441 1143 OFFCURVE",
"328 1020 CURVE SMOOTH",
"196 877 OFFCURVE",
"128 661 OFFCURVE",
"128 471 CURVE SMOOTH",
"128 216 OFFCURVE",
"261 39 OFFCURVE",
"476 -9 CURVE",
"447 -180 LINE SMOOTH",
"441 -215 OFFCURVE",
"461 -224 OFFCURVE",
"479 -221 CURVE SMOOTH",
"545 -209 OFFCURVE",
"597 -215 OFFCURVE",
"597 -258 CURVE SMOOTH",
"597 -291 OFFCURVE",
"576 -322 OFFCURVE",
"501 -322 CURVE SMOOTH",
"434 -322 OFFCURVE",
"392 -308 OFFCURVE",
"344 -288 CURVE SMOOTH",
"318 -277 OFFCURVE",
"292 -308 OFFCURVE",
"275 -346 CURVE SMOOTH",
"257 -386 OFFCURVE",
"253 -420 OFFCURVE",
"279 -431 CURVE SMOOTH",
"344 -458 OFFCURVE",
"431 -472 OFFCURVE",
"527 -472 CURVE SMOOTH",
"651 -472 OFFCURVE",
"736 -445 OFFCURVE",
"784 -389 CURVE SMOOTH",
"819 -350 OFFCURVE",
"832 -292 OFFCURVE",
"832 -250 CURVE SMOOTH",
"832 -156 OFFCURVE",
"769 -89 OFFCURVE",
"637 -93 CURVE",
"649 -20 LINE",
"777 -13 OFFCURVE",
"911 23 OFFCURVE",
"1045 84 CURVE SMOOTH",
"1092 105 OFFCURVE",
"1105 145 OFFCURVE",
"1082 225 CURVE SMOOTH",
"1060 302 OFFCURVE",
"1026 322 OFFCURVE",
"982 302 CURVE SMOOTH",
"856 243 OFFCURVE",
"753 205 OFFCURVE",
"630 205 CURVE SMOOTH",
"476 205 OFFCURVE",
"394 302 OFFCURVE",
"394 475 CURVE SMOOTH",
"394 596 OFFCURVE",
"431 749 OFFCURVE",
"500 847 CURVE SMOOTH",
"562 935 OFFCURVE",
"648 982 OFFCURVE",
"757 982 CURVE SMOOTH",
"895 982 OFFCURVE",
"951 891 OFFCURVE",
"928 762 CURVE SMOOTH",
"920 717 OFFCURVE",
"940 699 OFFCURVE",
"1035 699 CURVE SMOOTH",
"1130 699 OFFCURVE",
"1170 717 OFFCURVE",
"1178 762 CURVE SMOOTH",
"1246 1146 LINE SMOOTH",
"1254 1191 OFFCURVE",
"1234 1209 OFFCURVE",
"1149 1209 CURVE SMOOTH",
"1064 1209 OFFCURVE",
"1025 1191 OFFCURVE",
"1016 1146 CURVE SMOOTH"
);
}
);
};
components = (
{
name = C;
transform = "{1, 0, 0, 1, 0, 0}";
},
{
name = cedilla;
transform = "{1, 0, 0, 1, 40, 0}";
}
);
layerId = UUID0;
name = "Bold Italic";
width = 1228;
},
{
background = {
paths = (
{
closed = 1;
nodes = (
"468 -175 LINE SMOOTH",
"461 -213 OFFCURVE",
"481 -218 OFFCURVE",
"500 -217 CURVE SMOOTH",
"585 -212 OFFCURVE",
"634 -226 OFFCURVE",
"634 -271 CURVE SMOOTH",
"634 -317 OFFCURVE",
"598 -352 OFFCURVE",
"518 -352 CURVE SMOOTH",
"451 -352 OFFCURVE",
"380 -338 OFFCURVE",
"331 -318 CURVE SMOOTH",
"309 -309 OFFCURVE",
"285 -329 OFFCURVE",
"272 -354 CURVE SMOOTH",
"258 -380 OFFCURVE",
"256 -412 OFFCURVE",
"279 -424 CURVE SMOOTH",
"342 -456 OFFCURVE",
"428 -472 OFFCURVE",
"517 -472 CURVE SMOOTH",
"621 -472 OFFCURVE",
"693 -445 OFFCURVE",
"737 -398 CURVE SMOOTH",
"774 -359 OFFCURVE",
"791 -299 OFFCURVE",
"791 -258 CURVE SMOOTH",
"791 -177 OFFCURVE",
"735 -111 OFFCURVE",
"613 -113 CURVE",
"629 -20 LINE",
"764 -11 OFFCURVE",
"898 32 OFFCURVE",
"1023 106 CURVE SMOOTH",
"1063 130 OFFCURVE",
"1068 161 OFFCURVE",
"1045 207 CURVE SMOOTH",
"1021 254 OFFCURVE",
"986 262 OFFCURVE",
"956 242 CURVE SMOOTH",
"847 170 OFFCURVE",
"718 126 OFFCURVE",
"586 126 CURVE SMOOTH",
"404 126 OFFCURVE",
"298 251 OFFCURVE",
"298 461 CURVE SMOOTH",
"298 755 OFFCURVE",
"472 1061 OFFCURVE",
"761 1061 CURVE SMOOTH",
"954 1061 OFFCURVE",
"1020 945 OFFCURVE",
"997 814 CURVE SMOOTH",
"989 768 OFFCURVE",
"1005 749 OFFCURVE",
"1061 749 CURVE SMOOTH",
"1117 749 OFFCURVE",
"1139 768 OFFCURVE",
"1147 814 CURVE SMOOTH",
"1205 1144 LINE SMOOTH",
"1213 1190 OFFCURVE",
"1198 1209 OFFCURVE",
"1142 1209 CURVE SMOOTH",
"1086 1209 OFFCURVE",
"1063 1190 OFFCURVE",
"1055 1144 CURVE SMOOTH",
"1044 1080 LINE",
"993 1159 OFFCURVE",
"903 1209 OFFCURVE",
"772 1209 CURVE SMOOTH",
"387 1209 OFFCURVE",
"140 840 OFFCURVE",
"140 453 CURVE SMOOTH",
"140 195 OFFCURVE",
"273 17 OFFCURVE",
"495 -16 CURVE"
);
}
);
};
components = (
{
name = C;
transform = "{1, 0, 0, 1, 0, 0}";
},
{
name = cedilla;
transform = "{1, 0, 0, 1, 40, 0}";
}
);
layerId = "38D47A70-C265-4203-8B70-C23C50FC2DCC";
name = "Regular Italic";
width = 1228;
}
);
unicode = 00C7;
},
{
glyphname = D;
lastChange = "2015-01-03 15:18:27 +0000";
layers = (
{
background = {
paths = (
{
closed = 1;
nodes = (
"262 1187 LINE SMOOTH",
"217 1187 OFFCURVE",
"196 1169 OFFCURVE",
"181 1084 CURVE SMOOTH",
"166 999 OFFCURVE",
"181 982 OFFCURVE",
"226 982 CURVE SMOOTH",
"323 982 LINE",
"186 205 LINE",
"89 205 LINE SMOOTH",
"44 205 OFFCURVE",
"22 187 OFFCURVE",
"7 102 CURVE SMOOTH",
"-8 17 OFFCURVE",
"8 0 OFFCURVE",
"53 0 CURVE SMOOTH",
"544 0 LINE SMOOTH",
"752 0 OFFCURVE",
"915 68 OFFCURVE",
"1027 203 CURVE SMOOTH",
"1144 342 OFFCURVE",
"1198 557 OFFCURVE",
"1198 718 CURVE SMOOTH",
"1198 1012 OFFCURVE",
"1016 1187 OFFCURVE",
"713 1187 CURVE SMOOTH"
);
},
{
closed = 1;
nodes = (
"846 972 OFFCURVE",
"932 883 OFFCURVE",
"932 712 CURVE SMOOTH",
"932 591 OFFCURVE",
"896 434 OFFCURVE",
"814 335 CURVE SMOOTH",
"748 256 OFFCURVE",
"658 215 OFFCURVE",
"542 215 CURVE SMOOTH",
"438 215 LINE",
"571 972 LINE",
"675 972 LINE SMOOTH"
);
}
);
};
layerId = UUID0;
name = "Bold Italic";
paths = (
{
closed = 1;
nodes = (
"262 1187 LINE SMOOTH",
"217 1187 OFFCURVE",
"196 1169 OFFCURVE",
"181 1084 CURVE SMOOTH",
"166 999 OFFCURVE",
"181 982 OFFCURVE",
"226 982 CURVE SMOOTH",
"323 982 LINE",
"186 205 LINE",
"89 205 LINE SMOOTH",
"44 205 OFFCURVE",
"22 187 OFFCURVE",
"7 102 CURVE SMOOTH",
"-8 17 OFFCURVE",
"8 0 OFFCURVE",
"53 0 CURVE SMOOTH",
"544 0 LINE SMOOTH",
"1080 0 OFFCURVE",
"1198 459 OFFCURVE",
"1198 718 CURVE SMOOTH",
"1198 1012 OFFCURVE",
"1016 1187 OFFCURVE",
"713 1187 CURVE SMOOTH"
);
},
{
closed = 1;
nodes = (
"846 972 OFFCURVE",
"932 883 OFFCURVE",
"932 712 CURVE SMOOTH",
"932 494 OFFCURVE",
"836 215 OFFCURVE",
"542 215 CURVE SMOOTH",
"438 215 LINE",
"571 972 LINE",
"675 972 LINE SMOOTH"
);
}
);
width = 1228;
},
{
layerId = "38D47A70-C265-4203-8B70-C23C50FC2DCC";
name = "Regular Italic";
paths = (
{
closed = 1;
nodes = (
"282 1187 LINE SMOOTH",
"237 1187 OFFCURVE",
"216 1169 OFFCURVE",
"207 1119 CURVE SMOOTH",
"198 1069 OFFCURVE",
"213 1051 OFFCURVE",
"258 1051 CURVE SMOOTH",
"370 1051 LINE",
"208 136 LINE",
"96 136 LINE SMOOTH",
"51 136 OFFCURVE",
"30 118 OFFCURVE",
"21 68 CURVE SMOOTH",
"13 18 OFFCURVE",
"28 0 OFFCURVE",
"73 0 CURVE SMOOTH",
"559 0 LINE SMOOTH",
"1026 0 OFFCURVE",
"1185 447 OFFCURVE",
"1185 724 CURVE SMOOTH",
"1185 1011 OFFCURVE",
"1011 1187 OFFCURVE",
"738 1187 CURVE SMOOTH"
);
},
{
closed = 1;
nodes = (
"907 1051 OFFCURVE",
"1028 936 OFFCURVE",
"1028 719 CURVE SMOOTH",
"1028 487 OFFCURVE",
"904 136 OFFCURVE",
"544 136 CURVE SMOOTH",
"358 136 LINE",
"520 1051 LINE",
"706 1051 LINE SMOOTH"
);
}
);
width = 1228;
}
);
unicode = 0044;
},
{
color = 6;
glyphname = Eth;
lastChange = "2015-01-03 15:18:27 +0000";
layers = (
{
components = (
{
name = D;
transform = "{1, 0, 0, 1, 0, 0}";
}
);
layerId = UUID0;
name = "Bold Italic";
paths = (
{
closed = 1;
nodes = (
"159 719 LINE SMOOTH",
"114 719 OFFCURVE",
"93 701 OFFCURVE",
"76 606 CURVE SMOOTH",
"60 511 OFFCURVE",
"75 494 OFFCURVE",
"120 494 CURVE SMOOTH",
"622 494 LINE SMOOTH",
"667 494 OFFCURVE",
"688 511 OFFCURVE",
"704 606 CURVE SMOOTH",
"721 701 OFFCURVE",
"706 719 OFFCURVE",
"661 719 CURVE SMOOTH"
);
}
);
width = 1228;
},
{
components = (
{
name = D;
transform = "{1, 0, 0, 1, 0, 0}";
}
);
layerId = "38D47A70-C265-4203-8B70-C23C50FC2DCC";
name = "Regular Italic";
paths = (
{
closed = 1;
nodes = (
"162 680 LINE SMOOTH",
"117 680 OFFCURVE",
"96 662 OFFCURVE",
"87 612 CURVE SMOOTH",
"79 562 OFFCURVE",
"93 544 OFFCURVE",
"138 544 CURVE SMOOTH",
"620 544 LINE SMOOTH",
"665 544 OFFCURVE",
"687 562 OFFCURVE",
"695 612 CURVE SMOOTH",
"704 662 OFFCURVE",
"689 680 OFFCURVE",
"644 680 CURVE SMOOTH"
);
}
);
width = 1228;
}
);
unicode = 00D0;
},
{
glyphname = E;
lastChange = "2015-01-03 15:18:27 +0000";
layers = (
{
layerId = UUID0;
name = "Bold Italic";
paths = (
{
closed = 1;
nodes = (
"262 1187 LINE SMOOTH",
"217 1187 OFFCURVE",
"196 1169 OFFCURVE",
"181 1084 CURVE SMOOTH",
"166 999 OFFCURVE",
"181 982 OFFCURVE",
"226 982 CURVE SMOOTH",
"323 982 LINE",
"186 205 LINE",
"89 205 LINE SMOOTH",
"44 205 OFFCURVE",
"22 187 OFFCURVE",
"7 102 CURVE SMOOTH",
"-8 17 OFFCURVE",
"8 0 OFFCURVE",
"53 0 CURVE SMOOTH",
"985 0 LINE SMOOTH",
"1031 0 OFFCURVE",
"1053 19 OFFCURVE",
"1061 65 CURVE SMOOTH",
"1123 417 LINE SMOOTH",
"1131 462 OFFCURVE",
"1110 480 OFFCURVE",
"1020 480 CURVE SMOOTH",
"930 480 OFFCURVE",
"891 462 OFFCURVE",
"883 417 CURVE SMOOTH",
"847 215 LINE",
"437 215 LINE",
"488 504 LINE",
"732 504 LINE SMOOTH",
"777 504 OFFCURVE",
"799 526 OFFCURVE",
"814 611 CURVE SMOOTH",
"829 696 OFFCURVE",
"815 719 OFFCURVE",
"770 719 CURVE SMOOTH",
"526 719 LINE",
"571 972 LINE",
"971 972 LINE",
"944 820 LINE SMOOTH",
"936 775 OFFCURVE",
"956 757 OFFCURVE",
"1041 757 CURVE SMOOTH",
"1126 757 OFFCURVE",
"1166 775 OFFCURVE",
"1174 820 CURVE SMOOTH",
"1227 1122 LINE SMOOTH",
"1235 1168 OFFCURVE",
"1220 1187 OFFCURVE",
"1174 1187 CURVE SMOOTH"
);
}
);
width = 1228;
},
{
layerId = "38D47A70-C265-4203-8B70-C23C50FC2DCC";
name = "Regular Italic";
paths = (
{
closed = 1;
nodes = (
"282 1187 LINE SMOOTH",
"237 1187 OFFCURVE",
"216 1169 OFFCURVE",
"207 1119 CURVE SMOOTH",
"198 1069 OFFCURVE",
"213 1051 OFFCURVE",
"258 1051 CURVE SMOOTH",
"360 1051 LINE",
"198 136 LINE",
"96 136 LINE SMOOTH",
"51 136 OFFCURVE",
"30 118 OFFCURVE",
"21 68 CURVE SMOOTH",
"13 18 OFFCURVE",
"28 0 OFFCURVE",
"73 0 CURVE SMOOTH",
"967 0 LINE SMOOTH",
"1012 0 OFFCURVE",
"1033 18 OFFCURVE",
"1041 68 CURVE SMOOTH",
"1094 365 LINE SMOOTH",
"1102 411 OFFCURVE",
"1086 430 OFFCURVE",
"1030 430 CURVE SMOOTH",
"974 430 OFFCURVE",
"952 411 OFFCURVE",
"944 365 CURVE SMOOTH",
"903 136 LINE",
"348 136 LINE",
"420 544 LINE",
"670 544 LINE",
"654 453 LINE SMOOTH",
"646 407 OFFCURVE",
"662 388 OFFCURVE",
"718 388 CURVE SMOOTH",
"774 388 OFFCURVE",
"796 407 OFFCURVE",
"804 453 CURVE SMOOTH",
"860 771 LINE SMOOTH",
"869 817 OFFCURVE",
"853 836 OFFCURVE",
"797 836 CURVE SMOOTH",
"741 836 OFFCURVE",
"719 817 OFFCURVE",
"710 771 CURVE SMOOTH",
"694 680 LINE",
"444 680 LINE",
"510 1051 LINE",
"1045 1051 LINE",
"1012 865 LINE SMOOTH",
"1004 819 OFFCURVE",
"1020 800 OFFCURVE",
"1076 800 CURVE SMOOTH",
"1132 800 OFFCURVE",
"1154 819 OFFCURVE",
"1162 865 CURVE SMOOTH",
"1207 1119 LINE SMOOTH",
"1216 1169 OFFCURVE",
"1201 1187 OFFCURVE",
"1156 1187 CURVE SMOOTH"
);
}
);
width = 1228;
}
);
unicode = 0045;
},
{
color = 6;
glyphname = Eogonek;
lastChange = "2014-11-22 20:01:13 +0000";
layers = (
{
background = {
paths = (
{
closed = 1;
nodes = (
"820 -472 OFFCURVE",
"912 -457 OFFCURVE",
"978 -436 CURVE SMOOTH",
"1008 -427 OFFCURVE",
"1024 -400 OFFCURVE",
"1018 -350 CURVE SMOOTH",
"1012 -302 OFFCURVE",
"993 -280 OFFCURVE",
"966 -285 CURVE SMOOTH",
"926 -292 OFFCURVE",
"886 -298 OFFCURVE",
"847 -298 CURVE SMOOTH",
"798 -298 OFFCURVE",
"769 -280 OFFCURVE",
"769 -235 CURVE SMOOTH",
"769 -166 OFFCURVE",
"855 -85 OFFCURVE",
"970 0 CURVE",
"985 0 LINE SMOOTH",
"1031 0 OFFCURVE",
"1053 19 OFFCURVE",
"1061 65 CURVE SMOOTH",
"1123 417 LINE SMOOTH",
"1131 462 OFFCURVE",
"1110 480 OFFCURVE",
"1020 480 CURVE SMOOTH",
"930 480 OFFCURVE",
"891 462 OFFCURVE",
"883 417 CURVE SMOOTH",
"847 215 LINE",
"437 215 LINE",
"488 504 LINE",
"732 504 LINE SMOOTH",
"777 504 OFFCURVE",
"799 526 OFFCURVE",
"814 611 CURVE SMOOTH",
"829 696 OFFCURVE",
"815 719 OFFCURVE",
"770 719 CURVE SMOOTH",
"526 719 LINE",
"571 972 LINE",
"971 972 LINE",
"944 820 LINE SMOOTH",
"936 775 OFFCURVE",
"956 757 OFFCURVE",
"1041 757 CURVE SMOOTH",
"1126 757 OFFCURVE",
"1166 775 OFFCURVE",
"1174 820 CURVE SMOOTH",
"1227 1122 LINE SMOOTH",
"1235 1168 OFFCURVE",
"1220 1187 OFFCURVE",
"1174 1187 CURVE SMOOTH",
"262 1187 LINE SMOOTH",
"217 1187 OFFCURVE",
"196 1169 OFFCURVE",
"181 1084 CURVE SMOOTH",
"166 999 OFFCURVE",
"181 982 OFFCURVE",
"226 982 CURVE SMOOTH",
"323 982 LINE",
"186 205 LINE",
"89 205 LINE SMOOTH",
"44 205 OFFCURVE",
"22 187 OFFCURVE",
"7 102 CURVE SMOOTH",
"-8 17 OFFCURVE",
"8 0 OFFCURVE",
"53 0 CURVE SMOOTH",
"751 0 LINE",
"619 -77 OFFCURVE",
"519 -173 OFFCURVE",
"519 -300 CURVE SMOOTH",
"519 -408 OFFCURVE",
"602 -472 OFFCURVE",
"741 -472 CURVE SMOOTH"
);
}
);
};
components = (
{
name = E;
transform = "{1, 0, 0, 1, 0, 0}";
},
{
name = ogonek;
transform = "{1, 0, 0, 1, 290, 0}";
}
);
layerId = UUID0;
name = "Bold Italic";
width = 1228;
},
{
background = {
paths = (
{
closed = 1;
nodes = (
"764 -336 OFFCURVE",
"739 -316 OFFCURVE",
"739 -277 CURVE SMOOTH",
"739 -205 OFFCURVE",
"807 -117 OFFCURVE",
"955 0 CURVE",
"967 0 LINE SMOOTH",
"1012 0 OFFCURVE",
"1033 18 OFFCURVE",
"1041 68 CURVE",
"1094 365 LINE SMOOTH",
"1102 411 OFFCURVE",
"1086 430 OFFCURVE",
"1030 430 CURVE SMOOTH",
"974 430 OFFCURVE",
"952 411 OFFCURVE",
"944 365 CURVE SMOOTH",
"903 136 LINE",
"348 136 LINE",
"420 544 LINE",
"670 544 LINE",
"654 453 LINE SMOOTH",
"646 407 OFFCURVE",
"662 388 OFFCURVE",
"718 388 CURVE SMOOTH",
"774 388 OFFCURVE",
"796 407 OFFCURVE",
"804 453 CURVE SMOOTH",
"860 771 LINE",
"869 817 OFFCURVE",
"853 836 OFFCURVE",
"797 836 CURVE SMOOTH",
"741 836 OFFCURVE",
"719 817 OFFCURVE",
"710 771 CURVE",
"694 680 LINE",
"444 680 LINE",
"510 1051 LINE",
"1045 1051 LINE",
"1012 865 LINE SMOOTH",
"1004 819 OFFCURVE",
"1020 800 OFFCURVE",
"1076 800 CURVE SMOOTH",
"1132 800 OFFCURVE",
"1154 819 OFFCURVE",
"1162 865 CURVE SMOOTH",
"1207 1119 LINE SMOOTH",
"1216 1169 OFFCURVE",
"1201 1187 OFFCURVE",
"1156 1187 CURVE SMOOTH",
"282 1187 LINE SMOOTH",
"237 1187 OFFCURVE",
"216 1169 OFFCURVE",
"207 1119 CURVE SMOOTH",
"198 1069 OFFCURVE",
"213 1051 OFFCURVE",
"258 1051 CURVE SMOOTH",
"360 1051 LINE",
"198 136 LINE",
"96 136 LINE SMOOTH",
"51 136 OFFCURVE",
"30 118 OFFCURVE",
"21 68 CURVE SMOOTH",
"13 18 OFFCURVE",
"28 0 OFFCURVE",
"73 0 CURVE SMOOTH",
"783 0 LINE",
"653 -101 OFFCURVE",
"579 -200 OFFCURVE",
"579 -310 CURVE SMOOTH",
"579 -406 OFFCURVE",
"640 -472 OFFCURVE",
"747 -472 CURVE SMOOTH",
"811 -472 OFFCURVE",
"877 -460 OFFCURVE",
"926 -443 CURVE SMOOTH",
"957 -432 OFFCURVE",
"967 -411 OFFCURVE",
"962 -374 CURVE SMOOTH",
"957 -337 OFFCURVE",
"942 -322 OFFCURVE",
"915 -326 CURVE SMOOTH",
"879 -332 OFFCURVE",
"843 -336 OFFCURVE",
"804 -336 CURVE SMOOTH"
);
}
);
};
components = (
{
name = E;
transform = "{1, 0, 0, 1, 0, 0}";
},
{
name = ogonek;
transform = "{1, 0, 0, 1, 290, 0}";
}
);
layerId = "38D47A70-C265-4203-8B70-C23C50FC2DCC";
name = "Regular Italic";
width = 1228;
}
);
unicode = 0118;
},
{
glyphname = F;
lastChange = "2015-01-03 15:18:27 +0000";
layers = (
{
layerId = UUID0;
name = "Bold Italic";
paths = (
{
closed = 1;
nodes = (
"262 1187 LINE SMOOTH",
"217 1187 OFFCURVE",
"196 1169 OFFCURVE",
"181 1084 CURVE SMOOTH",
"166 999 OFFCURVE",
"181 982 OFFCURVE",
"226 982 CURVE SMOOTH",
"353 982 LINE",
"216 205 LINE",
"89 205 LINE SMOOTH",
"44 205 OFFCURVE",
"22 187 OFFCURVE",
"7 102 CURVE SMOOTH",
"-8 17 OFFCURVE",
"8 0 OFFCURVE",
"53 0 CURVE SMOOTH",
"647 0 LINE SMOOTH",
"692 0 OFFCURVE",
"712 17 OFFCURVE",
"727 102 CURVE SMOOTH",
"742 187 OFFCURVE",
"728 205 OFFCURVE",
"683 205 CURVE SMOOTH",
"466 205 LINE",
"509 452 LINE",
"813 452 LINE SMOOTH",
"858 452 OFFCURVE",
"880 474 OFFCURVE",
"895 559 CURVE SMOOTH",
"910 644 OFFCURVE",
"896 667 OFFCURVE",
"851 667 CURVE SMOOTH",
"547 667 LINE",
"601 972 LINE",
"991 972 LINE",
"964 820 LINE SMOOTH",
"956 775 OFFCURVE",
"976 757 OFFCURVE",
"1061 757 CURVE SMOOTH",
"1146 757 OFFCURVE",
"1186 775 OFFCURVE",
"1194 820 CURVE SMOOTH",
"1247 1122 LINE SMOOTH",
"1255 1168 OFFCURVE",
"1240 1187 OFFCURVE",
"1194 1187 CURVE SMOOTH"
);
}
);
width = 1228;
},
{
layerId = "38D47A70-C265-4203-8B70-C23C50FC2DCC";
name = "Regular Italic";
paths = (
{
closed = 1;
nodes = (
"282 1187 LINE SMOOTH",
"237 1187 OFFCURVE",
"216 1169 OFFCURVE",
"207 1119 CURVE SMOOTH",
"198 1069 OFFCURVE",
"213 1051 OFFCURVE",
"258 1051 CURVE SMOOTH",
"390 1051 LINE",
"228 136 LINE",
"96 136 LINE SMOOTH",
"51 136 OFFCURVE",
"30 118 OFFCURVE",
"21 68 CURVE SMOOTH",
"13 18 OFFCURVE",
"28 0 OFFCURVE",
"73 0 CURVE SMOOTH",
"587 0 LINE SMOOTH",
"632 0 OFFCURVE",
"653 18 OFFCURVE",
"661 68 CURVE SMOOTH",
"670 118 OFFCURVE",
"655 136 OFFCURVE",
"610 136 CURVE SMOOTH",
"378 136 LINE",
"447 524 LINE",
"697 524 LINE",
"681 433 LINE SMOOTH",
"673 387 OFFCURVE",
"688 368 OFFCURVE",
"744 368 CURVE SMOOTH",
"800 368 OFFCURVE",
"823 387 OFFCURVE",
"831 433 CURVE SMOOTH",
"887 751 LINE SMOOTH",
"895 797 OFFCURVE",
"879 816 OFFCURVE",
"823 816 CURVE SMOOTH",
"767 816 OFFCURVE",
"745 797 OFFCURVE",
"737 751 CURVE SMOOTH",
"721 660 LINE",
"471 660 LINE",
"540 1051 LINE",
"1075 1051 LINE",
"1040 855 LINE SMOOTH",
"1032 809 OFFCURVE",
"1048 790 OFFCURVE",
"1104 790 CURVE SMOOTH",
"1160 790 OFFCURVE",
"1182 809 OFFCURVE",
"1190 855 CURVE SMOOTH",
"1237 1119 LINE SMOOTH",
"1246 1169 OFFCURVE",
"1231 1187 OFFCURVE",
"1186 1187 CURVE SMOOTH"
);
}
);
width = 1228;
}
);
unicode = 0046;
},
{
glyphname = G;
lastChange = "2015-01-03 15:18:27 +0000";
layers = (
{
layerId = UUID0;
name = "Bold Italic";
paths = (
{
closed = 1;
nodes = (
"1034 1209 OFFCURVE",
"994 1191 OFFCURVE",
"986 1146 CURVE SMOOTH",
"975 1086 LINE",
"936 1159 OFFCURVE",
"851 1209 OFFCURVE",
"727 1209 CURVE SMOOTH",
"312 1209 OFFCURVE",
"98 819 OFFCURVE",
"98 471 CURVE SMOOTH",
"98 171 OFFCURVE",
"283 -22 OFFCURVE",
"570 -22 CURVE SMOOTH",
"725 -22 OFFCURVE",
"869 5 OFFCURVE",
"999 64 CURVE SMOOTH",
"1024 75 OFFCURVE",
"1041 101 OFFCURVE",
"1047 133 CURVE SMOOTH",
"1094 402 LINE",
"1125 402 LINE SMOOTH",
"1170 402 OFFCURVE",
"1191 419 OFFCURVE",
"1206 504 CURVE SMOOTH",
"1221 589 OFFCURVE",
"1207 607 OFFCURVE",
"1162 607 CURVE SMOOTH",
"688 607 LINE SMOOTH",
"643 607 OFFCURVE",
"621 589 OFFCURVE",
"606 504 CURVE SMOOTH",
"591 419 OFFCURVE",
"606 402 OFFCURVE",
"651 402 CURVE SMOOTH",
"844 402 LINE",
"815 235 LINE",
"745 215 OFFCURVE",
"673 205 OFFCURVE",
"600 205 CURVE SMOOTH",
"446 205 OFFCURVE",
"364 302 OFFCURVE",
"364 475 CURVE SMOOTH",
"364 662 OFFCURVE",
"446 982 OFFCURVE",
"727 982 CURVE SMOOTH",
"871 982 OFFCURVE",
"925 914 OFFCURVE",
"905 802 CURVE SMOOTH",
"897 757 OFFCURVE",
"917 739 OFFCURVE",
"1012 739 CURVE SMOOTH",
"1107 739 OFFCURVE",
"1147 757 OFFCURVE",
"1155 802 CURVE SMOOTH",
"1216 1146 LINE SMOOTH",
"1224 1191 OFFCURVE",
"1204 1209 OFFCURVE",
"1119 1209 CURVE SMOOTH"
);
}
);
width = 1228;
},
{
layerId = "38D47A70-C265-4203-8B70-C23C50FC2DCC";
name = "Regular Italic";
paths = (
{
closed = 1;
nodes = (
"1074 1209 OFFCURVE",
"1051 1190 OFFCURVE",
"1043 1144 CURVE SMOOTH",
"1034 1090 LINE",
"982 1162 OFFCURVE",
"893 1209 OFFCURVE",
"762 1209 CURVE SMOOTH",
"378 1209 OFFCURVE",
"121 845 OFFCURVE",
"121 460 CURVE SMOOTH",
"121 169 OFFCURVE",
"293 -22 OFFCURVE",
"565 -22 CURVE SMOOTH",
"716 -22 OFFCURVE",
"857 6 OFFCURVE",
"978 65 CURVE SMOOTH",
"1003 77 OFFCURVE",
"1020 102 OFFCURVE",
"1026 134 CURVE SMOOTH",
"1075 410 LINE",
"1107 410 LINE SMOOTH",
"1152 410 OFFCURVE",
"1173 428 OFFCURVE",
"1182 478 CURVE SMOOTH",
"1191 528 OFFCURVE",
"1176 546 OFFCURVE",
"1131 546 CURVE SMOOTH",
"702 546 LINE SMOOTH",
"657 546 OFFCURVE",
"636 528 OFFCURVE",
"627 478 CURVE SMOOTH",
"618 428 OFFCURVE",
"633 410 OFFCURVE",
"678 410 CURVE SMOOTH",
"925 410 LINE",
"885 183 LINE",
"791 143 OFFCURVE",
"689 126 OFFCURVE",
"576 126 CURVE SMOOTH",
"389 126 OFFCURVE",
"278 253 OFFCURVE",
"278 465 CURVE SMOOTH",
"278 744 OFFCURVE",
"446 1061 OFFCURVE",
"751 1061 CURVE SMOOTH",
"930 1061 OFFCURVE",
"1013 974 OFFCURVE",
"992 854 CURVE SMOOTH",
"984 808 OFFCURVE",
"1000 789 OFFCURVE",
"1056 789 CURVE SMOOTH",
"1112 789 OFFCURVE",
"1134 808 OFFCURVE",
"1142 854 CURVE SMOOTH",
"1193 1144 LINE SMOOTH",
"1201 1190 OFFCURVE",
"1186 1209 OFFCURVE",
"1130 1209 CURVE SMOOTH"
);
}
);
width = 1228;
}
);
unicode = 0047;
},
{
glyphname = H;
lastChange = "2015-01-03 15:18:27 +0000";
layers = (
{
layerId = UUID0;
name = "Bold Italic";
paths = (
{
closed = 1;
nodes = (
"880 1187 LINE SMOOTH",
"835 1187 OFFCURVE",
"814 1169 OFFCURVE",
"799 1084 CURVE SMOOTH",
"784 999 OFFCURVE",
"799 982 OFFCURVE",
"844 982 CURVE SMOOTH",
"911 982 LINE",
"864 719 LINE",
"476 719 LINE",
"523 982 LINE",
"590 982 LINE SMOOTH",
"635 982 OFFCURVE",
"656 999 OFFCURVE",
"671 1084 CURVE SMOOTH",
"686 1169 OFFCURVE",
"671 1187 OFFCURVE",
"626 1187 CURVE SMOOTH",
"252 1187 LINE SMOOTH",
"207 1187 OFFCURVE",
"186 1169 OFFCURVE",
"171 1084 CURVE SMOOTH",
"156 999 OFFCURVE",
"171 982 OFFCURVE",
"216 982 CURVE SMOOTH",
"273 982 LINE",
"136 205 LINE",
"79 205 LINE SMOOTH",
"34 205 OFFCURVE",
"12 187 OFFCURVE",
"-3 102 CURVE SMOOTH",
"-18 17 OFFCURVE",
"-2 0 OFFCURVE",
"43 0 CURVE SMOOTH",
"417 0 LINE SMOOTH",
"462 0 OFFCURVE",
"482 17 OFFCURVE",
"497 102 CURVE SMOOTH",
"512 187 OFFCURVE",
"498 205 OFFCURVE",
"453 205 CURVE SMOOTH",
"386 205 LINE",
"438 504 LINE",
"826 504 LINE",
"774 205 LINE",
"707 205 LINE SMOOTH",
"662 205 OFFCURVE",
"640 187 OFFCURVE",
"625 102 CURVE SMOOTH",
"610 17 OFFCURVE",
"626 0 OFFCURVE",
"671 0 CURVE SMOOTH",
"1045 0 LINE SMOOTH",
"1090 0 OFFCURVE",
"1110 17 OFFCURVE",
"1125 102 CURVE SMOOTH",
"1140 187 OFFCURVE",
"1126 205 OFFCURVE",
"1081 205 CURVE SMOOTH",
"1024 205 LINE",
"1161 982 LINE",
"1218 982 LINE SMOOTH",
"1263 982 OFFCURVE",
"1284 999 OFFCURVE",
"1299 1084 CURVE SMOOTH",
"1314 1169 OFFCURVE",
"1299 1187 OFFCURVE",
"1254 1187 CURVE SMOOTH"
);
}
);
width = 1228;
},
{
layerId = "38D47A70-C265-4203-8B70-C23C50FC2DCC";
name = "Regular Italic";
paths = (
{
closed = 1;
nodes = (
"910 1187 LINE SMOOTH",
"865 1187 OFFCURVE",
"844 1169 OFFCURVE",
"835 1119 CURVE SMOOTH",
"826 1069 OFFCURVE",
"841 1051 OFFCURVE",
"886 1051 CURVE SMOOTH",
"978 1051 LINE",
"912 680 LINE",
"414 680 LINE",
"480 1051 LINE",
"572 1051 LINE SMOOTH",
"617 1051 OFFCURVE",
"638 1069 OFFCURVE",
"647 1119 CURVE SMOOTH",
"656 1169 OFFCURVE",
"641 1187 OFFCURVE",
"596 1187 CURVE SMOOTH",
"282 1187 LINE SMOOTH",
"237 1187 OFFCURVE",
"216 1169 OFFCURVE",
"207 1119 CURVE SMOOTH",
"198 1069 OFFCURVE",
"213 1051 OFFCURVE",
"258 1051 CURVE SMOOTH",
"330 1051 LINE",
"168 136 LINE",
"96 136 LINE SMOOTH",
"51 136 OFFCURVE",
"30 118 OFFCURVE",
"21 68 CURVE SMOOTH",
"13 18 OFFCURVE",
"28 0 OFFCURVE",
"73 0 CURVE SMOOTH",
"387 0 LINE SMOOTH",
"432 0 OFFCURVE",
"453 18 OFFCURVE",
"461 68 CURVE SMOOTH",
"470 118 OFFCURVE",
"455 136 OFFCURVE",
"410 136 CURVE SMOOTH",
"318 136 LINE",
"390 544 LINE",
"888 544 LINE",
"816 136 LINE",
"724 136 LINE SMOOTH",
"679 136 OFFCURVE",
"658 118 OFFCURVE",
"649 68 CURVE SMOOTH",
"641 18 OFFCURVE",
"656 0 OFFCURVE",
"701 0 CURVE SMOOTH",
"1015 0 LINE SMOOTH",
"1060 0 OFFCURVE",
"1081 18 OFFCURVE",
"1089 68 CURVE SMOOTH",
"1098 118 OFFCURVE",
"1083 136 OFFCURVE",
"1038 136 CURVE SMOOTH",
"966 136 LINE",
"1128 1051 LINE",
"1200 1051 LINE SMOOTH",
"1245 1051 OFFCURVE",
"1266 1069 OFFCURVE",
"1275 1119 CURVE SMOOTH",
"1284 1169 OFFCURVE",
"1269 1187 OFFCURVE",
"1224 1187 CURVE SMOOTH"
);
}
);
width = 1228;
}
);
unicode = 0048;
},
{
color = 6;
glyphname = Hbar;
lastChange = "2015-01-03 15:18:27 +0000";
layers = (
{
layerId = UUID0;
name = "Bold Italic";
paths = (
{
closed = 1;
nodes = (
"880 1187 LINE SMOOTH",
"835 1187 OFFCURVE",
"814 1169 OFFCURVE",
"799 1084 CURVE SMOOTH",
"784 999 OFFCURVE",
"799 982 OFFCURVE",
"844 982 CURVE SMOOTH",
"911 982 LINE",
"897 904 LINE",
"509 904 LINE",
"523 982 LINE",
"590 982 LINE SMOOTH",
"635 982 OFFCURVE",
"656 999 OFFCURVE",
"671 1084 CURVE SMOOTH",
"686 1169 OFFCURVE",
"671 1187 OFFCURVE",
"626 1187 CURVE SMOOTH",
"252 1187 LINE SMOOTH",
"207 1187 OFFCURVE",
"186 1169 OFFCURVE",
"171 1084 CURVE SMOOTH",
"156 999 OFFCURVE",
"171 982 OFFCURVE",
"216 982 CURVE SMOOTH",
"273 982 LINE",
"259 904 LINE",
"182 904 LINE SMOOTH",
"137 904 OFFCURVE",
"116 886 OFFCURVE",
"107 836 CURVE SMOOTH",
"98 786 OFFCURVE",
"113 768 OFFCURVE",
"158 768 CURVE SMOOTH",
"235 768 LINE",
"136 205 LINE",
"79 205 LINE SMOOTH",
"34 205 OFFCURVE",
"12 187 OFFCURVE",
"-3 102 CURVE SMOOTH",
"-18 17 OFFCURVE",
"-2 0 OFFCURVE",
"43 0 CURVE SMOOTH",
"417 0 LINE SMOOTH",
"462 0 OFFCURVE",
"482 17 OFFCURVE",
"497 102 CURVE SMOOTH",
"512 187 OFFCURVE",
"498 205 OFFCURVE",
"453 205 CURVE SMOOTH",
"386 205 LINE",
"431 464 LINE",
"819 464 LINE",
"774 205 LINE",
"707 205 LINE SMOOTH",
"662 205 OFFCURVE",
"640 187 OFFCURVE",
"625 102 CURVE SMOOTH",
"610 17 OFFCURVE",
"626 0 OFFCURVE",
"671 0 CURVE SMOOTH",
"1045 0 LINE SMOOTH",
"1090 0 OFFCURVE",
"1110 17 OFFCURVE",
"1125 102 CURVE SMOOTH",
"1140 187 OFFCURVE",
"1126 205 OFFCURVE",
"1081 205 CURVE SMOOTH",
"1024 205 LINE",
"1123 768 LINE",
"1200 768 LINE SMOOTH",
"1245 768 OFFCURVE",
"1266 786 OFFCURVE",
"1275 836 CURVE SMOOTH",
"1284 886 OFFCURVE",
"1269 904 OFFCURVE",
"1224 904 CURVE SMOOTH",
"1147 904 LINE",
"1161 982 LINE",
"1218 982 LINE SMOOTH",
"1263 982 OFFCURVE",
"1284 999 OFFCURVE",
"1299 1084 CURVE SMOOTH",
"1314 1169 OFFCURVE",
"1299 1187 OFFCURVE",
"1254 1187 CURVE SMOOTH"
);
},
{
closed = 1;
nodes = (
"857 679 LINE",
"469 679 LINE",
"485 768 LINE",
"873 768 LINE"
);
}
);
width = 1228;
},
{
layerId = "38D47A70-C265-4203-8B70-C23C50FC2DCC";
name = "Regular Italic";
paths = (
{
closed = 1;
nodes = (
"910 1187 LINE SMOOTH",
"865 1187 OFFCURVE",
"844 1169 OFFCURVE",
"835 1119 CURVE SMOOTH",
"826 1069 OFFCURVE",
"841 1051 OFFCURVE",
"886 1051 CURVE SMOOTH",
"978 1051 LINE",
"955 924 LINE",
"457 924 LINE",
"480 1051 LINE",
"572 1051 LINE SMOOTH",
"617 1051 OFFCURVE",
"638 1069 OFFCURVE",
"647 1119 CURVE SMOOTH",
"656 1169 OFFCURVE",
"641 1187 OFFCURVE",
"596 1187 CURVE SMOOTH",
"282 1187 LINE SMOOTH",
"237 1187 OFFCURVE",
"216 1169 OFFCURVE",
"207 1119 CURVE SMOOTH",
"198 1069 OFFCURVE",
"213 1051 OFFCURVE",
"258 1051 CURVE SMOOTH",
"330 1051 LINE",
"307 924 LINE",
"185 924 LINE SMOOTH",
"140 924 OFFCURVE",
"119 906 OFFCURVE",
"110 856 CURVE SMOOTH",
"102 806 OFFCURVE",
"116 788 OFFCURVE",
"161 788 CURVE SMOOTH",
"283 788 LINE",
"168 136 LINE",
"96 136 LINE SMOOTH",
"51 136 OFFCURVE",
"30 118 OFFCURVE",
"21 68 CURVE SMOOTH",
"13 18 OFFCURVE",
"28 0 OFFCURVE",
"73 0 CURVE SMOOTH",
"387 0 LINE SMOOTH",
"432 0 OFFCURVE",
"453 18 OFFCURVE",
"461 68 CURVE SMOOTH",
"470 118 OFFCURVE",
"455 136 OFFCURVE",
"410 136 CURVE SMOOTH",
"318 136 LINE",
"390 544 LINE",
"888 544 LINE",
"816 136 LINE",
"724 136 LINE SMOOTH",
"679 136 OFFCURVE",
"658 118 OFFCURVE",
"649 68 CURVE SMOOTH",
"641 18 OFFCURVE",
"656 0 OFFCURVE",
"701 0 CURVE SMOOTH",
"1015 0 LINE SMOOTH",
"1060 0 OFFCURVE",
"1081 18 OFFCURVE",
"1089 68 CURVE SMOOTH",
"1098 118 OFFCURVE",
"1083 136 OFFCURVE",
"1038 136 CURVE SMOOTH",
"966 136 LINE",
"1081 788 LINE",
"1203 788 LINE SMOOTH",
"1248 788 OFFCURVE",
"1270 806 OFFCURVE",
"1278 856 CURVE SMOOTH",
"1287 906 OFFCURVE",
"1272 924 OFFCURVE",
"1227 924 CURVE SMOOTH",
"1105 924 LINE",
"1128 1051 LINE",
"1200 1051 LINE SMOOTH",
"1245 1051 OFFCURVE",
"1266 1069 OFFCURVE",
"1275 1119 CURVE SMOOTH",
"1284 1169 OFFCURVE",
"1269 1187 OFFCURVE",
"1224 1187 CURVE SMOOTH"
);
},
{
closed = 1;
nodes = (
"912 680 LINE",
"414 680 LINE",
"433 788 LINE",
"931 788 LINE"
);
}
);
width = 1228;
}
);
unicode = 0126;
},
{
glyphname = I;
lastChange = "2015-01-03 15:18:27 +0000";
layers = (
{
layerId = UUID0;
name = "Bold Italic";
paths = (
{
closed = 1;
nodes = (
"372 1187 LINE SMOOTH",
"327 1187 OFFCURVE",
"306 1169 OFFCURVE",
"291 1084 CURVE SMOOTH",
"276 999 OFFCURVE",
"291 982 OFFCURVE",
"336 982 CURVE SMOOTH",
"592 982 LINE",
"455 205 LINE",
"219 205 LINE SMOOTH",
"174 205 OFFCURVE",
"152 187 OFFCURVE",
"137 102 CURVE SMOOTH",
"122 17 OFFCURVE",
"138 0 OFFCURVE",
"183 0 CURVE SMOOTH",
"925 0 LINE SMOOTH",
"970 0 OFFCURVE",
"990 17 OFFCURVE",
"1005 102 CURVE SMOOTH",
"1020 187 OFFCURVE",
"1006 205 OFFCURVE",
"961 205 CURVE SMOOTH",
"705 205 LINE",
"842 982 LINE",
"1078 982 LINE SMOOTH",
"1123 982 OFFCURVE",
"1144 999 OFFCURVE",
"1159 1084 CURVE SMOOTH",
"1174 1169 OFFCURVE",
"1159 1187 OFFCURVE",
"1114 1187 CURVE SMOOTH"
);
}
);
width = 1228;
},
{
layerId = "38D47A70-C265-4203-8B70-C23C50FC2DCC";
name = "Regular Italic";
paths = (
{
closed = 1;
nodes = (
"412 1187 LINE SMOOTH",
"367 1187 OFFCURVE",
"346 1169 OFFCURVE",
"337 1119 CURVE SMOOTH",
"328 1069 OFFCURVE",
"343 1051 OFFCURVE",
"388 1051 CURVE SMOOTH",
"654 1051 LINE",
"492 136 LINE",
"226 136 LINE SMOOTH",
"181 136 OFFCURVE",
"160 118 OFFCURVE",
"151 68 CURVE SMOOTH",
"143 18 OFFCURVE",
"158 0 OFFCURVE",
"203 0 CURVE SMOOTH",
"905 0 LINE SMOOTH",
"950 0 OFFCURVE",
"971 18 OFFCURVE",
"979 68 CURVE SMOOTH",
"988 118 OFFCURVE",
"973 136 OFFCURVE",
"928 136 CURVE SMOOTH",
"642 136 LINE",
"804 1051 LINE",
"1050 1051 LINE SMOOTH",
"1095 1051 OFFCURVE",
"1116 1069 OFFCURVE",
"1125 1119 CURVE SMOOTH",
"1134 1169 OFFCURVE",
"1119 1187 OFFCURVE",
"1074 1187 CURVE SMOOTH"
);
}
);
width = 1228;
}
);
unicode = 0049;
},
{
glyphname = IJ;
lastChange = "2015-01-03 15:18:27 +0000";
layers = (
{
layerId = UUID0;
name = "Bold Italic";
paths = (
{
closed = 1;
nodes = (
"872 1187 LINE SMOOTH",
"827 1187 OFFCURVE",
"806 1169 OFFCURVE",
"791 1084 CURVE SMOOTH",
"776 999 OFFCURVE",
"791 982 OFFCURVE",
"836 982 CURVE SMOOTH",
"992 982 LINE",
"874 313 LINE SMOOTH",
"861 239 OFFCURVE",
"832 205 OFFCURVE",
"776 205 CURVE SMOOTH",
"751 205 OFFCURVE",
"728 210 OFFCURVE",
"708 222 CURVE",
"745 435 LINE SMOOTH",
"753 480 OFFCURVE",
"732 498 OFFCURVE",
"642 498 CURVE SMOOTH",
"552 498 OFFCURVE",
"513 480 OFFCURVE",
"505 435 CURVE SMOOTH",
"448 108 LINE SMOOTH",
"444 85 OFFCURVE",
"446 67 OFFCURVE",
"458 59 CURVE SMOOTH",
"538 7 OFFCURVE",
"640 -22 OFFCURVE",
"744 -22 CURVE SMOOTH",
"966 -22 OFFCURVE",
"1083 82 OFFCURVE",
"1120 293 CURVE SMOOTH",
"1242 982 LINE",
"1288 982 LINE SMOOTH",
"1333 982 OFFCURVE",
"1354 999 OFFCURVE",
"1369 1084 CURVE SMOOTH",
"1384 1169 OFFCURVE",
"1369 1187 OFFCURVE",
"1324 1187 CURVE SMOOTH"
);
},
{
closed = 1;
nodes = (
"182 1187 LINE SMOOTH",
"137 1187 OFFCURVE",
"116 1169 OFFCURVE",
"101 1084 CURVE SMOOTH",
"86 999 OFFCURVE",
"101 982 OFFCURVE",
"146 982 CURVE SMOOTH",
"192 982 LINE",
"55 205 LINE",
"9 205 LINE SMOOTH",
"-36 205 OFFCURVE",
"-58 187 OFFCURVE",
"-73 102 CURVE SMOOTH",
"-88 17 OFFCURVE",
"-72 0 OFFCURVE",
"-27 0 CURVE SMOOTH",
"315 0 LINE SMOOTH",
"360 0 OFFCURVE",
"380 17 OFFCURVE",
"395 102 CURVE SMOOTH",
"410 187 OFFCURVE",
"396 205 OFFCURVE",
"351 205 CURVE SMOOTH",
"305 205 LINE",
"442 982 LINE",
"488 982 LINE SMOOTH",
"533 982 OFFCURVE",
"554 999 OFFCURVE",
"569 1084 CURVE SMOOTH",
"584 1169 OFFCURVE",
"569 1187 OFFCURVE",
"524 1187 CURVE SMOOTH"
);
}
);
width = 1228;
},
{
layerId = "38D47A70-C265-4203-8B70-C23C50FC2DCC";
name = "Regular Italic";
paths = (
{
closed = 1;
nodes = (
"922 1187 LINE SMOOTH",
"877 1187 OFFCURVE",
"856 1169 OFFCURVE",
"847 1119 CURVE SMOOTH",
"838 1069 OFFCURVE",
"853 1051 OFFCURVE",
"898 1051 CURVE SMOOTH",
"1039 1051 LINE",
"900 263 LINE SMOOTH",
"883 167 OFFCURVE",
"840 126 OFFCURVE",
"757 126 CURVE SMOOTH",
"719 126 OFFCURVE",
"685 136 OFFCURVE",
"663 161 CURVE",
"708 415 LINE SMOOTH",
"716 461 OFFCURVE",
"700 480 OFFCURVE",
"644 480 CURVE SMOOTH",
"588 480 OFFCURVE",
"566 461 OFFCURVE",
"558 415 CURVE SMOOTH",
"507 130 LINE SMOOTH",
"503 107 OFFCURVE",
"505 90 OFFCURVE",
"514 79 CURVE SMOOTH",
"562 19 OFFCURVE",
"649 -22 OFFCURVE",
"740 -22 CURVE SMOOTH",
"929 -22 OFFCURVE",
"1017 74 OFFCURVE",
"1045 233 CURVE SMOOTH",
"1189 1051 LINE",
"1260 1051 LINE SMOOTH",
"1305 1051 OFFCURVE",
"1326 1069 OFFCURVE",
"1335 1119 CURVE SMOOTH",
"1344 1169 OFFCURVE",
"1329 1187 OFFCURVE",
"1284 1187 CURVE SMOOTH"
);
},
{
closed = 1;
nodes = (
"232 1187 LINE SMOOTH",
"187 1187 OFFCURVE",
"166 1169 OFFCURVE",
"157 1119 CURVE SMOOTH",
"148 1069 OFFCURVE",
"163 1051 OFFCURVE",
"208 1051 CURVE SMOOTH",
"294 1051 LINE",
"132 136 LINE",
"46 136 LINE SMOOTH",
"1 136 OFFCURVE",
"-20 118 OFFCURVE",
"-29 68 CURVE SMOOTH",
"-37 18 OFFCURVE",
"-22 0 OFFCURVE",
"23 0 CURVE SMOOTH",
"355 0 LINE SMOOTH",
"400 0 OFFCURVE",
"421 18 OFFCURVE",
"429 68 CURVE SMOOTH",
"438 118 OFFCURVE",
"423 136 OFFCURVE",
"378 136 CURVE SMOOTH",
"282 136 LINE",
"444 1051 LINE",
"520 1051 LINE SMOOTH",
"565 1051 OFFCURVE",
"586 1069 OFFCURVE",
"595 1119 CURVE SMOOTH",
"604 1169 OFFCURVE",
"589 1187 OFFCURVE",
"544 1187 CURVE SMOOTH"
);
}
);
width = 1228;
}
);
unicode = 0132;
},
{
color = 6;
glyphname = Iogonek;
lastChange = "2014-11-22 21:48:19 +0000";
layers = (
{
background = {
paths = (
{
closed = 1;
nodes = (
"372 1187 LINE SMOOTH",
"327 1187 OFFCURVE",
"306 1169 OFFCURVE",
"291 1084 CURVE SMOOTH",
"276 999 OFFCURVE",
"291 982 OFFCURVE",
"336 982 CURVE SMOOTH",
"592 982 LINE",
"455 205 LINE",
"219 205 LINE SMOOTH",
"174 205 OFFCURVE",
"152 187 OFFCURVE",
"137 102 CURVE SMOOTH",
"122 17 OFFCURVE",
"138 0 OFFCURVE",
"183 0 CURVE SMOOTH",
"441 0 LINE",
"309 -77 OFFCURVE",
"209 -173 OFFCURVE",
"209 -300 CURVE SMOOTH",
"209 -408 OFFCURVE",
"292 -472 OFFCURVE",
"431 -472 CURVE SMOOTH",
"510 -472 OFFCURVE",
"602 -457 OFFCURVE",
"668 -436 CURVE SMOOTH",
"698 -427 OFFCURVE",
"714 -400 OFFCURVE",
"708 -350 CURVE SMOOTH",
"702 -302 OFFCURVE",
"683 -280 OFFCURVE",
"656 -285 CURVE SMOOTH",
"616 -292 OFFCURVE",
"576 -298 OFFCURVE",
"537 -298 CURVE SMOOTH",
"488 -298 OFFCURVE",
"459 -280 OFFCURVE",
"459 -235 CURVE SMOOTH",
"459 -166 OFFCURVE",
"545 -85 OFFCURVE",
"660 0 CURVE",
"925 0 LINE SMOOTH",
"970 0 OFFCURVE",
"990 17 OFFCURVE",
"1005 102 CURVE SMOOTH",
"1020 187 OFFCURVE",
"1006 205 OFFCURVE",
"961 205 CURVE SMOOTH",
"705 205 LINE",
"842 982 LINE",
"1078 982 LINE SMOOTH",
"1123 982 OFFCURVE",
"1144 999 OFFCURVE",
"1159 1084 CURVE SMOOTH",
"1174 1169 OFFCURVE",
"1159 1187 OFFCURVE",
"1114 1187 CURVE SMOOTH"
);
}
);
};
components = (
{
name = I;
transform = "{1, 0, 0, 1, 0, 0}";
},
{
name = ogonek.case;
transform = "{1, 0, 0, 1, -20, 0}";
}
);
layerId = UUID0;
name = "Bold Italic";
width = 1228;
},
{
background = {
paths = (
{
closed = 1;
nodes = (
"412 1187 LINE SMOOTH",
"367 1187 OFFCURVE",
"346 1169 OFFCURVE",
"337 1119 CURVE SMOOTH",
"328 1069 OFFCURVE",
"343 1051 OFFCURVE",
"388 1051 CURVE SMOOTH",
"654 1051 LINE",
"492 136 LINE",
"226 136 LINE SMOOTH",
"181 136 OFFCURVE",
"160 118 OFFCURVE",
"151 68 CURVE SMOOTH",
"143 18 OFFCURVE",
"158 0 OFFCURVE",
"203 0 CURVE SMOOTH",
"453 0 LINE",
"323 -101 OFFCURVE",
"249 -200 OFFCURVE",
"249 -310 CURVE SMOOTH",
"249 -406 OFFCURVE",
"310 -472 OFFCURVE",
"417 -472 CURVE SMOOTH",
"481 -472 OFFCURVE",
"547 -460 OFFCURVE",
"596 -443 CURVE SMOOTH",
"627 -432 OFFCURVE",
"637 -411 OFFCURVE",
"632 -374 CURVE SMOOTH",
"627 -337 OFFCURVE",
"612 -322 OFFCURVE",
"585 -326 CURVE SMOOTH",
"549 -332 OFFCURVE",
"513 -336 OFFCURVE",
"474 -336 CURVE SMOOTH",
"434 -336 OFFCURVE",
"409 -316 OFFCURVE",
"409 -277 CURVE SMOOTH",
"409 -205 OFFCURVE",
"477 -117 OFFCURVE",
"625 0 CURVE",
"905 0 LINE SMOOTH",
"950 0 OFFCURVE",
"971 18 OFFCURVE",
"979 68 CURVE SMOOTH",
"988 118 OFFCURVE",
"973 136 OFFCURVE",
"928 136 CURVE SMOOTH",
"642 136 LINE",
"804 1051 LINE",
"1050 1051 LINE SMOOTH",
"1095 1051 OFFCURVE",
"1116 1069 OFFCURVE",
"1125 1119 CURVE SMOOTH",
"1134 1169 OFFCURVE",
"1119 1187 OFFCURVE",
"1074 1187 CURVE SMOOTH"
);
}
);
};
components = (
{
name = I;
transform = "{1, 0, 0, 1, 0, 0}";
},
{
name = ogonek.case;
transform = "{1, 0, 0, 1, -40, 0}";
}
);
layerId = "38D47A70-C265-4203-8B70-C23C50FC2DCC";
name = "Regular Italic";
width = 1228;
}
);
unicode = 012E;
},
{
glyphname = J;
lastChange = "2015-01-03 15:18:27 +0000";
layers = (
{
layerId = UUID0;
name = "Bold Italic";
paths = (
{
closed = 1;
nodes = (
"502 1187 LINE SMOOTH",
"457 1187 OFFCURVE",
"436 1169 OFFCURVE",
"421 1084 CURVE SMOOTH",
"406 999 OFFCURVE",
"421 982 OFFCURVE",
"466 982 CURVE SMOOTH",
"782 982 LINE",
"676 383 LINE SMOOTH",
"654 260 OFFCURVE",
"589 205 OFFCURVE",
"481 205 CURVE SMOOTH",
"418 205 OFFCURVE",
"364 218 OFFCURVE",
"322 244 CURVE",
"366 499 LINE SMOOTH",
"374 544 OFFCURVE",
"355 562 OFFCURVE",
"260 562 CURVE SMOOTH",
"165 562 OFFCURVE",
"124 544 OFFCURVE",
"116 499 CURVE SMOOTH",
"61 185 LINE SMOOTH",
"57 162 OFFCURVE",
"59 146 OFFCURVE",
"69 135 CURVE SMOOTH",
"154 37 OFFCURVE",
"294 -22 OFFCURVE",
"450 -22 CURVE SMOOTH",
"727 -22 OFFCURVE",
"875 95 OFFCURVE",
"921 353 CURVE SMOOTH",
"1032 982 LINE",
"1208 982 LINE SMOOTH",
"1253 982 OFFCURVE",
"1274 999 OFFCURVE",
"1289 1084 CURVE SMOOTH",
"1304 1169 OFFCURVE",
"1289 1187 OFFCURVE",
"1244 1187 CURVE SMOOTH"
);
}
);
width = 1228;
},
{
layerId = "38D47A70-C265-4203-8B70-C23C50FC2DCC";
name = "Regular Italic";
paths = (
{
closed = 1;
nodes = (
"542 1187 LINE SMOOTH",
"497 1187 OFFCURVE",
"476 1169 OFFCURVE",
"467 1119 CURVE SMOOTH",
"458 1069 OFFCURVE",
"473 1051 OFFCURVE",
"518 1051 CURVE SMOOTH",
"859 1051 LINE",
"738 363 LINE SMOOTH",
"710 205 OFFCURVE",
"624 126 OFFCURVE",
"447 126 CURVE SMOOTH",
"350 126 OFFCURVE",
"276 152 OFFCURVE",
"230 201 CURVE",
"276 465 LINE SMOOTH",
"285 511 OFFCURVE",
"269 530 OFFCURVE",
"213 530 CURVE SMOOTH",
"157 530 OFFCURVE",
"135 511 OFFCURVE",
"126 465 CURVE SMOOTH",
"77 186 LINE SMOOTH",
"73 163 OFFCURVE",
"76 147 OFFCURVE",
"84 135 CURVE SMOOTH",
"150 46 OFFCURVE",
"277 -22 OFFCURVE",
"435 -22 CURVE SMOOTH",
"695 -22 OFFCURVE",
"841 98 OFFCURVE",
"882 333 CURVE SMOOTH",
"1009 1051 LINE",
"1210 1051 LINE SMOOTH",
"1255 1051 OFFCURVE",
"1276 1069 OFFCURVE",
"1285 1119 CURVE SMOOTH",
"1294 1169 OFFCURVE",
"1279 1187 OFFCURVE",
"1234 1187 CURVE SMOOTH"
);
}
);
width = 1228;
}
);
unicode = 004A;
},
{
glyphname = K;
lastChange = "2015-01-03 15:18:27 +0000";
layers = (
{
layerId = UUID0;
name = "Bold Italic";
paths = (
{
closed = 1;
nodes = (
"880 1187 LINE SMOOTH",
"835 1187 OFFCURVE",
"814 1169 OFFCURVE",
"799 1084 CURVE SMOOTH",
"784 999 OFFCURVE",
"799 982 OFFCURVE",
"844 982 CURVE SMOOTH",
"887 982 LINE",
"518 672 LINE",
"573 982 LINE",
"620 982 LINE SMOOTH",
"665 982 OFFCURVE",
"686 999 OFFCURVE",
"701 1084 CURVE SMOOTH",
"716 1169 OFFCURVE",
"701 1187 OFFCURVE",
"656 1187 CURVE SMOOTH",
"252 1187 LINE SMOOTH",
"207 1187 OFFCURVE",
"186 1169 OFFCURVE",
"171 1084 CURVE SMOOTH",
"156 999 OFFCURVE",
"171 982 OFFCURVE",
"216 982 CURVE SMOOTH",
"323 982 LINE",
"186 205 LINE",
"79 205 LINE SMOOTH",
"34 205 OFFCURVE",
"12 187 OFFCURVE",
"-3 102 CURVE SMOOTH",
"-18 17 OFFCURVE",
"-2 0 OFFCURVE",
"43 0 CURVE SMOOTH",
"515 0 LINE SMOOTH",
"560 0 OFFCURVE",
"580 17 OFFCURVE",
"595 102 CURVE SMOOTH",
"610 187 OFFCURVE",
"596 205 OFFCURVE",
"551 205 CURVE SMOOTH",
"436 205 LINE",
"465 371 LINE",
"536 431 LINE SMOOTH",
"564 455 OFFCURVE",
"593 465 OFFCURVE",
"621 465 CURVE SMOOTH",
"667 465 OFFCURVE",
"703 433 OFFCURVE",
"728 382 CURVE SMOOTH",
"758 318 OFFCURVE",
"776 221 OFFCURVE",
"805 142 CURVE SMOOTH",
"832 65 OFFCURVE",
"877 0 OFFCURVE",
"966 0 CURVE SMOOTH",
"1095 0 LINE SMOOTH",
"1140 0 OFFCURVE",
"1160 17 OFFCURVE",
"1175 102 CURVE SMOOTH",
"1190 187 OFFCURVE",
"1176 205 OFFCURVE",
"1131 205 CURVE SMOOTH",
"1116 205 LINE SMOOTH",
"1073 205 OFFCURVE",
"1047 236 OFFCURVE",
"1028 282 CURVE SMOOTH",
"998 354 OFFCURVE",
"981 453 OFFCURVE",
"938 535 CURVE SMOOTH",
"905 598 OFFCURVE",
"865 637 OFFCURVE",
"790 641 CURVE",
"1200 982 LINE",
"1233 982 LINE SMOOTH",
"1278 982 OFFCURVE",
"1299 999 OFFCURVE",
"1314 1084 CURVE SMOOTH",
"1329 1169 OFFCURVE",
"1314 1187 OFFCURVE",
"1269 1187 CURVE SMOOTH"
);
}
);
width = 1228;
},
{
layerId = "38D47A70-C265-4203-8B70-C23C50FC2DCC";
name = "Regular Italic";
paths = (
{
closed = 1;
nodes = (
"910 1187 LINE SMOOTH",
"865 1187 OFFCURVE",
"844 1169 OFFCURVE",
"835 1119 CURVE SMOOTH",
"826 1069 OFFCURVE",
"841 1051 OFFCURVE",
"886 1051 CURVE SMOOTH",
"949 1051 LINE",
"447 635 LINE",
"520 1051 LINE",
"612 1051 LINE SMOOTH",
"657 1051 OFFCURVE",
"678 1069 OFFCURVE",
"687 1119 CURVE SMOOTH",
"696 1169 OFFCURVE",
"681 1187 OFFCURVE",
"636 1187 CURVE SMOOTH",
"282 1187 LINE SMOOTH",
"237 1187 OFFCURVE",
"216 1169 OFFCURVE",
"207 1119 CURVE SMOOTH",
"198 1069 OFFCURVE",
"213 1051 OFFCURVE",
"258 1051 CURVE SMOOTH",
"370 1051 LINE",
"208 136 LINE",
"96 136 LINE SMOOTH",
"51 136 OFFCURVE",
"30 118 OFFCURVE",
"21 68 CURVE SMOOTH",
"13 18 OFFCURVE",
"28 0 OFFCURVE",
"73 0 CURVE SMOOTH",
"497 0 LINE SMOOTH",
"542 0 OFFCURVE",
"563 18 OFFCURVE",
"571 68 CURVE SMOOTH",
"580 118 OFFCURVE",
"565 136 OFFCURVE",
"520 136 CURVE SMOOTH",
"358 136 LINE",
"411 436 LINE",
"446 465 LINE SMOOTH",
"494 505 OFFCURVE",
"553 524 OFFCURVE",
"609 524 CURVE SMOOTH",
"673 524 OFFCURVE",
"720 500 OFFCURVE",
"744 454 CURVE SMOOTH",
"787 371 OFFCURVE",
"795 245 OFFCURVE",
"830 139 CURVE SMOOTH",
"864 37 OFFCURVE",
"919 0 OFFCURVE",
"978 0 CURVE SMOOTH",
"1055 0 LINE SMOOTH",
"1100 0 OFFCURVE",
"1121 18 OFFCURVE",
"1129 68 CURVE SMOOTH",
"1138 118 OFFCURVE",
"1123 136 OFFCURVE",
"1078 136 CURVE SMOOTH",
"1045 136 LINE SMOOTH",
"1007 136 OFFCURVE",
"984 164 OFFCURVE",
"968 208 CURVE SMOOTH",
"935 297 OFFCURVE",
"928 449 OFFCURVE",
"869 547 CURVE SMOOTH",
"821 626 OFFCURVE",
"754 652 OFFCURVE",
"663 646 CURVE",
"1158 1051 LINE",
"1210 1051 LINE SMOOTH",
"1255 1051 OFFCURVE",
"1276 1069 OFFCURVE",
"1285 1119 CURVE SMOOTH",
"1294 1169 OFFCURVE",
"1279 1187 OFFCURVE",
"1234 1187 CURVE SMOOTH"
);
}
);
width = 1228;
}
);
unicode = 004B;
},
{
glyphname = L;
lastChange = "2015-01-03 15:18:27 +0000";
layers = (
{
layerId = UUID0;
name = "Bold Italic";
paths = (
{
closed = 1;
nodes = (
"262 1187 LINE SMOOTH",
"217 1187 OFFCURVE",
"196 1169 OFFCURVE",
"181 1084 CURVE SMOOTH",
"166 999 OFFCURVE",
"181 982 OFFCURVE",
"226 982 CURVE SMOOTH",
"372 982 LINE",
"235 205 LINE",
"89 205 LINE SMOOTH",
"44 205 OFFCURVE",
"22 187 OFFCURVE",
"7 102 CURVE SMOOTH",
"-8 17 OFFCURVE",
"8 0 OFFCURVE",
"53 0 CURVE SMOOTH",
"985 0 LINE SMOOTH",
"1031 0 OFFCURVE",
"1053 19 OFFCURVE",
"1061 65 CURVE SMOOTH",
"1142 527 LINE SMOOTH",
"1150 572 OFFCURVE",
"1131 590 OFFCURVE",
"1036 590 CURVE SMOOTH",
"941 590 OFFCURVE",
"900 572 OFFCURVE",
"892 527 CURVE SMOOTH",
"837 215 LINE",
"486 215 LINE",
"622 982 LINE",
"840 982 LINE SMOOTH",
"885 982 OFFCURVE",
"906 999 OFFCURVE",
"921 1084 CURVE SMOOTH",
"936 1169 OFFCURVE",
"921 1187 OFFCURVE",
"876 1187 CURVE SMOOTH"
);
}
);
width = 1228;
},
{
layerId = "38D47A70-C265-4203-8B70-C23C50FC2DCC";
name = "Regular Italic";
paths = (
{
closed = 1;
nodes = (
"282 1187 LINE SMOOTH",
"237 1187 OFFCURVE",
"216 1169 OFFCURVE",
"207 1119 CURVE SMOOTH",
"198 1069 OFFCURVE",
"213 1051 OFFCURVE",
"258 1051 CURVE SMOOTH",
"420 1051 LINE",
"258 136 LINE",
"96 136 LINE SMOOTH",
"51 136 OFFCURVE",
"30 118 OFFCURVE",
"21 68 CURVE SMOOTH",
"13 18 OFFCURVE",
"28 0 OFFCURVE",
"73 0 CURVE SMOOTH",
"967 0 LINE SMOOTH",
"1012 0 OFFCURVE",
"1033 18 OFFCURVE",
"1041 68 CURVE SMOOTH",
"1111 465 LINE SMOOTH",
"1120 511 OFFCURVE",
"1104 530 OFFCURVE",
"1048 530 CURVE SMOOTH",
"992 530 OFFCURVE",
"970 511 OFFCURVE",
"961 465 CURVE SMOOTH",
"903 136 LINE",
"408 136 LINE",
"570 1051 LINE",
"812 1051 LINE SMOOTH",
"857 1051 OFFCURVE",
"878 1069 OFFCURVE",
"887 1119 CURVE SMOOTH",
"896 1169 OFFCURVE",
"881 1187 OFFCURVE",
"836 1187 CURVE SMOOTH"
);
}
);
width = 1228;
}
);
unicode = 004C;
},
{
color = 6;
glyphname = Ldot;
lastChange = "2015-01-03 15:18:27 +0000";
layers = (
{
components = (
{
name = dotaccent;
transform = "{1, 0, 0, 1, 110, -510}";
}
);
layerId = UUID0;
name = "Bold Italic";
paths = (
{
closed = 1;
nodes = (
"262 1187 LINE SMOOTH",
"217 1187 OFFCURVE",
"196 1169 OFFCURVE",
"181 1084 CURVE SMOOTH",
"166 999 OFFCURVE",
"181 982 OFFCURVE",
"226 982 CURVE SMOOTH",
"372 982 LINE",
"235 205 LINE",
"89 205 LINE SMOOTH",
"44 205 OFFCURVE",
"22 187 OFFCURVE",
"7 102 CURVE SMOOTH",
"-8 17 OFFCURVE",
"8 0 OFFCURVE",
"53 0 CURVE SMOOTH",
"985 0 LINE SMOOTH",
"1031 0 OFFCURVE",
"1053 19 OFFCURVE",
"1061 65 CURVE SMOOTH",
"1120 397 LINE SMOOTH",
"1127 442 OFFCURVE",
"1108 460 OFFCURVE",
"1013 460 CURVE SMOOTH",
"918 460 OFFCURVE",
"877 442 OFFCURVE",
"870 397 CURVE SMOOTH",
"837 215 LINE",
"486 215 LINE",
"622 982 LINE",
"840 982 LINE SMOOTH",
"885 982 OFFCURVE",
"906 999 OFFCURVE",
"921 1084 CURVE SMOOTH",
"936 1169 OFFCURVE",
"921 1187 OFFCURVE",
"876 1187 CURVE SMOOTH"
);
}
);
width = 1228;
},
{
components = (
{
name = dotaccent;
transform = "{1, 0, 0, 1, 41, -510}";
}
);
layerId = "38D47A70-C265-4203-8B70-C23C50FC2DCC";
name = "Regular Italic";
paths = (
{
closed = 1;
nodes = (
"282 1187 LINE SMOOTH",
"237 1187 OFFCURVE",
"216 1169 OFFCURVE",
"207 1119 CURVE SMOOTH",
"198 1069 OFFCURVE",
"213 1051 OFFCURVE",
"258 1051 CURVE SMOOTH",
"420 1051 LINE",
"258 136 LINE",
"96 136 LINE SMOOTH",
"51 136 OFFCURVE",
"30 118 OFFCURVE",
"21 68 CURVE SMOOTH",
"13 18 OFFCURVE",
"28 0 OFFCURVE",
"73 0 CURVE SMOOTH",
"967 0 LINE SMOOTH",
"1012 0 OFFCURVE",
"1033 18 OFFCURVE",
"1041 68 CURVE SMOOTH",
"1111 465 LINE SMOOTH",
"1120 511 OFFCURVE",
"1104 530 OFFCURVE",
"1048 530 CURVE SMOOTH",
"992 530 OFFCURVE",
"970 511 OFFCURVE",
"961 465 CURVE SMOOTH",
"903 136 LINE",
"408 136 LINE",
"570 1051 LINE",
"812 1051 LINE SMOOTH",
"857 1051 OFFCURVE",
"878 1069 OFFCURVE",
"887 1119 CURVE SMOOTH",
"896 1169 OFFCURVE",
"881 1187 OFFCURVE",
"836 1187 CURVE SMOOTH"
);
}
);
width = 1228;
}
);
unicode = 013F;
},
{
color = 6;
glyphname = Lslash;
lastChange = "2015-01-03 15:18:27 +0000";
layers = (
{
layerId = UUID0;
name = "Bold Italic";
paths = (
{
closed = 1;
nodes = (
"262 1187 LINE SMOOTH",
"217 1187 OFFCURVE",
"196 1169 OFFCURVE",
"181 1084 CURVE SMOOTH",
"166 999 OFFCURVE",
"181 982 OFFCURVE",
"226 982 CURVE SMOOTH",
"372 982 LINE",
"309 626 LINE",
"50 487 LINE SMOOTH",
"7 464 OFFCURVE",
"-3 439 OFFCURVE",
"27 366 CURVE SMOOTH",
"58 293 OFFCURVE",
"81 288 OFFCURVE",
"123 311 CURVE SMOOTH",
"267 388 LINE",
"235 205 LINE",
"89 205 LINE SMOOTH",
"44 205 OFFCURVE",
"22 187 OFFCURVE",
"7 102 CURVE SMOOTH",
"-8 17 OFFCURVE",
"8 0 OFFCURVE",
"53 0 CURVE SMOOTH",
"985 0 LINE SMOOTH",
"1031 0 OFFCURVE",
"1053 19 OFFCURVE",
"1061 65 CURVE SMOOTH",
"1142 527 LINE SMOOTH",
"1150 572 OFFCURVE",
"1131 590 OFFCURVE",
"1036 590 CURVE SMOOTH",
"941 590 OFFCURVE",
"900 572 OFFCURVE",
"892 527 CURVE SMOOTH",
"837 215 LINE",
"486 215 LINE",
"543 536 LINE",
"848 700 LINE SMOOTH",
"890 723 OFFCURVE",
"901 747 OFFCURVE",
"871 820 CURVE SMOOTH",
"840 893 OFFCURVE",
"817 899 OFFCURVE",
"774 876 CURVE SMOOTH",
"585 774 LINE",
"622 982 LINE",
"840 982 LINE SMOOTH",
"885 982 OFFCURVE",
"906 999 OFFCURVE",
"921 1084 CURVE SMOOTH",
"936 1169 OFFCURVE",
"921 1187 OFFCURVE",
"876 1187 CURVE SMOOTH"
);
}
);
width = 1228;
},
{
layerId = "38D47A70-C265-4203-8B70-C23C50FC2DCC";
name = "Regular Italic";
paths = (
{
closed = 1;
nodes = (
"282 1187 LINE SMOOTH",
"237 1187 OFFCURVE",
"216 1169 OFFCURVE",
"207 1119 CURVE SMOOTH",
"198 1069 OFFCURVE",
"213 1051 OFFCURVE",
"258 1051 CURVE SMOOTH",
"420 1051 LINE",
"345 628 LINE",
"110 468 LINE SMOOTH",
"73 443 OFFCURVE",
"68 418 OFFCURVE",
"96 377 CURVE SMOOTH",
"124 335 OFFCURVE",
"150 331 OFFCURVE",
"187 356 CURVE SMOOTH",
"312 441 LINE",
"258 136 LINE",
"96 136 LINE SMOOTH",
"51 136 OFFCURVE",
"30 118 OFFCURVE",
"21 68 CURVE SMOOTH",
"13 18 OFFCURVE",
"28 0 OFFCURVE",
"73 0 CURVE SMOOTH",
"967 0 LINE SMOOTH",
"1012 0 OFFCURVE",
"1032 18 OFFCURVE",
"1041 68 CURVE SMOOTH",
"1111 465 LINE",
"1120 511 OFFCURVE",
"1104 530 OFFCURVE",
"1048 530 CURVE SMOOTH",
"992 530 OFFCURVE",
"970 511 OFFCURVE",
"961 465 CURVE",
"903 136 LINE",
"408 136 LINE",
"482 557 LINE",
"756 743 LINE SMOOTH",
"793 768 OFFCURVE",
"798 793 OFFCURVE",
"770 834 CURVE SMOOTH",
"742 876 OFFCURVE",
"716 880 OFFCURVE",
"679 855 CURVE SMOOTH",
"515 744 LINE",
"570 1051 LINE",
"812 1051 LINE SMOOTH",
"857 1051 OFFCURVE",
"878 1069 OFFCURVE",
"887 1119 CURVE SMOOTH",
"896 1169 OFFCURVE",
"881 1187 OFFCURVE",
"836 1187 CURVE SMOOTH"
);
}
);
width = 1228;
}
);
unicode = 0141;
},
{
glyphname = M;
lastChange = "2015-01-03 15:18:27 +0000";
layers = (
{
layerId = UUID0;
name = "Bold Italic";
paths = (
{
closed = 1;
nodes = (
"979 1187 LINE SMOOTH",
"952 1187 OFFCURVE",
"932 1180 OFFCURVE",
"919 1156 CURVE SMOOTH",
"651 665 LINE",
"554 1156 LINE SMOOTH",
"549 1180 OFFCURVE",
"533 1187 OFFCURVE",
"506 1187 CURVE SMOOTH",
"232 1187 LINE SMOOTH",
"187 1187 OFFCURVE",
"166 1169 OFFCURVE",
"151 1084 CURVE SMOOTH",
"136 999 OFFCURVE",
"151 982 OFFCURVE",
"196 982 CURVE SMOOTH",
"250 982 LINE",
"98 205 LINE",
"39 205 LINE SMOOTH",
"-6 205 OFFCURVE",
"-28 187 OFFCURVE",
"-43 102 CURVE SMOOTH",
"-58 17 OFFCURVE",
"-42 0 OFFCURVE",
"3 0 CURVE SMOOTH",
"377 0 LINE SMOOTH",
"422 0 OFFCURVE",
"442 17 OFFCURVE",
"457 102 CURVE SMOOTH",
"472 187 OFFCURVE",
"458 205 OFFCURVE",
"413 205 CURVE SMOOTH",
"320 205 LINE",
"430 794 LINE",
"510 389 LINE SMOOTH",
"519 343 OFFCURVE",
"545 325 OFFCURVE",
"602 325 CURVE SMOOTH",
"659 325 OFFCURVE",
"688 343 OFFCURVE",
"714 389 CURVE SMOOTH",
"937 797 LINE",
"839 205 LINE",
"747 205 LINE SMOOTH",
"702 205 OFFCURVE",
"680 187 OFFCURVE",
"665 102 CURVE SMOOTH",
"650 17 OFFCURVE",
"666 0 OFFCURVE",
"711 0 CURVE SMOOTH",
"1085 0 LINE SMOOTH",
"1130 0 OFFCURVE",
"1150 17 OFFCURVE",
"1165 102 CURVE SMOOTH",
"1180 187 OFFCURVE",
"1166 205 OFFCURVE",
"1121 205 CURVE SMOOTH",
"1061 205 LINE",
"1184 982 LINE",
"1238 982 LINE SMOOTH",
"1283 982 OFFCURVE",
"1304 999 OFFCURVE",
"1319 1084 CURVE SMOOTH",
"1334 1169 OFFCURVE",
"1319 1187 OFFCURVE",
"1274 1187 CURVE SMOOTH"
);
}
);
width = 1228;
},
{
layerId = "38D47A70-C265-4203-8B70-C23C50FC2DCC";
name = "Regular Italic";
paths = (
{
closed = 1;
nodes = (
"1027 1187 LINE SMOOTH",
"995 1187 OFFCURVE",
"974 1177 OFFCURVE",
"962 1154 CURVE SMOOTH",
"634 545 LINE",
"519 1154 LINE SMOOTH",
"515 1177 OFFCURVE",
"499 1187 OFFCURVE",
"467 1187 CURVE SMOOTH",
"262 1187 LINE SMOOTH",
"217 1187 OFFCURVE",
"196 1169 OFFCURVE",
"187 1119 CURVE SMOOTH",
"178 1069 OFFCURVE",
"193 1051 OFFCURVE",
"238 1051 CURVE SMOOTH",
"287 1051 LINE",
"100 136 LINE",
"46 136 LINE SMOOTH",
"1 136 OFFCURVE",
"-20 118 OFFCURVE",
"-29 68 CURVE SMOOTH",
"-37 18 OFFCURVE",
"-22 0 OFFCURVE",
"23 0 CURVE SMOOTH",
"337 0 LINE SMOOTH",
"382 0 OFFCURVE",
"403 18 OFFCURVE",
"411 68 CURVE SMOOTH",
"420 118 OFFCURVE",
"405 136 OFFCURVE",
"360 136 CURVE SMOOTH",
"249 136 LINE",
"415 955 LINE",
"519 385 LINE SMOOTH",
"528 338 OFFCURVE",
"553 320 OFFCURVE",
"600 320 CURVE SMOOTH",
"647 320 OFFCURVE",
"678 338 OFFCURVE",
"703 385 CURVE SMOOTH",
"1008 955 LINE",
"885 136 LINE",
"774 136 LINE SMOOTH",
"729 136 OFFCURVE",
"708 118 OFFCURVE",
"699 68 CURVE SMOOTH",
"691 18 OFFCURVE",
"706 0 OFFCURVE",
"751 0 CURVE SMOOTH",
"1065 0 LINE SMOOTH",
"1110 0 OFFCURVE",
"1131 18 OFFCURVE",
"1139 68 CURVE SMOOTH",
"1148 118 OFFCURVE",
"1133 136 OFFCURVE",
"1088 136 CURVE SMOOTH",
"1034 136 LINE",
"1170 1051 LINE",
"1220 1051 LINE SMOOTH",
"1265 1051 OFFCURVE",
"1286 1069 OFFCURVE",
"1295 1119 CURVE SMOOTH",
"1304 1169 OFFCURVE",
"1289 1187 OFFCURVE",
"1244 1187 CURVE SMOOTH"
);
}
);
width = 1228;
}
);
unicode = 004D;
},
{
glyphname = N;
lastChange = "2015-01-03 15:18:27 +0000";
layers = (
{
layerId = UUID0;
name = "Bold Italic";
paths = (
{
closed = 1;
nodes = (
"899 1187 LINE SMOOTH",
"854 1187 OFFCURVE",
"833 1169 OFFCURVE",
"818 1084 CURVE SMOOTH",
"803 999 OFFCURVE",
"818 982 OFFCURVE",
"863 982 CURVE SMOOTH",
"955 982 LINE",
"861 453 LINE",
"857 453 LINE",
"567 1160 LINE SMOOTH",
"559 1180 OFFCURVE",
"541 1187 OFFCURVE",
"516 1187 CURVE SMOOTH",
"252 1187 LINE SMOOTH",
"207 1187 OFFCURVE",
"186 1169 OFFCURVE",
"171 1084 CURVE SMOOTH",
"156 999 OFFCURVE",
"171 982 OFFCURVE",
"216 982 CURVE SMOOTH",
"283 982 LINE",
"146 205 LINE",
"79 205 LINE SMOOTH",
"34 205 OFFCURVE",
"12 187 OFFCURVE",
"-3 102 CURVE SMOOTH",
"-18 17 OFFCURVE",
"-2 0 OFFCURVE",
"43 0 CURVE SMOOTH",
"447 0 LINE SMOOTH",
"492 0 OFFCURVE",
"512 17 OFFCURVE",
"527 102 CURVE SMOOTH",
"542 187 OFFCURVE",
"528 205 OFFCURVE",
"483 205 CURVE SMOOTH",
"372 205 LINE",
"476 796 LINE",
"480 796 LINE",
"795 31 LINE SMOOTH",
"809 -3 OFFCURVE",
"829 -22 OFFCURVE",
"894 -22 CURVE SMOOTH",
"978 -22 OFFCURVE",
"1008 2 OFFCURVE",
"1015 44 CURVE SMOOTH",
"1181 982 LINE",
"1238 982 LINE SMOOTH",
"1283 982 OFFCURVE",
"1304 999 OFFCURVE",
"1319 1084 CURVE SMOOTH",
"1334 1169 OFFCURVE",
"1319 1187 OFFCURVE",
"1274 1187 CURVE SMOOTH"
);
}
);
width = 1228;
},
{
layerId = "38D47A70-C265-4203-8B70-C23C50FC2DCC";
name = "Regular Italic";
paths = (
{
closed = 1;
nodes = (
"910 1187 LINE SMOOTH",
"865 1187 OFFCURVE",
"844 1169 OFFCURVE",
"835 1119 CURVE SMOOTH",
"826 1069 OFFCURVE",
"841 1051 OFFCURVE",
"886 1051 CURVE SMOOTH",
"1007 1051 LINE",
"874 298 LINE",
"870 298 LINE",
"548 1159 LINE SMOOTH",
"541 1178 OFFCURVE",
"525 1187 OFFCURVE",
"496 1187 CURVE SMOOTH",
"272 1187 LINE SMOOTH",
"227 1187 OFFCURVE",
"206 1169 OFFCURVE",
"197 1119 CURVE SMOOTH",
"188 1069 OFFCURVE",
"203 1051 OFFCURVE",
"248 1051 CURVE SMOOTH",
"325 1051 LINE",
"163 136 LINE",
"96 136 LINE SMOOTH",
"51 136 OFFCURVE",
"30 118 OFFCURVE",
"21 68 CURVE SMOOTH",
"13 18 OFFCURVE",
"28 0 OFFCURVE",
"73 0 CURVE SMOOTH",
"427 0 LINE SMOOTH",
"472 0 OFFCURVE",
"493 18 OFFCURVE",
"501 68 CURVE SMOOTH",
"510 118 OFFCURVE",
"495 136 OFFCURVE",
"450 136 CURVE SMOOTH",
"309 136 LINE",
"457 973 LINE",
"461 973 LINE",
"814 33 LINE SMOOTH",
"827 -2 OFFCURVE",
"851 -22 OFFCURVE",
"889 -22 CURVE SMOOTH",
"941 -22 OFFCURVE",
"968 2 OFFCURVE",
"974 37 CURVE SMOOTH",
"1153 1051 LINE",
"1210 1051 LINE SMOOTH",
"1255 1051 OFFCURVE",
"1276 1069 OFFCURVE",
"1285 1119 CURVE SMOOTH",
"1294 1169 OFFCURVE",
"1279 1187 OFFCURVE",
"1234 1187 CURVE SMOOTH"
);
}
);
width = 1228;
}
);
unicode = 004E;
},
{
color = 3;
glyphname = Eng;
lastChange = "2015-01-03 15:18:27 +0000";
layers = (
{
background = {
components = (
{
name = N;
transform = "{1, 0, 0, 1, 0, 0}";
}
);
paths = (
{
closed = 1;
nodes = (
"852 198 LINE",
"798 -107 LINE SMOOTH",
"778 -220 OFFCURVE",
"724 -264 OFFCURVE",
"642 -264 CURVE SMOOTH",
"582 -264 OFFCURVE",
"521 -246 OFFCURVE",
"472 -224 CURVE SMOOTH",
"445 -212 OFFCURVE",
"411 -219 OFFCURVE",
"389 -266 CURVE SMOOTH",
"365 -317 OFFCURVE",
"374 -343 OFFCURVE",
"409 -360 CURVE SMOOTH",
"472 -390 OFFCURVE",
"551 -410 OFFCURVE",
"631 -410 CURVE SMOOTH",
"807 -410 OFFCURVE",
"911 -314 OFFCURVE",
"943 -135 CURVE SMOOTH",
"1002 198 LINE"
);
}
);
};
layerId = "38D47A70-C265-4203-8B70-C23C50FC2DCC";
name = "Regular Italic";
paths = (
{
closed = 1;
nodes = (
"910 1187 LINE SMOOTH",
"865 1187 OFFCURVE",
"844 1169 OFFCURVE",
"835 1119 CURVE SMOOTH",
"826 1069 OFFCURVE",
"841 1051 OFFCURVE",
"886 1051 CURVE SMOOTH",
"1007 1051 LINE",
"874 298 LINE",
"870 298 LINE",
"548 1159 LINE SMOOTH",
"541 1178 OFFCURVE",
"525 1187 OFFCURVE",
"496 1187 CURVE SMOOTH",
"272 1187 LINE SMOOTH",
"227 1187 OFFCURVE",
"206 1169 OFFCURVE",
"197 1119 CURVE SMOOTH",
"188 1069 OFFCURVE",
"203 1051 OFFCURVE",
"248 1051 CURVE SMOOTH",
"325 1051 LINE",
"163 136 LINE",
"96 136 LINE SMOOTH",
"51 136 OFFCURVE",
"30 118 OFFCURVE",
"21 68 CURVE SMOOTH",
"13 18 OFFCURVE",
"28 0 OFFCURVE",
"73 0 CURVE SMOOTH",
"427 0 LINE SMOOTH",
"472 0 OFFCURVE",
"493 18 OFFCURVE",
"501 68 CURVE SMOOTH",
"510 118 OFFCURVE",
"495 136 OFFCURVE",
"450 136 CURVE SMOOTH",
"309 136 LINE",
"457 973 LINE",
"461 973 LINE",
"820 17 LINE",
"798 -107 LINE SMOOTH",
"778 -220 OFFCURVE",
"724 -264 OFFCURVE",
"642 -264 CURVE SMOOTH",
"582 -264 OFFCURVE",
"521 -246 OFFCURVE",
"472 -224 CURVE SMOOTH",
"445 -212 OFFCURVE",
"411 -219 OFFCURVE",
"389 -266 CURVE SMOOTH",
"365 -317 OFFCURVE",
"374 -343 OFFCURVE",
"409 -360 CURVE SMOOTH",
"472 -390 OFFCURVE",
"551 -410 OFFCURVE",
"631 -410 CURVE SMOOTH",
"807 -410 OFFCURVE",
"911 -314 OFFCURVE",
"943 -135 CURVE SMOOTH",
"1153 1051 LINE",
"1210 1051 LINE SMOOTH",
"1255 1051 OFFCURVE",
"1276 1069 OFFCURVE",
"1285 1119 CURVE SMOOTH",
"1294 1169 OFFCURVE",
"1279 1187 OFFCURVE",
"1234 1187 CURVE SMOOTH"
);
}
);
width = 1228;
},
{
background = {
components = (
{
name = N;
transform = "{1, 0, 0, 1, 0, 0}";
}
);
paths = (
{
closed = 1;
nodes = (
"816 336 LINE",
"750 -39 LINE SMOOTH",
"733 -135 OFFCURVE",
"680 -173 OFFCURVE",
"597 -173 CURVE SMOOTH",
"560 -173 OFFCURVE",
"506 -162 OFFCURVE",
"461 -147 CURVE SMOOTH",
"422 -134 OFFCURVE",
"391 -153 OFFCURVE",
"360 -235 CURVE SMOOTH",
"328 -319 OFFCURVE",
"339 -353 OFFCURVE",
"380 -370 CURVE SMOOTH",
"444 -396 OFFCURVE",
"517 -410 OFFCURVE",
"582 -410 CURVE SMOOTH",
"821 -410 OFFCURVE",
"955 -292 OFFCURVE",
"997 -55 CURVE SMOOTH",
"1066 336 LINE"
);
}
);
};
layerId = UUID0;
name = "Bold Italic";
paths = (
{
closed = 1;
nodes = (
"899 1187 LINE SMOOTH",
"854 1187 OFFCURVE",
"833 1169 OFFCURVE",
"818 1084 CURVE SMOOTH",
"803 999 OFFCURVE",
"818 982 OFFCURVE",
"863 982 CURVE SMOOTH",
"955 982 LINE",
"861 453 LINE",
"857 453 LINE",
"567 1160 LINE SMOOTH",
"559 1180 OFFCURVE",
"541 1187 OFFCURVE",
"516 1187 CURVE SMOOTH",
"252 1187 LINE SMOOTH",
"207 1187 OFFCURVE",
"186 1169 OFFCURVE",
"171 1084 CURVE SMOOTH",
"156 999 OFFCURVE",
"171 982 OFFCURVE",
"216 982 CURVE SMOOTH",
"283 982 LINE",
"146 205 LINE",
"79 205 LINE SMOOTH",
"34 205 OFFCURVE",
"12 187 OFFCURVE",
"-3 102 CURVE SMOOTH",
"-18 17 OFFCURVE",
"-2 0 OFFCURVE",
"43 0 CURVE SMOOTH",
"447 0 LINE SMOOTH",
"492 0 OFFCURVE",
"512 17 OFFCURVE",
"527 102 CURVE SMOOTH",
"542 187 OFFCURVE",
"528 205 OFFCURVE",
"483 205 CURVE SMOOTH",
"372 205 LINE",
"476 796 LINE",
"480 796 LINE",
"772 87 LINE",
"750 -39 LINE SMOOTH",
"733 -135 OFFCURVE",
"680 -173 OFFCURVE",
"597 -173 CURVE SMOOTH",
"560 -173 OFFCURVE",
"506 -162 OFFCURVE",
"461 -147 CURVE SMOOTH",
"422 -134 OFFCURVE",
"391 -153 OFFCURVE",
"360 -235 CURVE SMOOTH",
"328 -319 OFFCURVE",
"339 -353 OFFCURVE",
"380 -370 CURVE SMOOTH",
"444 -396 OFFCURVE",
"517 -410 OFFCURVE",
"582 -410 CURVE SMOOTH",
"821 -410 OFFCURVE",
"955 -292 OFFCURVE",
"997 -55 CURVE SMOOTH",
"1181 982 LINE",
"1238 982 LINE SMOOTH",
"1283 982 OFFCURVE",
"1304 999 OFFCURVE",
"1319 1084 CURVE SMOOTH",
"1334 1169 OFFCURVE",
"1319 1187 OFFCURVE",
"1274 1187 CURVE SMOOTH"
);
}
);
width = 1228;
}
);
unicode = 014A;
},
{
glyphname = O;
lastChange = "2015-01-03 15:18:27 +0000";
layers = (
{
layerId = UUID0;
name = "Bold Italic";
paths = (
{
closed = 1;
nodes = (
"525 1209 OFFCURVE",
"350 1120 OFFCURVE",
"235 956 CURVE SMOOTH",
"138 818 OFFCURVE",
"88 629 OFFCURVE",
"88 471 CURVE SMOOTH",
"88 171 OFFCURVE",
"273 -22 OFFCURVE",
"560 -22 CURVE SMOOTH",
"772 -22 OFFCURVE",
"947 67 OFFCURVE",
"1062 231 CURVE SMOOTH",
"1159 369 OFFCURVE",
"1209 558 OFFCURVE",
"1209 716 CURVE SMOOTH",
"1209 1016 OFFCURVE",
"1024 1209 OFFCURVE",
"737 1209 CURVE SMOOTH"
);
},
{
closed = 1;
nodes = (
"869 982 OFFCURVE",
"944 888 OFFCURVE",
"944 720 CURVE SMOOTH",
"944 596 OFFCURVE",
"907 439 OFFCURVE",
"835 338 CURVE SMOOTH",
"773 252 OFFCURVE",
"688 205 OFFCURVE",
"580 205 CURVE SMOOTH",
"428 205 OFFCURVE",
"353 299 OFFCURVE",
"353 467 CURVE SMOOTH",
"353 591 OFFCURVE",
"390 748 OFFCURVE",
"462 849 CURVE SMOOTH",
"524 935 OFFCURVE",
"609 982 OFFCURVE",
"717 982 CURVE SMOOTH"
);
}
);
width = 1228;
},
{
layerId = "38D47A70-C265-4203-8B70-C23C50FC2DCC";
name = "Regular Italic";
paths = (
{
closed = 1;
nodes = (
"534 1209 OFFCURVE",
"374 1108 OFFCURVE",
"268 961 CURVE SMOOTH",
"165 818 OFFCURVE",
"112 636 OFFCURVE",
"112 459 CURVE SMOOTH",
"112 169 OFFCURVE",
"283 -22 OFFCURVE",
"555 -22 CURVE SMOOTH",
"763 -22 OFFCURVE",
"923 79 OFFCURVE",
"1029 226 CURVE SMOOTH",
"1132 369 OFFCURVE",
"1185 551 OFFCURVE",
"1185 728 CURVE SMOOTH",
"1185 1018 OFFCURVE",
"1014 1209 OFFCURVE",
"742 1209 CURVE SMOOTH"
);
},
{
closed = 1;
nodes = (
"918 1061 OFFCURVE",
"1028 933 OFFCURVE",
"1028 722 CURVE SMOOTH",
"1028 580 OFFCURVE",
"985 426 OFFCURVE",
"901 309 CURVE SMOOTH",
"824 201 OFFCURVE",
"711 126 OFFCURVE",
"566 126 CURVE SMOOTH",
"379 126 OFFCURVE",
"269 254 OFFCURVE",
"269 465 CURVE SMOOTH",
"269 607 OFFCURVE",
"312 761 OFFCURVE",
"396 878 CURVE SMOOTH",
"473 986 OFFCURVE",
"586 1061 OFFCURVE",
"731 1061 CURVE SMOOTH"
);
}
);
width = 1228;
}
);
unicode = 004F;
},
{
color = 6;
glyphname = Oslash;
lastChange = "2015-01-04 03:49:13 +0000";
layers = (
{
background = {
components = (
{
name = O;
transform = "{1, 0, 0, 1, 0, 0}";
}
);
paths = (
{
closed = 1;
nodes = (
"1152 1274 OFFCURVE",
"1127 1270 OFFCURVE",
"1094 1233 CURVE SMOOTH",
"71 63 LINE SMOOTH",
"38 26 OFFCURVE",
"39 1 OFFCURVE",
"93 -42 CURVE SMOOTH",
"147 -85 OFFCURVE",
"172 -81 OFFCURVE",
"205 -44 CURVE SMOOTH",
"1228 1126 LINE SMOOTH",
"1261 1163 OFFCURVE",
"1259 1188 OFFCURVE",
"1206 1231 CURVE SMOOTH"
);
}
);
};
layerId = UUID0;
name = "Bold Italic";
paths = (
{
closed = 1;
nodes = (
"1152 1274 OFFCURVE",
"1127 1270 OFFCURVE",
"1094 1233 CURVE SMOOTH",
"1008.23 1134.9 LINE",
"934.382 1182.87 OFFCURVE",
"842.595 1209 OFFCURVE",
"737 1209 CURVE SMOOTH",
"525 1209 OFFCURVE",
"350 1120 OFFCURVE",
"235 956 CURVE SMOOTH",
"138 818 OFFCURVE",
"88 629 OFFCURVE",
"88 471 CURVE SMOOTH",
"88 353.84 OFFCURVE",
"116.216 252.999 OFFCURVE",
"167.703 173.599 CURVE",
"71 63 LINE SMOOTH",
"38 26 OFFCURVE",
"39 0.999996 OFFCURVE",
"93 -42 CURVE SMOOTH",
"147 -85 OFFCURVE",
"172 -81 OFFCURVE",
"205 -44 CURVE SMOOTH",
"288.932 51.9927 LINE",
"362.75 4.0892 OFFCURVE",
"454.481 -22 OFFCURVE",
"560 -22 CURVE SMOOTH",
"772 -22 OFFCURVE",
"947 67 OFFCURVE",
"1062 231 CURVE SMOOTH",
"1159 369 OFFCURVE",
"1209 558 OFFCURVE",
"1209 716 CURVE SMOOTH",
"1209 833.079 OFFCURVE",
"1180.82 933.862 OFFCURVE",
"1129.4 1013.24 CURVE",
"1228 1126 LINE SMOOTH",
"1261 1163 OFFCURVE",
"1259 1188 OFFCURVE",
"1206 1231 CURVE SMOOTH"
);
},
{
closed = 1;
nodes = (
"942.093 771.695 OFFCURVE",
"944 746.788 OFFCURVE",
"944 720 CURVE SMOOTH",
"944 596 OFFCURVE",
"907 439 OFFCURVE",
"835 338 CURVE SMOOTH",
"773 252 OFFCURVE",
"688 205 OFFCURVE",
"580 205 CURVE SMOOTH",
"527.973 205 OFFCURVE",
"484.967 216.013 OFFCURVE",
"450.902 237.237 CURVE",
"938.271 794.639 LINE"
);
},
{
closed = 1;
nodes = (
"769.11 982 OFFCURVE",
"812.17 970.952 OFFCURVE",
"846.26 949.662 CURVE",
"358.769 392.12 LINE",
"354.92 415.131 OFFCURVE",
"353 440.118 OFFCURVE",
"353 467 CURVE SMOOTH",
"353 591 OFFCURVE",
"390 748 OFFCURVE",
"462 849 CURVE SMOOTH",
"524 935 OFFCURVE",
"609 982 OFFCURVE",
"717 982 CURVE SMOOTH"
);
}
);
width = 1228;
},
{
background = {
components = (
{
name = O;
transform = "{1, 0, 0, 1, 0, 0}";
}
);
paths = (
{
closed = 1;
nodes = (
"1169 1260 OFFCURVE",
"1132 1257 OFFCURVE",
"1099 1219 CURVE SMOOTH",
"82 50 LINE SMOOTH",
"49 12 OFFCURVE",
"58 -15 OFFCURVE",
"94 -43 CURVE SMOOTH",
"129 -71 OFFCURVE",
"164 -68 OFFCURVE",
"197 -30 CURVE SMOOTH",
"1214 1139 LINE SMOOTH",
"1247 1177 OFFCURVE",
"1239 1204 OFFCURVE",
"1204 1232 CURVE SMOOTH"
);
}
);
};
layerId = "38D47A70-C265-4203-8B70-C23C50FC2DCC";
name = "Regular Italic";
paths = (
{
closed = 1;
nodes = (
"1169 1260 OFFCURVE",
"1132 1257 OFFCURVE",
"1099 1219 CURVE SMOOTH",
"1015.57 1123.11 LINE",
"943.555 1178.4 OFFCURVE",
"850.868 1209 OFFCURVE",
"742 1209 CURVE SMOOTH",
"534 1209 OFFCURVE",
"374 1108 OFFCURVE",
"268 961 CURVE SMOOTH",
"165 818 OFFCURVE",
"112 636 OFFCURVE",
"112 459 CURVE SMOOTH",
"112 345.635 OFFCURVE",
"138.131 247.399 OFFCURVE",
"186.212 169.787 CURVE",
"82 50 LINE SMOOTH",
"49 12 OFFCURVE",
"58 -15 OFFCURVE",
"94 -43 CURVE SMOOTH",
"129 -71 OFFCURVE",
"164 -68 OFFCURVE",
"197 -30 CURVE SMOOTH",
"279.788 65.1607 LINE",
"352.037 9.0653 OFFCURVE",
"445.305 -22 OFFCURVE",
"555 -22 CURVE SMOOTH",
"763 -22 OFFCURVE",
"923 78.9999 OFFCURVE",
"1029 226 CURVE SMOOTH",
"1132 369 OFFCURVE",
"1185 551 OFFCURVE",
"1185 728 CURVE SMOOTH",
"1185 842.26 OFFCURVE",
"1158.45 941.152 OFFCURVE",
"1109.64 1019.05 CURVE",
"1214 1139 LINE SMOOTH",
"1247 1177 OFFCURVE",
"1239 1204 OFFCURVE",
"1204 1232 CURVE SMOOTH"
);
},
{
closed = 1;
nodes = (
"1017.73 843.185 OFFCURVE",
"1028 786.467 OFFCURVE",
"1028 722 CURVE SMOOTH",
"1028 580 OFFCURVE",
"985 426 OFFCURVE",
"901 309 CURVE SMOOTH",
"824 201 OFFCURVE",
"711 126 OFFCURVE",
"566 126 CURVE SMOOTH",
"492.118 126 OFFCURVE",
"430.256 145.98 OFFCURVE",
"382.449 183.166 CURVE",
"998.136 890.873 LINE"
);
},
{
closed = 1;
nodes = (
"804.04 1061 OFFCURVE",
"865.332 1041.47 OFFCURVE",
"912.912 1005.1 CURVE",
"297.991 298.273 LINE",
"278.964 345.513 OFFCURVE",
"269 401.497 OFFCURVE",
"269 465 CURVE",
"269 607 OFFCURVE",
"312 761 OFFCURVE",
"396 878 CURVE SMOOTH",
"473 986 OFFCURVE",
"586 1061 OFFCURVE",
"731 1061 CURVE SMOOTH"
);
}
);
width = 1228;
}
);
unicode = 00D8;
},
{
glyphname = OE;
lastChange = "2015-01-04 05:11:35 +0000";
layers = (
{
layerId = UUID0;
name = "Bold Italic";
paths = (
{
closed = 1;
nodes = (
"723 1187 LINE SMOOTH",
"519 1187 OFFCURVE",
"355 1113 OFFCURVE",
"244 967 CURVE SMOOTH",
"136 826 OFFCURVE",
"87 615 OFFCURVE",
"87 459 CURVE SMOOTH",
"87 171 OFFCURVE",
"252 0 OFFCURVE",
"534 0 CURVE SMOOTH",
"1035 0 LINE SMOOTH",
"1081 0 OFFCURVE",
"1103 19 OFFCURVE",
"1111 65 CURVE SMOOTH",
"1168 387 LINE SMOOTH",
"1176 432 OFFCURVE",
"1160 450 OFFCURVE",
"1075 450 CURVE SMOOTH",
"990 450 OFFCURVE",
"956 432 OFFCURVE",
"948 387 CURVE SMOOTH",
"917 215 LINE",
"737 215 LINE",
"790 514 LINE",
"904 514 LINE SMOOTH",
"949 514 OFFCURVE",
"971 536 OFFCURVE",
"986 621 CURVE SMOOTH",
"1001 706 OFFCURVE",
"987 729 OFFCURVE",
"942 729 CURVE SMOOTH",
"828 729 LINE",
"871 972 LINE",
"1041 972 LINE",
"1019 850 LINE SMOOTH",
"1011 805 OFFCURVE",
"1026 787 OFFCURVE",
"1106 787 CURVE SMOOTH",
"1186 787 OFFCURVE",
"1221 805 OFFCURVE",
"1229 850 CURVE SMOOTH",
"1277 1122 LINE SMOOTH",
"1285 1168 OFFCURVE",
"1270 1187 OFFCURVE",
"1224 1187 CURVE SMOOTH"
);
},
{
closed = 1;
nodes = (
"507 215 LINE",
"397 224 OFFCURVE",
"325 307 OFFCURVE",
"325 469 CURVE SMOOTH",
"325 590 OFFCURVE",
"361 742 OFFCURVE",
"430 840 CURVE SMOOTH",
"487 923 OFFCURVE",
"561 966 OFFCURVE",
"641 972 CURVE"
);
}
);
width = 1228;
},
{
layerId = "38D47A70-C265-4203-8B70-C23C50FC2DCC";
name = "Regular Italic";
paths = (
{
closed = 1;
nodes = (
"703 1187 LINE SMOOTH",
"495 1187 OFFCURVE",
"345 1093 OFFCURVE",
"246 962 CURVE SMOOTH",
"133 814 OFFCURVE",
"84 618 OFFCURVE",
"84 454 CURVE SMOOTH",
"84 171 OFFCURVE",
"248 0 OFFCURVE",
"514 0 CURVE SMOOTH",
"1005 0 LINE SMOOTH",
"1050 0 OFFCURVE",
"1071 18 OFFCURVE",
"1079 68 CURVE SMOOTH",
"1132 365 LINE SMOOTH",
"1140 411 OFFCURVE",
"1124 430 OFFCURVE",
"1068 430 CURVE SMOOTH",
"1012 430 OFFCURVE",
"990 411 OFFCURVE",
"982 365 CURVE SMOOTH",
"941 136 LINE",
"669 136 LINE",
"742 549 LINE",
"934 549 LINE SMOOTH",
"979 549 OFFCURVE",
"1000 567 OFFCURVE",
"1009 617 CURVE SMOOTH",
"1018 667 OFFCURVE",
"1003 685 OFFCURVE",
"958 685 CURVE SMOOTH",
"766 685 LINE",
"831 1051 LINE",
"1091 1051 LINE",
"1058 865 LINE SMOOTH",
"1050 819 OFFCURVE",
"1066 800 OFFCURVE",
"1122 800 CURVE SMOOTH",
"1178 800 OFFCURVE",
"1200 819 OFFCURVE",
"1208 865 CURVE SMOOTH",
"1253 1119 LINE SMOOTH",
"1262 1169 OFFCURVE",
"1247 1187 OFFCURVE",
"1202 1187 CURVE SMOOTH"
);
},
{
closed = 1;
nodes = (
"519 136 LINE",
"346 143 OFFCURVE",
"242 255 OFFCURVE",
"242 461 CURVE SMOOTH",
"242 598 OFFCURVE",
"279 754 OFFCURVE",
"361 871 CURVE SMOOTH",
"432 973 OFFCURVE",
"537 1046 OFFCURVE",
"681 1050 CURVE"
);
}
);
width = 1228;
}
);
unicode = 0152;
},
{
glyphname = P;
lastChange = "2015-01-03 15:18:27 +0000";
layers = (
{
background = {
paths = (
{
closed = 1;
nodes = (
"262 1187 LINE SMOOTH",
"217 1187 OFFCURVE",
"196 1169 OFFCURVE",
"181 1084 CURVE SMOOTH",
"166 999 OFFCURVE",
"181 982 OFFCURVE",
"226 982 CURVE SMOOTH",
"373 982 LINE",
"236 205 LINE",
"89 205 LINE SMOOTH",
"44 205 OFFCURVE",
"22 187 OFFCURVE",
"7 102 CURVE SMOOTH",
"-8 17 OFFCURVE",
"8 0 OFFCURVE",
"53 0 CURVE SMOOTH",
"667 0 LINE SMOOTH",
"712 0 OFFCURVE",
"732 17 OFFCURVE",
"747 102 CURVE SMOOTH",
"762 187 OFFCURVE",
"748 205 OFFCURVE",
"703 205 CURVE SMOOTH",
"486 205 LINE",
"517 382 LINE",
"677 382 LINE SMOOTH",
"870 382 OFFCURVE",
"1008 430 OFFCURVE",
"1096 529 CURVE SMOOTH",
"1176 619 OFFCURVE",
"1209 748 OFFCURVE",
"1209 857 CURVE SMOOTH",
"1209 1061 OFFCURVE",
"1070 1187 OFFCURVE",
"799 1187 CURVE SMOOTH"
);
},
{
closed = 1;
nodes = (
"878 972 OFFCURVE",
"951 927 OFFCURVE",
"951 829 CURVE SMOOTH",
"951 774 OFFCURVE",
"932 712 OFFCURVE",
"895 672 CURVE SMOOTH",
"848 621 OFFCURVE",
"774 597 OFFCURVE",
"674 597 CURVE SMOOTH",
"555 597 LINE",
"621 972 LINE",
"740 972 LINE SMOOTH"
);
}
);
};
layerId = UUID0;
name = "Bold Italic";
paths = (
{
closed = 1;
nodes = (
"262 1187 LINE SMOOTH",
"217 1187 OFFCURVE",
"196 1169 OFFCURVE",
"181 1084 CURVE SMOOTH",
"166 999 OFFCURVE",
"181 982 OFFCURVE",
"226 982 CURVE SMOOTH",
"373 982 LINE",
"236 205 LINE",
"89 205 LINE SMOOTH",
"44 205 OFFCURVE",
"22 187 OFFCURVE",
"7 102 CURVE SMOOTH",
"-8 17 OFFCURVE",
"8 0 OFFCURVE",
"53 0 CURVE SMOOTH",
"667 0 LINE SMOOTH",
"712 0 OFFCURVE",
"732 17 OFFCURVE",
"747 102 CURVE SMOOTH",
"762 187 OFFCURVE",
"748 205 OFFCURVE",
"703 205 CURVE SMOOTH",
"486 205 LINE",
"517 382 LINE",
"677 382 LINE SMOOTH",
"870 382 OFFCURVE",
"1008 430 OFFCURVE",
"1096 529 CURVE SMOOTH",
"1176 619 OFFCURVE",
"1209 748 OFFCURVE",
"1209 857 CURVE SMOOTH",
"1209 1061 OFFCURVE",
"1070 1187 OFFCURVE",
"799 1187 CURVE SMOOTH"
);
},
{
closed = 1;
nodes = (
"878 972 OFFCURVE",
"951 927 OFFCURVE",
"951 829 CURVE SMOOTH",
"951 774 OFFCURVE",
"932 712 OFFCURVE",
"895 672 CURVE SMOOTH",
"848 621 OFFCURVE",
"774 597 OFFCURVE",
"674 597 CURVE SMOOTH",
"555 597 LINE",
"621 972 LINE",
"740 972 LINE SMOOTH"
);
}
);
width = 1228;
},
{
layerId = "38D47A70-C265-4203-8B70-C23C50FC2DCC";
name = "Regular Italic";
paths = (
{
closed = 1;
nodes = (
"282 1187 LINE SMOOTH",
"237 1187 OFFCURVE",
"216 1169 OFFCURVE",
"207 1119 CURVE SMOOTH",
"198 1069 OFFCURVE",
"213 1051 OFFCURVE",
"258 1051 CURVE SMOOTH",
"420 1051 LINE",
"258 136 LINE",
"96 136 LINE SMOOTH",
"51 136 OFFCURVE",
"30 118 OFFCURVE",
"21 68 CURVE SMOOTH",
"13 18 OFFCURVE",
"28 0 OFFCURVE",
"73 0 CURVE SMOOTH",
"625 0 LINE SMOOTH",
"670 0 OFFCURVE",
"691 18 OFFCURVE",
"699 68 CURVE SMOOTH",
"708 118 OFFCURVE",
"693 136 OFFCURVE",
"648 136 CURVE SMOOTH",
"408 136 LINE",
"461 433 LINE",
"706 433 LINE SMOOTH",
"884 433 OFFCURVE",
"1007 494 OFFCURVE",
"1084 582 CURVE SMOOTH",
"1157 666 OFFCURVE",
"1189 773 OFFCURVE",
"1189 875 CURVE SMOOTH",
"1189 1060 OFFCURVE",
"1057 1187 OFFCURVE",
"819 1187 CURVE SMOOTH"
);
},
{
closed = 1;
nodes = (
"948 1051 OFFCURVE",
"1031 980 OFFCURVE",
"1031 861 CURVE SMOOTH",
"1031 793 OFFCURVE",
"1010 724 OFFCURVE",
"963 670 CURVE SMOOTH",
"910 610 OFFCURVE",
"825 569 OFFCURVE",
"699 569 CURVE SMOOTH",
"485 569 LINE",
"570 1051 LINE",
"784 1051 LINE SMOOTH"
);
}
);
width = 1228;
}
);
unicode = 0050;
},
{
glyphname = Thorn;
lastChange = "2015-01-03 15:18:27 +0000";
layers = (
{
layerId = UUID0;
name = "Bold Italic";
paths = (
{
closed = 1;
nodes = (
"322 1187 LINE SMOOTH",
"277 1187 OFFCURVE",
"256 1169 OFFCURVE",
"241 1084 CURVE SMOOTH",
"226 999 OFFCURVE",
"241 982 OFFCURVE",
"286 982 CURVE SMOOTH",
"433 982 LINE",
"296 205 LINE",
"149 205 LINE SMOOTH",
"104 205 OFFCURVE",
"82 187 OFFCURVE",
"67 102 CURVE SMOOTH",
"52 17 OFFCURVE",
"68 0 OFFCURVE",
"113 0 CURVE SMOOTH",
"697 0 LINE SMOOTH",
"742 0 OFFCURVE",
"762 17 OFFCURVE",
"777 102 CURVE SMOOTH",
"792 187 OFFCURVE",
"778 205 OFFCURVE",
"733 205 CURVE SMOOTH",
"546 205 LINE",
"563 301 LINE",
"703 301 LINE SMOOTH",
"860 301 OFFCURVE",
"969 338 OFFCURVE",
"1037 407 CURVE SMOOTH",
"1099 470 OFFCURVE",
"1123 562 OFFCURVE",
"1123 639 CURVE SMOOTH",
"1123 783 OFFCURVE",
"1023 886 OFFCURVE",
"805 886 CURVE SMOOTH",
"666 886 LINE",
"683 982 LINE",
"870 982 LINE SMOOTH",
"915 982 OFFCURVE",
"936 999 OFFCURVE",
"951 1084 CURVE SMOOTH",
"966 1169 OFFCURVE",
"951 1187 OFFCURVE",
"906 1187 CURVE SMOOTH"
);
},
{
closed = 1;
nodes = (
"825 691 OFFCURVE",
"865 669 OFFCURVE",
"865 617 CURVE SMOOTH",
"865 588 OFFCURVE",
"855 555 OFFCURVE",
"836 535 CURVE SMOOTH",
"811 508 OFFCURVE",
"769 496 OFFCURVE",
"706 496 CURVE SMOOTH",
"597 496 LINE",
"631 691 LINE",
"740 691 LINE SMOOTH"
);
}
);
width = 1228;
},
{
layerId = "38D47A70-C265-4203-8B70-C23C50FC2DCC";
name = "Regular Italic";
paths = (
{
closed = 1;
nodes = (
"302 1187 LINE SMOOTH",
"257 1187 OFFCURVE",
"236 1169 OFFCURVE",
"227 1119 CURVE SMOOTH",
"218 1069 OFFCURVE",
"233 1051 OFFCURVE",
"278 1051 CURVE SMOOTH",
"444 1051 LINE",
"282 136 LINE",
"136 136 LINE SMOOTH",
"91 136 OFFCURVE",
"70 118 OFFCURVE",
"61 68 CURVE SMOOTH",
"53 18 OFFCURVE",
"68 0 OFFCURVE",
"113 0 CURVE SMOOTH",
"635 0 LINE SMOOTH",
"680 0 OFFCURVE",
"701 18 OFFCURVE",
"709 68 CURVE SMOOTH",
"718 118 OFFCURVE",
"703 136 OFFCURVE",
"658 136 CURVE SMOOTH",
"432 136 LINE",
"457 273 LINE",
"698 273 LINE SMOOTH",
"847 273 OFFCURVE",
"947 323 OFFCURVE",
"1012 392 CURVE SMOOTH",
"1084 470 OFFCURVE",
"1111 571 OFFCURVE",
"1111 654 CURVE SMOOTH",
"1111 809 OFFCURVE",
"1004 927 OFFCURVE",
"793 927 CURVE SMOOTH",
"572 927 LINE",
"594 1051 LINE",
"800 1051 LINE SMOOTH",
"845 1051 OFFCURVE",
"866 1069 OFFCURVE",
"875 1119 CURVE SMOOTH",
"884 1169 OFFCURVE",
"869 1187 OFFCURVE",
"824 1187 CURVE SMOOTH"
);
},
{
closed = 1;
nodes = (
"894 791 OFFCURVE",
"953 729 OFFCURVE",
"953 641 CURVE SMOOTH",
"953 588 OFFCURVE",
"937 530 OFFCURVE",
"895 484 CURVE SMOOTH",
"854 440 OFFCURVE",
"789 409 OFFCURVE",
"691 409 CURVE SMOOTH",
"481 409 LINE",
"548 791 LINE",
"758 791 LINE SMOOTH"
);
}
);
width = 1228;
}
);
unicode = 00DE;
},
{
glyphname = Q;
lastChange = "2015-01-04 05:15:56 +0000";
layers = (
{
layerId = UUID0;
name = "Bold Italic";
paths = (
{
closed = 1;
nodes = (
"553 1209 OFFCURVE",
"389 1139 OFFCURVE",
"273 1010 CURVE SMOOTH",
"154 878 OFFCURVE",
"97 693 OFFCURVE",
"97 529 CURVE SMOOTH",
"97 325 OFFCURVE",
"190 165 OFFCURVE",
"347 98 CURVE",
"114 -102 LINE SMOOTH",
"82 -130 OFFCURVE",
"86 -180 OFFCURVE",
"106 -221 CURVE SMOOTH",
"127 -264 OFFCURVE",
"164 -296 OFFCURVE",
"196 -284 CURVE SMOOTH",
"287 -249 OFFCURVE",
"364 -237 OFFCURVE",
"433 -237 CURVE SMOOTH",
"567 -237 OFFCURVE",
"669 -281 OFFCURVE",
"781 -281 CURVE SMOOTH",
"853 -281 OFFCURVE",
"928 -263 OFFCURVE",
"1019 -204 CURVE SMOOTH",
"1068 -172 OFFCURVE",
"1070 -112 OFFCURVE",
"1049 -66 CURVE SMOOTH",
"1028 -19 OFFCURVE",
"985 14 OFFCURVE",
"944 -6 CURVE SMOOTH",
"881 -37 OFFCURVE",
"831 -46 OFFCURVE",
"786 -46 CURVE SMOOTH",
"708 -46 OFFCURVE",
"645 -17 OFFCURVE",
"555 -17 CURVE SMOOTH",
"510 -17 OFFCURVE",
"459 -24 OFFCURVE",
"396 -46 CURVE",
"519 60 LINE",
"529 59 OFFCURVE",
"547 58 OFFCURVE",
"564 58 CURVE SMOOTH",
"758 58 OFFCURVE",
"922 128 OFFCURVE",
"1038 257 CURVE SMOOTH",
"1157 389 OFFCURVE",
"1214 574 OFFCURVE",
"1214 738 CURVE SMOOTH",
"1214 1023 OFFCURVE",
"1034 1209 OFFCURVE",
"747 1209 CURVE SMOOTH"
);
},
{
closed = 1;
nodes = (
"872 982 OFFCURVE",
"949 892 OFFCURVE",
"949 738 CURVE SMOOTH",
"949 622 OFFCURVE",
"911 482 OFFCURVE",
"838 395 CURVE SMOOTH",
"778 324 OFFCURVE",
"696 285 OFFCURVE",
"594 285 CURVE SMOOTH",
"439 285 OFFCURVE",
"362 374 OFFCURVE",
"362 529 CURVE SMOOTH",
"362 645 OFFCURVE",
"400 785 OFFCURVE",
"473 872 CURVE SMOOTH",
"533 943 OFFCURVE",
"615 982 OFFCURVE",
"717 982 CURVE SMOOTH"
);
}
);
width = 1228;
},
{
layerId = "38D47A70-C265-4203-8B70-C23C50FC2DCC";
name = "Regular Italic";
paths = (
{
closed = 1;
nodes = (
"554 1209 OFFCURVE",
"409 1132 OFFCURVE",
"306 1017 CURVE SMOOTH",
"179 875 OFFCURVE",
"116 676 OFFCURVE",
"116 492 CURVE SMOOTH",
"116 286 OFFCURVE",
"207 134 OFFCURVE",
"362 67 CURVE",
"141 -142 LINE SMOOTH",
"119 -163 OFFCURVE",
"127 -200 OFFCURVE",
"151 -233 CURVE SMOOTH",
"174 -264 OFFCURVE",
"201 -279 OFFCURVE",
"229 -269 CURVE",
"323 -232 OFFCURVE",
"398 -220 OFFCURVE",
"461 -220 CURVE SMOOTH",
"576 -220 OFFCURVE",
"654 -259 OFFCURVE",
"746 -259 CURVE SMOOTH",
"810 -259 OFFCURVE",
"880 -241 OFFCURVE",
"973 -179 CURVE SMOOTH",
"1007 -157 OFFCURVE",
"1003 -115 OFFCURVE",
"986 -84 CURVE SMOOTH",
"969 -54 OFFCURVE",
"939 -32 OFFCURVE",
"914 -48 CURVE SMOOTH",
"846 -92 OFFCURVE",
"792 -105 OFFCURVE",
"742 -105 CURVE SMOOTH",
"666 -105 OFFCURVE",
"600 -73 OFFCURVE",
"509 -73 CURVE SMOOTH",
"466 -73 OFFCURVE",
"418 -80 OFFCURVE",
"360 -100 CURVE",
"508 30 LINE",
"526 29 OFFCURVE",
"544 28 OFFCURVE",
"563 28 CURVE SMOOTH",
"751 28 OFFCURVE",
"896 105 OFFCURVE",
"999 220 CURVE SMOOTH",
"1126 362 OFFCURVE",
"1189 562 OFFCURVE",
"1189 746 CURVE SMOOTH",
"1189 1028 OFFCURVE",
"1015 1209 OFFCURVE",
"742 1209 CURVE SMOOTH"
);
},
{
closed = 1;
nodes = (
"919 1061 OFFCURVE",
"1031 942 OFFCURVE",
"1031 737 CURVE SMOOTH",
"1031 594 OFFCURVE",
"985 436 OFFCURVE",
"891 325 CURVE SMOOTH",
"816 236 OFFCURVE",
"711 176 OFFCURVE",
"575 176 CURVE SMOOTH",
"386 176 OFFCURVE",
"273 294 OFFCURVE",
"273 500 CURVE SMOOTH",
"273 643 OFFCURVE",
"320 801 OFFCURVE",
"414 912 CURVE SMOOTH",
"489 1001 OFFCURVE",
"595 1061 OFFCURVE",
"731 1061 CURVE SMOOTH"
);
}
);
width = 1228;
}
);
unicode = 0051;
},
{
glyphname = R;
lastChange = "2015-01-03 15:18:27 +0000";
layers = (
{
layerId = UUID0;
name = "Bold Italic";
paths = (
{
closed = 1;
nodes = (
"262 1187 LINE SMOOTH",
"217 1187 OFFCURVE",
"196 1169 OFFCURVE",
"181 1084 CURVE SMOOTH",
"166 999 OFFCURVE",
"181 982 OFFCURVE",
"226 982 CURVE SMOOTH",
"333 982 LINE",
"196 205 LINE",
"89 205 LINE SMOOTH",
"44 205 OFFCURVE",
"22 187 OFFCURVE",
"7 102 CURVE SMOOTH",
"-8 17 OFFCURVE",
"8 0 OFFCURVE",
"53 0 CURVE SMOOTH",
"507 0 LINE SMOOTH",
"552 0 OFFCURVE",
"572 17 OFFCURVE",
"587 102 CURVE SMOOTH",
"602 187 OFFCURVE",
"588 205 OFFCURVE",
"543 205 CURVE SMOOTH",
"446 205 LINE",
"491 461 LINE",
"555 461 LINE SMOOTH",
"625 461 OFFCURVE",
"670 437 OFFCURVE",
"701 380 CURVE SMOOTH",
"743 302 OFFCURVE",
"754 215 OFFCURVE",
"785 139 CURVE SMOOTH",
"824 43 OFFCURVE",
"871 0 OFFCURVE",
"978 0 CURVE SMOOTH",
"1065 0 LINE SMOOTH",
"1110 0 OFFCURVE",
"1131 17 OFFCURVE",
"1146 102 CURVE SMOOTH",
"1161 187 OFFCURVE",
"1146 205 OFFCURVE",
"1101 205 CURVE SMOOTH",
"1082 205 LINE SMOOTH",
"1046 205 OFFCURVE",
"1026 231 OFFCURVE",
"1009 271 CURVE SMOOTH",
"984 331 OFFCURVE",
"965 400 OFFCURVE",
"928 464 CURVE SMOOTH",
"910 495 OFFCURVE",
"884 520 OFFCURVE",
"853 533 CURVE",
"1083 586 OFFCURVE",
"1166 720 OFFCURVE",
"1166 888 CURVE SMOOTH",
"1166 1077 OFFCURVE",
"1026 1187 OFFCURVE",
"779 1187 CURVE SMOOTH"
);
},
{
closed = 1;
nodes = (
"851 972 OFFCURVE",
"907 934 OFFCURVE",
"907 857 CURVE SMOOTH",
"907 813 OFFCURVE",
"890 765 OFFCURVE",
"861 734 CURVE SMOOTH",
"824 695 OFFCURVE",
"764 676 OFFCURVE",
"678 676 CURVE SMOOTH",
"529 676 LINE",
"581 972 LINE",
"730 972 LINE SMOOTH"
);
}
);
width = 1228;
},
{
layerId = "38D47A70-C265-4203-8B70-C23C50FC2DCC";
name = "Regular Italic";
paths = (
{
closed = 1;
nodes = (
"282 1187 LINE SMOOTH",
"237 1187 OFFCURVE",
"216 1169 OFFCURVE",
"207 1119 CURVE SMOOTH",
"198 1069 OFFCURVE",
"213 1051 OFFCURVE",
"258 1051 CURVE SMOOTH",
"380 1051 LINE",
"218 136 LINE",
"96 136 LINE SMOOTH",
"51 136 OFFCURVE",
"30 118 OFFCURVE",
"21 68 CURVE SMOOTH",
"13 18 OFFCURVE",
"28 0 OFFCURVE",
"73 0 CURVE SMOOTH",
"475 0 LINE SMOOTH",
"520 0 OFFCURVE",
"541 18 OFFCURVE",
"549 68 CURVE SMOOTH",
"558 118 OFFCURVE",
"543 136 OFFCURVE",
"498 136 CURVE SMOOTH",
"368 136 LINE",
"435 515 LINE",
"572 515 LINE SMOOTH",
"653 515 OFFCURVE",
"703 486 OFFCURVE",
"733 430 CURVE SMOOTH",
"779 345 OFFCURVE",
"793 255 OFFCURVE",
"832 139 CURVE SMOOTH",
"866 37 OFFCURVE",
"910 0 OFFCURVE",
"989 0 CURVE SMOOTH",
"1051 0 LINE SMOOTH",
"1096 0 OFFCURVE",
"1117 18 OFFCURVE",
"1126 68 CURVE SMOOTH",
"1135 118 OFFCURVE",
"1120 136 OFFCURVE",
"1075 136 CURVE SMOOTH",
"1047 136 LINE SMOOTH",
"1009 136 OFFCURVE",
"987 164 OFFCURVE",
"970 208 CURVE SMOOTH",
"938 292 OFFCURVE",
"926 382 OFFCURVE",
"874 473 CURVE SMOOTH",
"855 506 OFFCURVE",
"829 533 OFFCURVE",
"796 549 CURVE",
"986 587 OFFCURVE",
"1129 709 OFFCURVE",
"1129 906 CURVE SMOOTH",
"1129 1072 OFFCURVE",
"1004 1187 OFFCURVE",
"778 1187 CURVE SMOOTH"
);
},
{
closed = 1;
nodes = (
"890 1051 OFFCURVE",
"971 994 OFFCURVE",
"971 891 CURVE SMOOTH",
"971 841 OFFCURVE",
"958 786 OFFCURVE",
"918 740 CURVE SMOOTH",
"874 689 OFFCURVE",
"795 651 OFFCURVE",
"662 651 CURVE SMOOTH",
"459 651 LINE",
"530 1051 LINE",
"743 1051 LINE SMOOTH"
);
}
);
width = 1228;
}
);
unicode = 0052;
},
{
glyphname = S;
lastChange = "2015-01-03 15:18:27 +0000";
layers = (
{
background = {
paths = (
{
closed = 1;
nodes = (
"974 1209 OFFCURVE",
"945 1191 OFFCURVE",
"936 1146 CURVE SMOOTH",
"928 1104 LINE",
"873 1168 OFFCURVE",
"779 1209 OFFCURVE",
"671 1209 CURVE SMOOTH",
"527 1209 OFFCURVE",
"400 1154 OFFCURVE",
"319 1057 CURVE SMOOTH",
"256 982 OFFCURVE",
"225 883 OFFCURVE",
"225 793 CURVE SMOOTH",
"225 705 OFFCURVE",
"259 646 OFFCURVE",
"312 604 CURVE SMOOTH",
"424 514 OFFCURVE",
"619 504 OFFCURVE",
"729 454 CURVE SMOOTH",
"779 431 OFFCURVE",
"811 401 OFFCURVE",
"811 351 CURVE SMOOTH",
"811 282 OFFCURVE",
"763 191 OFFCURVE",
"605 191 CURVE SMOOTH",
"470 191 OFFCURVE",
"385 263 OFFCURVE",
"338 398 CURVE SMOOTH",
"328 427 OFFCURVE",
"305 438 OFFCURVE",
"258 438 CURVE SMOOTH",
"193 438 OFFCURVE",
"163 420 OFFCURVE",
"155 375 CURVE SMOOTH",
"96 41 LINE SMOOTH",
"88 -4 OFFCURVE",
"118 -22 OFFCURVE",
"203 -22 CURVE SMOOTH",
"288 -22 OFFCURVE",
"319 -4 OFFCURVE",
"326 41 CURVE SMOOTH",
"333 84 LINE",
"398 18 OFFCURVE",
"497 -22 OFFCURVE",
"608 -22 CURVE SMOOTH",
"780 -22 OFFCURVE",
"907 32 OFFCURVE",
"986 127 CURVE SMOOTH",
"1053 208 OFFCURVE",
"1081 317 OFFCURVE",
"1081 413 CURVE SMOOTH",
"1081 522 OFFCURVE",
"1036 592 OFFCURVE",
"972 639 CURVE SMOOTH",
"852 727 OFFCURVE",
"662 735 OFFCURVE",
"561 775 CURVE SMOOTH",
"519 792 OFFCURVE",
"493 813 OFFCURVE",
"493 849 CURVE SMOOTH",
"493 911 OFFCURVE",
"550 996 OFFCURVE",
"673 996 CURVE SMOOTH",
"805 996 OFFCURVE",
"894 937 OFFCURVE",
"938 841 CURVE SMOOTH",
"948 820 OFFCURVE",
"969 809 OFFCURVE",
"1014 809 CURVE SMOOTH",
"1079 809 OFFCURVE",
"1109 827 OFFCURVE",
"1117 872 CURVE SMOOTH",
"1166 1146 LINE SMOOTH",
"1174 1191 OFFCURVE",
"1144 1209 OFFCURVE",
"1059 1209 CURVE SMOOTH"
);
}
);
};
layerId = UUID0;
name = "Bold Italic";
paths = (
{
closed = 1;
nodes = (
"974 1209 OFFCURVE",
"945 1191 OFFCURVE",
"936 1146 CURVE SMOOTH",
"928 1104 LINE",
"873 1168 OFFCURVE",
"779 1209 OFFCURVE",
"671 1209 CURVE SMOOTH",
"400 1209 OFFCURVE",
"225 1021 OFFCURVE",
"225 793 CURVE SMOOTH",
"225 705 OFFCURVE",
"259 646 OFFCURVE",
"312 604 CURVE SMOOTH",
"424 514 OFFCURVE",
"619 504 OFFCURVE",
"729 454 CURVE SMOOTH",
"779 431 OFFCURVE",
"811 401 OFFCURVE",
"811 351 CURVE SMOOTH",
"811 282 OFFCURVE",
"763 191 OFFCURVE",
"605 191 CURVE SMOOTH",
"470 191 OFFCURVE",
"385 263 OFFCURVE",
"338 398 CURVE SMOOTH",
"328 427 OFFCURVE",
"305 438 OFFCURVE",
"258 438 CURVE SMOOTH",
"193 438 OFFCURVE",
"163 420 OFFCURVE",
"155 375 CURVE SMOOTH",
"96 41 LINE SMOOTH",
"88 -4 OFFCURVE",
"118 -22 OFFCURVE",
"203 -22 CURVE SMOOTH",
"288 -22 OFFCURVE",
"319 -4 OFFCURVE",
"326 41 CURVE SMOOTH",
"333 84 LINE",
"398 18 OFFCURVE",
"497 -22 OFFCURVE",
"608 -22 CURVE SMOOTH",
"955 -22 OFFCURVE",
"1081 194 OFFCURVE",
"1081 413 CURVE SMOOTH",
"1081 522 OFFCURVE",
"1036 592 OFFCURVE",
"972 639 CURVE SMOOTH",
"852 727 OFFCURVE",
"662 735 OFFCURVE",
"561 775 CURVE SMOOTH",
"519 792 OFFCURVE",
"493 813 OFFCURVE",
"493 849 CURVE SMOOTH",
"493 911 OFFCURVE",
"550 996 OFFCURVE",
"673 996 CURVE SMOOTH",
"805 996 OFFCURVE",
"894 937 OFFCURVE",
"938 841 CURVE SMOOTH",
"948 820 OFFCURVE",
"969 809 OFFCURVE",
"1014 809 CURVE SMOOTH",
"1079 809 OFFCURVE",
"1109 827 OFFCURVE",
"1117 872 CURVE SMOOTH",
"1166 1146 LINE SMOOTH",
"1174 1191 OFFCURVE",
"1144 1209 OFFCURVE",
"1059 1209 CURVE SMOOTH"
);
}
);
width = 1228;
},
{
layerId = "38D47A70-C265-4203-8B70-C23C50FC2DCC";
name = "Regular Italic";
paths = (
{
closed = 1;
nodes = (
"1030 1209 OFFCURVE",
"1007 1190 OFFCURVE",
"999 1144 CURVE SMOOTH",
"987 1078 LINE",
"925 1153 OFFCURVE",
"817 1209 OFFCURVE",
"694 1209 CURVE SMOOTH",
"375 1209 OFFCURVE",
"248 992 OFFCURVE",
"248 821 CURVE SMOOTH",
"248 710 OFFCURVE",
"311 650 OFFCURVE",
"397 611 CURVE SMOOTH",
"523 555 OFFCURVE",
"699 545 OFFCURVE",
"805 492 CURVE SMOOTH",
"860 464 OFFCURVE",
"897 425 OFFCURVE",
"897 361 CURVE SMOOTH",
"897 238 OFFCURVE",
"796 126 OFFCURVE",
"594 126 CURVE SMOOTH",
"419 126 OFFCURVE",
"312 212 OFFCURVE",
"285 366 CURVE SMOOTH",
"280 394 OFFCURVE",
"263 408 OFFCURVE",
"234 408 CURVE SMOOTH",
"178 408 OFFCURVE",
"156 389 OFFCURVE",
"148 343 CURVE SMOOTH",
"95 43 LINE SMOOTH",
"87 -3 OFFCURVE",
"103 -22 OFFCURVE",
"159 -22 CURVE SMOOTH",
"215 -22 OFFCURVE",
"237 -3 OFFCURVE",
"245 43 CURVE SMOOTH",
"260 126 LINE",
"327 32 OFFCURVE",
"439 -22 OFFCURVE",
"575 -22 CURVE SMOOTH",
"938 -22 OFFCURVE",
"1057 207 OFFCURVE",
"1057 392 CURVE SMOOTH",
"1057 509 OFFCURVE",
"1000 576 OFFCURVE",
"919 620 CURVE SMOOTH",
"795 687 OFFCURVE",
"617 698 OFFCURVE",
"507 740 CURVE SMOOTH",
"448 763 OFFCURVE",
"408 794 OFFCURVE",
"408 849 CURVE SMOOTH",
"408 944 OFFCURVE",
"489 1061 OFFCURVE",
"675 1061 CURVE SMOOTH",
"821 1061 OFFCURVE",
"931 998 OFFCURVE",
"975 875 CURVE SMOOTH",
"982 857 OFFCURVE",
"998 849 OFFCURVE",
"1022 849 CURVE SMOOTH",
"1078 849 OFFCURVE",
"1101 868 OFFCURVE",
"1109 914 CURVE SMOOTH",
"1149 1144 LINE SMOOTH",
"1157 1190 OFFCURVE",
"1142 1209 OFFCURVE",
"1086 1209 CURVE SMOOTH"
);
}
);
width = 1228;
}
);
unicode = 0053;
},
{
color = 6;
glyphname = Scedilla;
lastChange = "2014-11-22 20:01:59 +0000";
layers = (
{
background = {
paths = (
{
closed = 1;
nodes = (
"974 1209 OFFCURVE",
"945 1191 OFFCURVE",
"936 1146 CURVE SMOOTH",
"928 1104 LINE",
"873 1168 OFFCURVE",
"779 1209 OFFCURVE",
"671 1209 CURVE SMOOTH",
"527 1209 OFFCURVE",
"400 1154 OFFCURVE",
"319 1057 CURVE SMOOTH",
"256 982 OFFCURVE",
"225 883 OFFCURVE",
"225 793 CURVE SMOOTH",
"225 705 OFFCURVE",
"259 646 OFFCURVE",
"312 604 CURVE SMOOTH",
"424 514 OFFCURVE",
"619 504 OFFCURVE",
"729 454 CURVE SMOOTH",
"779 431 OFFCURVE",
"811 401 OFFCURVE",
"811 351 CURVE SMOOTH",
"811 282 OFFCURVE",
"763 191 OFFCURVE",
"605 191 CURVE SMOOTH",
"470 191 OFFCURVE",
"385 263 OFFCURVE",
"338 398 CURVE SMOOTH",
"328 427 OFFCURVE",
"305 438 OFFCURVE",
"258 438 CURVE SMOOTH",
"193 438 OFFCURVE",
"163 420 OFFCURVE",
"155 375 CURVE SMOOTH",
"96 41 LINE SMOOTH",
"88 -4 OFFCURVE",
"118 -22 OFFCURVE",
"203 -22 CURVE SMOOTH",
"288 -22 OFFCURVE",
"319 -4 OFFCURVE",
"326 41 CURVE SMOOTH",
"333 84 LINE",
"373 43 OFFCURVE",
"426 12 OFFCURVE",
"487 -5 CURVE",
"457 -180 LINE SMOOTH",
"451 -215 OFFCURVE",
"471 -224 OFFCURVE",
"489 -221 CURVE SMOOTH",
"555 -209 OFFCURVE",
"607 -215 OFFCURVE",
"607 -258 CURVE SMOOTH",
"607 -291 OFFCURVE",
"586 -322 OFFCURVE",
"511 -322 CURVE SMOOTH",
"444 -322 OFFCURVE",
"402 -308 OFFCURVE",
"354 -288 CURVE SMOOTH",
"328 -277 OFFCURVE",
"302 -308 OFFCURVE",
"285 -346 CURVE SMOOTH",
"267 -386 OFFCURVE",
"263 -420 OFFCURVE",
"289 -431 CURVE SMOOTH",
"354 -458 OFFCURVE",
"441 -472 OFFCURVE",
"537 -472 CURVE SMOOTH",
"661 -472 OFFCURVE",
"746 -445 OFFCURVE",
"794 -389 CURVE SMOOTH",
"829 -350 OFFCURVE",
"842 -292 OFFCURVE",
"842 -250 CURVE SMOOTH",
"842 -156 OFFCURVE",
"779 -89 OFFCURVE",
"647 -93 CURVE",
"659 -20 LINE",
"805 -10 OFFCURVE",
"915 42 OFFCURVE",
"986 127 CURVE SMOOTH",
"1053 208 OFFCURVE",
"1081 317 OFFCURVE",
"1081 413 CURVE SMOOTH",
"1081 522 OFFCURVE",
"1036 592 OFFCURVE",
"972 639 CURVE SMOOTH",
"852 727 OFFCURVE",
"662 735 OFFCURVE",
"561 775 CURVE SMOOTH",
"519 792 OFFCURVE",
"493 813 OFFCURVE",
"493 849 CURVE SMOOTH",
"493 911 OFFCURVE",
"550 996 OFFCURVE",
"673 996 CURVE SMOOTH",
"805 996 OFFCURVE",
"894 937 OFFCURVE",
"938 841 CURVE SMOOTH",
"948 820 OFFCURVE",
"969 809 OFFCURVE",
"1014 809 CURVE SMOOTH",
"1079 809 OFFCURVE",
"1109 827 OFFCURVE",
"1117 872 CURVE SMOOTH",
"1166 1146 LINE SMOOTH",
"1174 1191 OFFCURVE",
"1144 1209 OFFCURVE",
"1059 1209 CURVE SMOOTH"
);
}
);
};
components = (
{
name = S;
transform = "{1, 0, 0, 1, 0, 0}";
},
{
name = cedilla;
transform = "{1, 0, 0, 1, 50, 0}";
}
);
layerId = UUID0;
name = "Bold Italic";
width = 1228;
},
{
background = {
paths = (
{
closed = 1;
nodes = (
"1030 1209 OFFCURVE",
"1007 1190 OFFCURVE",
"999 1144 CURVE SMOOTH",
"987 1078 LINE",
"925 1153 OFFCURVE",
"817 1209 OFFCURVE",
"694 1209 CURVE SMOOTH",
"375 1209 OFFCURVE",
"248 992 OFFCURVE",
"248 821 CURVE SMOOTH",
"248 710 OFFCURVE",
"311 650 OFFCURVE",
"397 611 CURVE SMOOTH",
"523 555 OFFCURVE",
"699 545 OFFCURVE",
"805 492 CURVE SMOOTH",
"860 464 OFFCURVE",
"897 425 OFFCURVE",
"897 361 CURVE SMOOTH",
"897 238 OFFCURVE",
"796 126 OFFCURVE",
"594 126 CURVE SMOOTH",
"419 126 OFFCURVE",
"312 212 OFFCURVE",
"285 366 CURVE SMOOTH",
"280 394 OFFCURVE",
"263 408 OFFCURVE",
"234 408 CURVE SMOOTH",
"178 408 OFFCURVE",
"156 389 OFFCURVE",
"148 343 CURVE SMOOTH",
"95 43 LINE SMOOTH",
"87 -3 OFFCURVE",
"103 -22 OFFCURVE",
"159 -22 CURVE SMOOTH",
"215 -22 OFFCURVE",
"237 -3 OFFCURVE",
"245 43 CURVE SMOOTH",
"260 126 LINE",
"311 53 OFFCURVE",
"390 5 OFFCURVE",
"486 -13 CURVE",
"458 -175 LINE SMOOTH",
"451 -213 OFFCURVE",
"471 -218 OFFCURVE",
"490 -217 CURVE SMOOTH",
"575 -212 OFFCURVE",
"624 -226 OFFCURVE",
"624 -271 CURVE SMOOTH",
"624 -317 OFFCURVE",
"588 -352 OFFCURVE",
"508 -352 CURVE SMOOTH",
"441 -352 OFFCURVE",
"370 -338 OFFCURVE",
"321 -318 CURVE SMOOTH",
"299 -309 OFFCURVE",
"275 -329 OFFCURVE",
"262 -354 CURVE SMOOTH",
"248 -380 OFFCURVE",
"246 -412 OFFCURVE",
"269 -424 CURVE SMOOTH",
"332 -456 OFFCURVE",
"418 -472 OFFCURVE",
"507 -472 CURVE SMOOTH",
"611 -472 OFFCURVE",
"683 -445 OFFCURVE",
"727 -398 CURVE SMOOTH",
"764 -359 OFFCURVE",
"781 -299 OFFCURVE",
"781 -258 CURVE SMOOTH",
"781 -177 OFFCURVE",
"725 -111 OFFCURVE",
"603 -113 CURVE",
"619 -21 LINE",
"947 -3 OFFCURVE",
"1057 215 OFFCURVE",
"1057 392 CURVE SMOOTH",
"1057 509 OFFCURVE",
"1000 576 OFFCURVE",
"919 620 CURVE SMOOTH",
"795 687 OFFCURVE",
"617 698 OFFCURVE",
"507 740 CURVE SMOOTH",
"448 763 OFFCURVE",
"408 794 OFFCURVE",
"408 849 CURVE SMOOTH",
"408 944 OFFCURVE",
"489 1061 OFFCURVE",
"675 1061 CURVE SMOOTH",
"821 1061 OFFCURVE",
"931 998 OFFCURVE",
"975 875 CURVE SMOOTH",
"982 857 OFFCURVE",
"998 849 OFFCURVE",
"1022 849 CURVE SMOOTH",
"1078 849 OFFCURVE",
"1101 868 OFFCURVE",
"1109 914 CURVE SMOOTH",
"1149 1144 LINE SMOOTH",
"1157 1190 OFFCURVE",
"1142 1209 OFFCURVE",
"1086 1209 CURVE SMOOTH"
);
}
);
};
components = (
{
name = S;
transform = "{1, 0, 0, 1, 0, 0}";
},
{
name = cedilla;
transform = "{1, 0, 0, 1, 30, 0}";
}
);
layerId = "38D47A70-C265-4203-8B70-C23C50FC2DCC";
name = "Regular Italic";
width = 1228;
}
);
unicode = 015E;
},
{
glyphname = T;
lastChange = "2015-01-03 15:18:27 +0000";
layers = (
{
layerId = UUID0;
name = "Bold Italic";
paths = (
{
closed = 1;
nodes = (
"302 1187 LINE SMOOTH",
"256 1187 OFFCURVE",
"233 1168 OFFCURVE",
"225 1122 CURVE SMOOTH",
"151 700 LINE SMOOTH",
"143 655 OFFCURVE",
"163 637 OFFCURVE",
"238 637 CURVE SMOOTH",
"313 637 OFFCURVE",
"353 655 OFFCURVE",
"361 700 CURVE SMOOTH",
"409 972 LINE",
"590 972 LINE",
"455 205 LINE",
"249 205 LINE SMOOTH",
"204 205 OFFCURVE",
"182 187 OFFCURVE",
"167 102 CURVE SMOOTH",
"152 17 OFFCURVE",
"168 0 OFFCURVE",
"213 0 CURVE SMOOTH",
"895 0 LINE SMOOTH",
"940 0 OFFCURVE",
"960 17 OFFCURVE",
"975 102 CURVE SMOOTH",
"990 187 OFFCURVE",
"976 205 OFFCURVE",
"931 205 CURVE SMOOTH",
"705 205 LINE",
"840 972 LINE",
"1021 972 LINE",
"973 700 LINE SMOOTH",
"965 655 OFFCURVE",
"985 637 OFFCURVE",
"1060 637 CURVE SMOOTH",
"1135 637 OFFCURVE",
"1175 655 OFFCURVE",
"1183 700 CURVE SMOOTH",
"1257 1122 LINE SMOOTH",
"1265 1168 OFFCURVE",
"1250 1187 OFFCURVE",
"1204 1187 CURVE SMOOTH"
);
}
);
width = 1228;
},
{
layerId = "38D47A70-C265-4203-8B70-C23C50FC2DCC";
name = "Regular Italic";
paths = (
{
closed = 1;
nodes = (
"324 1187 LINE SMOOTH",
"279 1187 OFFCURVE",
"258 1169 OFFCURVE",
"249 1119 CURVE SMOOTH",
"182 742 LINE SMOOTH",
"174 696 OFFCURVE",
"190 677 OFFCURVE",
"246 677 CURVE SMOOTH",
"302 677 OFFCURVE",
"324 696 OFFCURVE",
"332 742 CURVE SMOOTH",
"387 1051 LINE",
"654 1051 LINE",
"492 136 LINE",
"266 136 LINE SMOOTH",
"221 136 OFFCURVE",
"200 118 OFFCURVE",
"191 68 CURVE SMOOTH",
"183 18 OFFCURVE",
"198 0 OFFCURVE",
"243 0 CURVE SMOOTH",
"865 0 LINE SMOOTH",
"910 0 OFFCURVE",
"931 18 OFFCURVE",
"939 68 CURVE SMOOTH",
"948 118 OFFCURVE",
"933 136 OFFCURVE",
"888 136 CURVE SMOOTH",
"642 136 LINE",
"804 1051 LINE",
"1071 1051 LINE",
"1016 742 LINE SMOOTH",
"1008 696 OFFCURVE",
"1024 677 OFFCURVE",
"1080 677 CURVE SMOOTH",
"1136 677 OFFCURVE",
"1158 696 OFFCURVE",
"1166 742 CURVE SMOOTH",
"1233 1119 LINE SMOOTH",
"1242 1169 OFFCURVE",
"1227 1187 OFFCURVE",
"1182 1187 CURVE SMOOTH"
);
}
);
width = 1228;
}
);
unicode = 0054;
},
{
color = 6;
glyphname = Tbar;
lastChange = "2015-01-03 15:18:27 +0000";
layers = (
{
layerId = UUID0;
name = "Bold Italic";
paths = (
{
closed = 1;
nodes = (
"302 1187 LINE SMOOTH",
"256 1187 OFFCURVE",
"233 1168 OFFCURVE",
"225 1122 CURVE SMOOTH",
"151 700 LINE SMOOTH",
"143 655 OFFCURVE",
"163 637 OFFCURVE",
"238 637 CURVE SMOOTH",
"313 637 OFFCURVE",
"353 655 OFFCURVE",
"361 700 CURVE SMOOTH",
"409 972 LINE",
"590 972 LINE",
"518 565 LINE",
"362 565 LINE SMOOTH",
"317 565 OFFCURVE",
"296 547 OFFCURVE",
"281 462 CURVE SMOOTH",
"266 377 OFFCURVE",
"281 360 OFFCURVE",
"326 360 CURVE SMOOTH",
"482 360 LINE",
"455 205 LINE",
"249 205 LINE SMOOTH",
"204 205 OFFCURVE",
"182 187 OFFCURVE",
"167 102 CURVE SMOOTH",
"152 17 OFFCURVE",
"168 0 OFFCURVE",
"213 0 CURVE SMOOTH",
"895 0 LINE SMOOTH",
"940 0 OFFCURVE",
"960 17 OFFCURVE",
"975 102 CURVE SMOOTH",
"990 187 OFFCURVE",
"976 205 OFFCURVE",
"931 205 CURVE SMOOTH",
"705 205 LINE",
"732 360 LINE",
"888 360 LINE SMOOTH",
"933 360 OFFCURVE",
"954 377 OFFCURVE",
"969 462 CURVE SMOOTH",
"984 547 OFFCURVE",
"969 565 OFFCURVE",
"924 565 CURVE SMOOTH",
"768 565 LINE",
"840 972 LINE",
"1021 972 LINE",
"973 700 LINE SMOOTH",
"965 655 OFFCURVE",
"985 637 OFFCURVE",
"1060 637 CURVE SMOOTH",
"1135 637 OFFCURVE",
"1175 655 OFFCURVE",
"1183 700 CURVE SMOOTH",
"1257 1122 LINE SMOOTH",
"1265 1168 OFFCURVE",
"1250 1187 OFFCURVE",
"1204 1187 CURVE SMOOTH"
);
}
);
width = 1228;
},
{
layerId = "38D47A70-C265-4203-8B70-C23C50FC2DCC";
name = "Regular Italic";
paths = (
{
closed = 1;
nodes = (
"324 1187 LINE SMOOTH",
"279 1187 OFFCURVE",
"258 1169 OFFCURVE",
"249 1119 CURVE SMOOTH",
"182 742 LINE SMOOTH",
"174 696 OFFCURVE",
"190 677 OFFCURVE",
"246 677 CURVE SMOOTH",
"302 677 OFFCURVE",
"324 696 OFFCURVE",
"332 742 CURVE SMOOTH",
"387 1051 LINE",
"654 1051 LINE",
"571 586 LINE",
"366 586 LINE SMOOTH",
"321 586 OFFCURVE",
"300 568 OFFCURVE",
"291 518 CURVE SMOOTH",
"282 468 OFFCURVE",
"297 450 OFFCURVE",
"342 450 CURVE SMOOTH",
"547 450 LINE",
"492 136 LINE",
"266 136 LINE SMOOTH",
"221 136 OFFCURVE",
"200 118 OFFCURVE",
"191 68 CURVE SMOOTH",
"183 18 OFFCURVE",
"198 0 OFFCURVE",
"243 0 CURVE SMOOTH",
"865 0 LINE SMOOTH",
"910 0 OFFCURVE",
"931 18 OFFCURVE",
"939 68 CURVE SMOOTH",
"948 118 OFFCURVE",
"933 136 OFFCURVE",
"888 136 CURVE SMOOTH",
"642 136 LINE",
"697 450 LINE",
"904 450 LINE SMOOTH",
"949 450 OFFCURVE",
"970 468 OFFCURVE",
"979 518 CURVE SMOOTH",
"988 568 OFFCURVE",
"973 586 OFFCURVE",
"928 586 CURVE SMOOTH",
"721 586 LINE",
"804 1051 LINE",
"1071 1051 LINE",
"1016 742 LINE SMOOTH",
"1008 696 OFFCURVE",
"1024 677 OFFCURVE",
"1080 677 CURVE SMOOTH",
"1136 677 OFFCURVE",
"1158 696 OFFCURVE",
"1166 742 CURVE SMOOTH",
"1233 1119 LINE SMOOTH",
"1242 1169 OFFCURVE",
"1227 1187 OFFCURVE",
"1182 1187 CURVE SMOOTH"
);
}
);
width = 1228;
}
);
unicode = 0166;
},
{
glyphname = U;
lastChange = "2015-01-03 15:18:27 +0000";
layers = (
{
layerId = UUID0;
name = "Bold Italic";
paths = (
{
closed = 1;
nodes = (
"880 1187 LINE SMOOTH",
"835 1187 OFFCURVE",
"814 1169 OFFCURVE",
"799 1084 CURVE SMOOTH",
"784 999 OFFCURVE",
"799 982 OFFCURVE",
"844 982 CURVE SMOOTH",
"921 982 LINE",
"824 433 LINE SMOOTH",
"796 273 OFFCURVE",
"699 205 OFFCURVE",
"580 205 CURVE SMOOTH",
"478 205 OFFCURVE",
"410 255 OFFCURVE",
"410 370 CURVE SMOOTH",
"410 389 OFFCURVE",
"412 410 OFFCURVE",
"416 433 CURVE SMOOTH",
"513 982 LINE",
"590 982 LINE SMOOTH",
"635 982 OFFCURVE",
"656 999 OFFCURVE",
"671 1084 CURVE SMOOTH",
"686 1169 OFFCURVE",
"671 1187 OFFCURVE",
"626 1187 CURVE SMOOTH",
"252 1187 LINE SMOOTH",
"207 1187 OFFCURVE",
"186 1169 OFFCURVE",
"171 1084 CURVE SMOOTH",
"156 999 OFFCURVE",
"171 982 OFFCURVE",
"216 982 CURVE SMOOTH",
"263 982 LINE",
"166 433 LINE SMOOTH",
"160 400 OFFCURVE",
"157 368 OFFCURVE",
"157 338 CURVE SMOOTH",
"157 114 OFFCURVE",
"313 -22 OFFCURVE",
"560 -22 CURVE SMOOTH",
"840 -22 OFFCURVE",
"1018 123 OFFCURVE",
"1068 403 CURVE SMOOTH",
"1171 982 LINE",
"1218 982 LINE SMOOTH",
"1263 982 OFFCURVE",
"1284 999 OFFCURVE",
"1299 1084 CURVE SMOOTH",
"1314 1169 OFFCURVE",
"1299 1187 OFFCURVE",
"1254 1187 CURVE SMOOTH"
);
}
);
width = 1228;
},
{
layerId = "38D47A70-C265-4203-8B70-C23C50FC2DCC";
name = "Regular Italic";
paths = (
{
closed = 1;
nodes = (
"910 1187 LINE SMOOTH",
"865 1187 OFFCURVE",
"844 1169 OFFCURVE",
"835 1119 CURVE SMOOTH",
"826 1069 OFFCURVE",
"841 1051 OFFCURVE",
"886 1051 CURVE SMOOTH",
"998 1051 LINE",
"885 413 LINE SMOOTH",
"849 205 OFFCURVE",
"748 126 OFFCURVE",
"566 126 CURVE SMOOTH",
"414 126 OFFCURVE",
"338 181 OFFCURVE",
"338 321 CURVE SMOOTH",
"338 348 OFFCURVE",
"341 379 OFFCURVE",
"347 413 CURVE SMOOTH",
"460 1051 LINE",
"572 1051 LINE SMOOTH",
"617 1051 OFFCURVE",
"638 1069 OFFCURVE",
"647 1119 CURVE SMOOTH",
"656 1169 OFFCURVE",
"641 1187 OFFCURVE",
"596 1187 CURVE SMOOTH",
"272 1187 LINE SMOOTH",
"227 1187 OFFCURVE",
"206 1169 OFFCURVE",
"197 1119 CURVE SMOOTH",
"188 1069 OFFCURVE",
"203 1051 OFFCURVE",
"248 1051 CURVE SMOOTH",
"310 1051 LINE",
"196 403 LINE SMOOTH",
"190 366 OFFCURVE",
"186 331 OFFCURVE",
"186 299 CURVE SMOOTH",
"186 84 OFFCURVE",
"329 -22 OFFCURVE",
"555 -22 CURVE SMOOTH",
"815 -22 OFFCURVE",
"980 98 OFFCURVE",
"1030 383 CURVE SMOOTH",
"1148 1051 LINE",
"1210 1051 LINE SMOOTH",
"1255 1051 OFFCURVE",
"1276 1069 OFFCURVE",
"1285 1119 CURVE SMOOTH",
"1294 1169 OFFCURVE",
"1279 1187 OFFCURVE",
"1234 1187 CURVE SMOOTH"
);
}
);
width = 1228;
}
);
unicode = 0055;
},
{
color = 3;
glyphname = Uogonek;
lastChange = "2014-11-22 20:01:54 +0000";
layers = (
{
background = {
paths = (
{
closed = 1;
nodes = (
"880 1187 LINE SMOOTH",
"835 1187 OFFCURVE",
"814 1169 OFFCURVE",
"799 1084 CURVE SMOOTH",
"784 999 OFFCURVE",
"799 982 OFFCURVE",
"844 982 CURVE SMOOTH",
"921 982 LINE",
"824 433 LINE SMOOTH",
"796 273 OFFCURVE",
"699 205 OFFCURVE",
"580 205 CURVE SMOOTH",
"478 205 OFFCURVE",
"410 255 OFFCURVE",
"410 370 CURVE SMOOTH",
"410 389 OFFCURVE",
"412 410 OFFCURVE",
"416 433 CURVE SMOOTH",
"513 982 LINE",
"590 982 LINE SMOOTH",
"635 982 OFFCURVE",
"656 999 OFFCURVE",
"671 1084 CURVE SMOOTH",
"686 1169 OFFCURVE",
"671 1187 OFFCURVE",
"626 1187 CURVE SMOOTH",
"252 1187 LINE SMOOTH",
"207 1187 OFFCURVE",
"186 1169 OFFCURVE",
"171 1084 CURVE SMOOTH",
"156 999 OFFCURVE",
"171 982 OFFCURVE",
"216 982 CURVE SMOOTH",
"263 982 LINE",
"166 433 LINE SMOOTH",
"160 400 OFFCURVE",
"157 368 OFFCURVE",
"157 338 CURVE SMOOTH",
"157 127 OFFCURVE",
"295 -6 OFFCURVE",
"518 -20 CURVE",
"403 -94 OFFCURVE",
"319 -184 OFFCURVE",
"319 -300 CURVE SMOOTH",
"319 -408 OFFCURVE",
"402 -472 OFFCURVE",
"541 -472 CURVE SMOOTH",
"620 -472 OFFCURVE",
"712 -457 OFFCURVE",
"778 -436 CURVE SMOOTH",
"808 -427 OFFCURVE",
"824 -400 OFFCURVE",
"818 -350 CURVE SMOOTH",
"812 -302 OFFCURVE",
"793 -280 OFFCURVE",
"766 -285 CURVE SMOOTH",
"726 -292 OFFCURVE",
"686 -298 OFFCURVE",
"647 -298 CURVE SMOOTH",
"598 -298 OFFCURVE",
"569 -280 OFFCURVE",
"569 -235 CURVE SMOOTH",
"569 -159 OFFCURVE",
"675 -67 OFFCURVE",
"808 27 CURVE",
"946 91 OFFCURVE",
"1035 218 OFFCURVE",
"1068 403 CURVE SMOOTH",
"1171 982 LINE",
"1218 982 LINE SMOOTH",
"1263 982 OFFCURVE",
"1284 999 OFFCURVE",
"1299 1084 CURVE SMOOTH",
"1314 1169 OFFCURVE",
"1299 1187 OFFCURVE",
"1254 1187 CURVE SMOOTH"
);
}
);
};
components = (
{
name = U;
transform = "{1, 0, 0, 1, 0, 0}";
},
{
name = ogonek;
transform = "{1, 0, 0, 1, 90, 0}";
}
);
layerId = UUID0;
name = "Bold Italic";
width = 1228;
},
{
background = {
paths = (
{
closed = 1;
nodes = (
"910 1187 LINE SMOOTH",
"865 1187 OFFCURVE",
"844 1169 OFFCURVE",
"835 1119 CURVE SMOOTH",
"826 1069 OFFCURVE",
"841 1051 OFFCURVE",
"886 1051 CURVE SMOOTH",
"998 1051 LINE",
"885 413 LINE SMOOTH",
"849 205 OFFCURVE",
"748 126 OFFCURVE",
"566 126 CURVE SMOOTH",
"414 126 OFFCURVE",
"338 181 OFFCURVE",
"338 321 CURVE SMOOTH",
"338 348 OFFCURVE",
"341 379 OFFCURVE",
"347 413 CURVE SMOOTH",
"460 1051 LINE",
"572 1051 LINE SMOOTH",
"617 1051 OFFCURVE",
"638 1069 OFFCURVE",
"647 1119 CURVE SMOOTH",
"656 1169 OFFCURVE",
"641 1187 OFFCURVE",
"596 1187 CURVE SMOOTH",
"272 1187 LINE SMOOTH",
"227 1187 OFFCURVE",
"206 1169 OFFCURVE",
"197 1119 CURVE SMOOTH",
"188 1069 OFFCURVE",
"203 1051 OFFCURVE",
"248 1051 CURVE SMOOTH",
"310 1051 LINE",
"196 403 LINE SMOOTH",
"190 366 OFFCURVE",
"186 331 OFFCURVE",
"186 299 CURVE SMOOTH",
"186 84 OFFCURVE",
"329 -22 OFFCURVE",
"555 -22 CURVE",
"442 -115 OFFCURVE",
"379 -208 OFFCURVE",
"379 -310 CURVE SMOOTH",
"379 -406 OFFCURVE",
"440 -472 OFFCURVE",
"547 -472 CURVE SMOOTH",
"611 -472 OFFCURVE",
"677 -460 OFFCURVE",
"726 -443 CURVE SMOOTH",
"757 -432 OFFCURVE",
"767 -411 OFFCURVE",
"762 -374 CURVE SMOOTH",
"757 -337 OFFCURVE",
"742 -322 OFFCURVE",
"715 -326 CURVE SMOOTH",
"679 -332 OFFCURVE",
"643 -336 OFFCURVE",
"604 -336 CURVE SMOOTH",
"564 -336 OFFCURVE",
"539 -316 OFFCURVE",
"539 -277 CURVE SMOOTH",
"539 -202 OFFCURVE",
"613 -109 OFFCURVE",
"777 17 CURVE",
"909 73 OFFCURVE",
"996 190 OFFCURVE",
"1030 383 CURVE SMOOTH",
"1148 1051 LINE",
"1210 1051 LINE SMOOTH",
"1255 1051 OFFCURVE",
"1276 1069 OFFCURVE",
"1285 1119 CURVE SMOOTH",
"1294 1169 OFFCURVE",
"1279 1187 OFFCURVE",
"1234 1187 CURVE SMOOTH"
);
}
);
};
components = (
{
name = U;
transform = "{1, 0, 0, 1, 0, 0}";
},
{
name = ogonek;
transform = "{1, 0, 0, 1, 90, 0}";
}
);
layerId = "38D47A70-C265-4203-8B70-C23C50FC2DCC";
name = "Regular Italic";
width = 1228;
}
);
unicode = 0172;
},
{
glyphname = V;
lastChange = "2015-01-03 15:18:27 +0000";
layers = (
{
layerId = UUID0;
name = "Bold Italic";
paths = (
{
closed = 1;
nodes = (
"902 1187 LINE SMOOTH",
"857 1187 OFFCURVE",
"836 1169 OFFCURVE",
"821 1084 CURVE SMOOTH",
"806 999 OFFCURVE",
"821 982 OFFCURVE",
"866 982 CURVE SMOOTH",
"937 982 LINE",
"600 369 LINE",
"493 982 LINE",
"582 982 LINE SMOOTH",
"627 982 OFFCURVE",
"648 999 OFFCURVE",
"663 1084 CURVE SMOOTH",
"678 1169 OFFCURVE",
"663 1187 OFFCURVE",
"618 1187 CURVE SMOOTH",
"192 1187 LINE SMOOTH",
"147 1187 OFFCURVE",
"126 1169 OFFCURVE",
"111 1084 CURVE SMOOTH",
"96 999 OFFCURVE",
"111 982 OFFCURVE",
"156 982 CURVE SMOOTH",
"233 982 LINE",
"417 43 LINE SMOOTH",
"426 -3 OFFCURVE",
"454 -22 OFFCURVE",
"537 -22 CURVE SMOOTH",
"620 -22 OFFCURVE",
"655 -4 OFFCURVE",
"681 43 CURVE SMOOTH",
"1210 982 LINE",
"1278 982 LINE SMOOTH",
"1323 982 OFFCURVE",
"1344 999 OFFCURVE",
"1359 1084 CURVE SMOOTH",
"1374 1169 OFFCURVE",
"1359 1187 OFFCURVE",
"1314 1187 CURVE SMOOTH"
);
}
);
width = 1228;
},
{
layerId = "38D47A70-C265-4203-8B70-C23C50FC2DCC";
name = "Regular Italic";
paths = (
{
closed = 1;
nodes = (
"960 1187 LINE SMOOTH",
"915 1187 OFFCURVE",
"894 1169 OFFCURVE",
"885 1119 CURVE SMOOTH",
"876 1069 OFFCURVE",
"891 1051 OFFCURVE",
"936 1051 CURVE SMOOTH",
"1033 1051 LINE",
"568 167 LINE",
"418 1051 LINE",
"562 1051 LINE SMOOTH",
"607 1051 OFFCURVE",
"628 1069 OFFCURVE",
"637 1119 CURVE SMOOTH",
"646 1169 OFFCURVE",
"631 1187 OFFCURVE",
"586 1187 CURVE SMOOTH",
"212 1187 LINE SMOOTH",
"167 1187 OFFCURVE",
"146 1169 OFFCURVE",
"137 1119 CURVE SMOOTH",
"128 1069 OFFCURVE",
"143 1051 OFFCURVE",
"188 1051 CURVE SMOOTH",
"267 1051 LINE",
"445 43 LINE SMOOTH",
"453 -3 OFFCURVE",
"483 -22 OFFCURVE",
"540 -22 CURVE SMOOTH",
"597 -22 OFFCURVE",
"634 -4 OFFCURVE",
"659 43 CURVE SMOOTH",
"1196 1051 LINE",
"1270 1051 LINE SMOOTH",
"1315 1051 OFFCURVE",
"1336 1069 OFFCURVE",
"1345 1119 CURVE SMOOTH",
"1354 1169 OFFCURVE",
"1339 1187 OFFCURVE",
"1294 1187 CURVE SMOOTH"
);
}
);
width = 1228;
}
);
unicode = 0056;
},
{
glyphname = W;
lastChange = "2015-01-03 15:18:27 +0000";
layers = (
{
layerId = UUID0;
name = "Bold Italic";
paths = (
{
closed = 1;
nodes = (
"940 1187 LINE SMOOTH",
"895 1187 OFFCURVE",
"874 1169 OFFCURVE",
"859 1084 CURVE SMOOTH",
"844 999 OFFCURVE",
"859 982 OFFCURVE",
"904 982 CURVE SMOOTH",
"1008 982 LINE",
"849 408 LINE",
"779 833 LINE SMOOTH",
"775 859 OFFCURVE",
"755 873 OFFCURVE",
"686 873 CURVE SMOOTH",
"618 873 OFFCURVE",
"598 852 OFFCURVE",
"584 826 CURVE SMOOTH",
"366 408 LINE",
"412 982 LINE",
"530 982 LINE SMOOTH",
"575 982 OFFCURVE",
"596 999 OFFCURVE",
"611 1084 CURVE SMOOTH",
"626 1169 OFFCURVE",
"611 1187 OFFCURVE",
"566 1187 CURVE SMOOTH",
"182 1187 LINE SMOOTH",
"137 1187 OFFCURVE",
"116 1169 OFFCURVE",
"101 1084 CURVE SMOOTH",
"86 999 OFFCURVE",
"101 982 OFFCURVE",
"146 982 CURVE SMOOTH",
"195 982 LINE",
"127 43 LINE SMOOTH",
"124 -5 OFFCURVE",
"144 -22 OFFCURVE",
"235 -22 CURVE SMOOTH",
"326 -22 OFFCURVE",
"361 -3 OFFCURVE",
"385 43 CURVE SMOOTH",
"630 514 LINE",
"707 43 LINE SMOOTH",
"715 -2 OFFCURVE",
"742 -22 OFFCURVE",
"833 -22 CURVE SMOOTH",
"924 -22 OFFCURVE",
"951 -6 OFFCURVE",
"965 43 CURVE SMOOTH",
"1233 982 LINE",
"1288 982 LINE SMOOTH",
"1333 982 OFFCURVE",
"1354 999 OFFCURVE",
"1369 1084 CURVE SMOOTH",
"1384 1169 OFFCURVE",
"1369 1187 OFFCURVE",
"1324 1187 CURVE SMOOTH"
);
}
);
width = 1228;
},
{
layerId = "38D47A70-C265-4203-8B70-C23C50FC2DCC";
name = "Regular Italic";
paths = (
{
closed = 1;
nodes = (
"990 1187 LINE SMOOTH",
"945 1187 OFFCURVE",
"924 1169 OFFCURVE",
"915 1119 CURVE SMOOTH",
"906 1069 OFFCURVE",
"921 1051 OFFCURVE",
"966 1051 CURVE SMOOTH",
"1090 1051 LINE",
"844 247 LINE",
"760 845 LINE SMOOTH",
"756 871 OFFCURVE",
"739 885 OFFCURVE",
"695 885 CURVE SMOOTH",
"652 885 OFFCURVE",
"627 864 OFFCURVE",
"614 838 CURVE SMOOTH",
"325 254 LINE",
"366 1051 LINE",
"512 1051 LINE SMOOTH",
"557 1051 OFFCURVE",
"578 1069 OFFCURVE",
"587 1119 CURVE SMOOTH",
"596 1169 OFFCURVE",
"581 1187 OFFCURVE",
"536 1187 CURVE SMOOTH",
"192 1187 LINE SMOOTH",
"147 1187 OFFCURVE",
"126 1169 OFFCURVE",
"117 1119 CURVE SMOOTH",
"108 1069 OFFCURVE",
"123 1051 OFFCURVE",
"168 1051 CURVE SMOOTH",
"221 1051 LINE",
"176 43 LINE SMOOTH",
"174 -5 OFFCURVE",
"198 -22 OFFCURVE",
"249 -22 CURVE SMOOTH",
"300 -22 OFFCURVE",
"341 -3 OFFCURVE",
"364 43 CURVE SMOOTH",
"654 624 LINE",
"736 43 LINE SMOOTH",
"742 -3 OFFCURVE",
"776 -22 OFFCURVE",
"827 -22 CURVE SMOOTH",
"878 -22 OFFCURVE",
"908 -6 OFFCURVE",
"924 43 CURVE SMOOTH",
"1240 1051 LINE",
"1290 1051 LINE SMOOTH",
"1335 1051 OFFCURVE",
"1356 1069 OFFCURVE",
"1365 1119 CURVE SMOOTH",
"1374 1169 OFFCURVE",
"1359 1187 OFFCURVE",
"1314 1187 CURVE SMOOTH"
);
}
);
width = 1228;
}
);
unicode = 0057;
},
{
glyphname = X;
lastChange = "2015-01-05 21:29:55 +0000";
layers = (
{
layerId = UUID0;
name = "Bold Italic";
paths = (
{
closed = 1;
nodes = (
"946 1083 LINE",
"598 684 LINE",
"515 650 LINE",
"34 107 LINE",
"329 107 LINE",
"711 543 LINE",
"797 579 LINE",
"1241 1083 LINE"
);
},
{
closed = 1;
nodes = (
"59 205 LINE SMOOTH",
"14 205 OFFCURVE",
"-8 187 OFFCURVE",
"-23 102 CURVE SMOOTH",
"-38 17 OFFCURVE",
"-22 0 OFFCURVE",
"23 0 CURVE SMOOTH",
"415 0 LINE SMOOTH",
"460 0 OFFCURVE",
"480 17 OFFCURVE",
"495 102 CURVE SMOOTH",
"510 187 OFFCURVE",
"496 205 OFFCURVE",
"451 205 CURVE SMOOTH"
);
},
{
closed = 1;
nodes = (
"705 205 LINE SMOOTH",
"660 205 OFFCURVE",
"638 187 OFFCURVE",
"623 102 CURVE SMOOTH",
"608 17 OFFCURVE",
"624 0 OFFCURVE",
"669 0 CURVE SMOOTH",
"1065 0 LINE SMOOTH",
"1110 0 OFFCURVE",
"1130 17 OFFCURVE",
"1145 102 CURVE SMOOTH",
"1160 187 OFFCURVE",
"1146 205 OFFCURVE",
"1101 205 CURVE SMOOTH"
);
},
{
closed = 1;
nodes = (
"243 1083 LINE",
"519 577 LINE",
"568 545 LINE",
"801 107 LINE",
"1084 107 LINE",
"792 636 LINE",
"739 664 LINE",
"520 1083 LINE"
);
},
{
closed = 1;
nodes = (
"262 1187 LINE SMOOTH",
"217 1187 OFFCURVE",
"196 1169 OFFCURVE",
"181 1084 CURVE SMOOTH",
"166 999 OFFCURVE",
"181 982 OFFCURVE",
"226 982 CURVE SMOOTH",
"614 982 LINE SMOOTH",
"659 982 OFFCURVE",
"680 999 OFFCURVE",
"695 1084 CURVE SMOOTH",
"710 1169 OFFCURVE",
"695 1187 OFFCURVE",
"650 1187 CURVE SMOOTH"
);
},
{
closed = 1;
nodes = (
"874 1187 LINE SMOOTH",
"829 1187 OFFCURVE",
"808 1169 OFFCURVE",
"793 1084 CURVE SMOOTH",
"778 999 OFFCURVE",
"793 982 OFFCURVE",
"838 982 CURVE SMOOTH",
"1208 982 LINE SMOOTH",
"1253 982 OFFCURVE",
"1274 999 OFFCURVE",
"1289 1084 CURVE SMOOTH",
"1304 1169 OFFCURVE",
"1289 1187 OFFCURVE",
"1244 1187 CURVE SMOOTH"
);
}
);
width = 1228;
},
{
background = {
paths = (
{
closed = 1;
nodes = (
"959 1063 LINE",
"656 718 LINE",
"635 707 LINE",
"109 124 LINE",
"304 124 LINE",
"674 539 LINE",
"689 542 LINE",
"1154 1063 LINE"
);
},
{
closed = 1;
nodes = (
"66 136 LINE SMOOTH",
"21 136 OFFCURVE",
"0 118 OFFCURVE",
"-9 68 CURVE SMOOTH",
"-17 18 OFFCURVE",
"-2 0 OFFCURVE",
"43 0 CURVE SMOOTH",
"367 0 LINE SMOOTH",
"412 0 OFFCURVE",
"433 18 OFFCURVE",
"441 68 CURVE SMOOTH",
"450 118 OFFCURVE",
"435 136 OFFCURVE",
"390 136 CURVE SMOOTH"
);
},
{
closed = 1;
nodes = (
"714 136 LINE SMOOTH",
"669 136 OFFCURVE",
"648 118 OFFCURVE",
"639 68 CURVE SMOOTH",
"631 18 OFFCURVE",
"646 0 OFFCURVE",
"691 0 CURVE SMOOTH",
"1045 0 LINE SMOOTH",
"1090 0 OFFCURVE",
"1111 18 OFFCURVE",
"1119 68 CURVE SMOOTH",
"1128 118 OFFCURVE",
"1113 136 OFFCURVE",
"1068 136 CURVE SMOOTH"
);
},
{
closed = 1;
nodes = (
"327 1065 LINE",
"601 562 LINE",
"626 528 LINE",
"838 122 LINE",
"1010 122 LINE",
"718 661 LINE",
"703 674 LINE",
"498 1065 LINE"
);
},
{
closed = 1;
nodes = (
"282 1187 LINE SMOOTH",
"237 1187 OFFCURVE",
"216 1169 OFFCURVE",
"207 1119 CURVE SMOOTH",
"198 1069 OFFCURVE",
"213 1051 OFFCURVE",
"258 1051 CURVE SMOOTH",
"602 1051 LINE SMOOTH",
"647 1051 OFFCURVE",
"668 1069 OFFCURVE",
"677 1119 CURVE SMOOTH",
"686 1169 OFFCURVE",
"671 1187 OFFCURVE",
"626 1187 CURVE SMOOTH"
);
},
{
closed = 1;
nodes = (
"920 1187 LINE SMOOTH",
"875 1187 OFFCURVE",
"854 1169 OFFCURVE",
"845 1119 CURVE SMOOTH",
"836 1069 OFFCURVE",
"851 1051 OFFCURVE",
"896 1051 CURVE SMOOTH",
"1200 1051 LINE SMOOTH",
"1245 1051 OFFCURVE",
"1266 1069 OFFCURVE",
"1275 1119 CURVE SMOOTH",
"1284 1169 OFFCURVE",
"1269 1187 OFFCURVE",
"1224 1187 CURVE SMOOTH"
);
}
);
};
layerId = "38D47A70-C265-4203-8B70-C23C50FC2DCC";
name = "Regular Italic";
paths = (
{
closed = 1;
nodes = (
"961 1063 LINE",
"658 718 LINE",
"635 707 LINE",
"109 124 LINE",
"302 124 LINE",
"672 539 LINE",
"689 542 LINE",
"1154 1063 LINE"
);
},
{
closed = 1;
nodes = (
"66 136 LINE SMOOTH",
"21 136 OFFCURVE",
"0 118 OFFCURVE",
"-9 68 CURVE SMOOTH",
"-17 18 OFFCURVE",
"-2 0 OFFCURVE",
"43 0 CURVE SMOOTH",
"377 0 LINE SMOOTH",
"422 0 OFFCURVE",
"443 18 OFFCURVE",
"451 68 CURVE SMOOTH",
"460 118 OFFCURVE",
"445 136 OFFCURVE",
"400 136 CURVE SMOOTH"
);
},
{
closed = 1;
nodes = (
"724 136 LINE SMOOTH",
"679 136 OFFCURVE",
"658 118 OFFCURVE",
"649 68 CURVE SMOOTH",
"641 18 OFFCURVE",
"656 0 OFFCURVE",
"701 0 CURVE SMOOTH",
"1045 0 LINE SMOOTH",
"1090 0 OFFCURVE",
"1111 18 OFFCURVE",
"1119 68 CURVE SMOOTH",
"1128 118 OFFCURVE",
"1113 136 OFFCURVE",
"1068 136 CURVE SMOOTH"
);
},
{
closed = 1;
nodes = (
"327 1065 LINE",
"599 562 LINE",
"626 528 LINE",
"836 122 LINE",
"1010 122 LINE",
"720 661 LINE",
"703 674 LINE",
"500 1065 LINE"
);
},
{
closed = 1;
nodes = (
"282 1187 LINE SMOOTH",
"237 1187 OFFCURVE",
"216 1169 OFFCURVE",
"207 1119 CURVE SMOOTH",
"198 1069 OFFCURVE",
"213 1051 OFFCURVE",
"258 1051 CURVE SMOOTH",
"592 1051 LINE SMOOTH",
"637 1051 OFFCURVE",
"658 1069 OFFCURVE",
"667 1119 CURVE SMOOTH",
"676 1169 OFFCURVE",
"661 1187 OFFCURVE",
"616 1187 CURVE SMOOTH"
);
},
{
closed = 1;
nodes = (
"910 1187 LINE SMOOTH",
"865 1187 OFFCURVE",
"844 1169 OFFCURVE",
"835 1119 CURVE SMOOTH",
"826 1069 OFFCURVE",
"841 1051 OFFCURVE",
"886 1051 CURVE SMOOTH",
"1200 1051 LINE SMOOTH",
"1245 1051 OFFCURVE",
"1266 1069 OFFCURVE",
"1275 1119 CURVE SMOOTH",
"1284 1169 OFFCURVE",
"1269 1187 OFFCURVE",
"1224 1187 CURVE SMOOTH"
);
}
);
width = 1228;
}
);
unicode = 0058;
},
{
glyphname = Y;
lastChange = "2015-01-03 15:18:27 +0000";
layers = (
{
layerId = UUID0;
name = "Bold Italic";
paths = (
{
closed = 1;
nodes = (
"880 1187 LINE SMOOTH",
"835 1187 OFFCURVE",
"814 1169 OFFCURVE",
"799 1084 CURVE SMOOTH",
"784 999 OFFCURVE",
"799 982 OFFCURVE",
"844 982 CURVE SMOOTH",
"896 982 LINE",
"657 690 LINE",
"523 982 LINE",
"590 982 LINE SMOOTH",
"635 982 OFFCURVE",
"656 999 OFFCURVE",
"671 1084 CURVE SMOOTH",
"686 1169 OFFCURVE",
"671 1187 OFFCURVE",
"626 1187 CURVE SMOOTH",
"242 1187 LINE SMOOTH",
"197 1187 OFFCURVE",
"176 1169 OFFCURVE",
"161 1084 CURVE SMOOTH",
"146 999 OFFCURVE",
"161 982 OFFCURVE",
"206 982 CURVE SMOOTH",
"256 982 LINE",
"501 467 LINE",
"455 205 LINE",
"269 205 LINE SMOOTH",
"224 205 OFFCURVE",
"202 187 OFFCURVE",
"187 102 CURVE SMOOTH",
"172 17 OFFCURVE",
"188 0 OFFCURVE",
"233 0 CURVE SMOOTH",
"875 0 LINE SMOOTH",
"920 0 OFFCURVE",
"940 17 OFFCURVE",
"955 102 CURVE SMOOTH",
"970 187 OFFCURVE",
"956 205 OFFCURVE",
"911 205 CURVE SMOOTH",
"705 205 LINE",
"750 460 LINE",
"1183 982 LINE",
"1228 982 LINE SMOOTH",
"1273 982 OFFCURVE",
"1294 999 OFFCURVE",
"1309 1084 CURVE SMOOTH",
"1324 1169 OFFCURVE",
"1309 1187 OFFCURVE",
"1264 1187 CURVE SMOOTH"
);
}
);
width = 1228;
},
{
layerId = "38D47A70-C265-4203-8B70-C23C50FC2DCC";
name = "Regular Italic";
paths = (
{
closed = 1;
nodes = (
"940 1187 LINE SMOOTH",
"895 1187 OFFCURVE",
"874 1169 OFFCURVE",
"865 1119 CURVE SMOOTH",
"856 1069 OFFCURVE",
"871 1051 OFFCURVE",
"916 1051 CURVE SMOOTH",
"977 1051 LINE",
"653 642 LINE",
"475 1051 LINE",
"572 1051 LINE SMOOTH",
"617 1051 OFFCURVE",
"638 1069 OFFCURVE",
"647 1119 CURVE SMOOTH",
"656 1169 OFFCURVE",
"641 1187 OFFCURVE",
"596 1187 CURVE SMOOTH",
"262 1187 LINE SMOOTH",
"217 1187 OFFCURVE",
"196 1169 OFFCURVE",
"187 1119 CURVE SMOOTH",
"178 1069 OFFCURVE",
"193 1051 OFFCURVE",
"238 1051 CURVE SMOOTH",
"312 1051 LINE",
"556 499 LINE",
"492 136 LINE",
"276 136 LINE SMOOTH",
"231 136 OFFCURVE",
"210 118 OFFCURVE",
"201 68 CURVE SMOOTH",
"193 18 OFFCURVE",
"208 0 OFFCURVE",
"253 0 CURVE SMOOTH",
"855 0 LINE SMOOTH",
"900 0 OFFCURVE",
"921 18 OFFCURVE",
"929 68 CURVE SMOOTH",
"938 118 OFFCURVE",
"923 136 OFFCURVE",
"878 136 CURVE SMOOTH",
"642 136 LINE",
"704 486 LINE",
"1156 1051 LINE",
"1220 1051 LINE SMOOTH",
"1265 1051 OFFCURVE",
"1286 1069 OFFCURVE",
"1295 1119 CURVE SMOOTH",
"1304 1169 OFFCURVE",
"1289 1187 OFFCURVE",
"1244 1187 CURVE SMOOTH"
);
}
);
width = 1228;
}
);
unicode = 0059;
},
{
glyphname = Z;
lastChange = "2015-01-03 15:18:27 +0000";
layers = (
{
layerId = UUID0;
name = "Bold Italic";
paths = (
{
closed = 1;
nodes = (
"362 1187 LINE SMOOTH",
"316 1187 OFFCURVE",
"293 1168 OFFCURVE",
"285 1122 CURVE SMOOTH",
"223 770 LINE SMOOTH",
"215 725 OFFCURVE",
"235 707 OFFCURVE",
"320 707 CURVE SMOOTH",
"405 707 OFFCURVE",
"445 725 OFFCURVE",
"453 770 CURVE SMOOTH",
"489 972 LINE",
"813 972 LINE",
"132 195 LINE SMOOTH",
"115 176 OFFCURVE",
"103 147 OFFCURVE",
"95 102 CURVE SMOOTH",
"80 17 OFFCURVE",
"96 0 OFFCURVE",
"141 0 CURVE SMOOTH",
"955 0 LINE SMOOTH",
"1001 0 OFFCURVE",
"1023 19 OFFCURVE",
"1031 65 CURVE SMOOTH",
"1097 437 LINE SMOOTH",
"1104 482 OFFCURVE",
"1085 500 OFFCURVE",
"1000 500 CURVE SMOOTH",
"915 500 OFFCURVE",
"874 482 OFFCURVE",
"867 437 CURVE SMOOTH",
"827 215 LINE",
"470 215 LINE",
"1151 992 LINE SMOOTH",
"1169 1013 OFFCURVE",
"1183 1041 OFFCURVE",
"1191 1084 CURVE SMOOTH",
"1206 1169 OFFCURVE",
"1191 1187 OFFCURVE",
"1146 1187 CURVE SMOOTH"
);
}
);
width = 1228;
},
{
layerId = "38D47A70-C265-4203-8B70-C23C50FC2DCC";
name = "Regular Italic";
paths = (
{
closed = 1;
nodes = (
"380 1187 LINE SMOOTH",
"335 1187 OFFCURVE",
"314 1169 OFFCURVE",
"305 1119 CURVE SMOOTH",
"249 802 LINE SMOOTH",
"241 756 OFFCURVE",
"256 737 OFFCURVE",
"312 737 CURVE SMOOTH",
"368 737 OFFCURVE",
"391 756 OFFCURVE",
"399 802 CURVE SMOOTH",
"443 1051 LINE",
"935 1051 LINE",
"140 111 LINE SMOOTH",
"130 99 OFFCURVE",
"122 86 OFFCURVE",
"118 68 CURVE SMOOTH",
"110 18 OFFCURVE",
"125 0 OFFCURVE",
"170 0 CURVE SMOOTH",
"936 0 LINE SMOOTH",
"981 0 OFFCURVE",
"1002 18 OFFCURVE",
"1010 68 CURVE SMOOTH",
"1070 405 LINE SMOOTH",
"1078 451 OFFCURVE",
"1062 470 OFFCURVE",
"1006 470 CURVE SMOOTH",
"950 470 OFFCURVE",
"928 451 OFFCURVE",
"920 405 CURVE SMOOTH",
"872 136 LINE",
"350 136 LINE",
"1150 1080 LINE SMOOTH",
"1159 1090 OFFCURVE",
"1164 1103 OFFCURVE",
"1167 1119 CURVE SMOOTH",
"1176 1169 OFFCURVE",
"1161 1187 OFFCURVE",
"1116 1187 CURVE SMOOTH"
);
}
);
width = 1228;
}
);
unicode = 005A;
},
{
glyphname = a;
lastChange = "2015-01-14 13:49:10 +0000";
layers = (
{
background = {
paths = (
{
closed = 1;
nodes = (
"268 946 OFFCURVE",
"103 632 OFFCURVE",
"103 380 CURVE SMOOTH",
"103 148 OFFCURVE",
"240 -22 OFFCURVE",
"474 -22 CURVE SMOOTH",
"590 -22 OFFCURVE",
"707 25 OFFCURVE",
"805 127 CURVE",
"820 33 OFFCURVE",
"892 0 OFFCURVE",
"971 0 CURVE SMOOTH",
"1066 0 LINE SMOOTH",
"1111 0 OFFCURVE",
"1131 17 OFFCURVE",
"1146 102 CURVE SMOOTH",
"1161 187 OFFCURVE",
"1147 205 OFFCURVE",
"1102 205 CURVE SMOOTH",
"1073 205 LINE SMOOTH",
"1030 205 OFFCURVE",
"1012 237 OFFCURVE",
"1022 290 CURVE SMOOTH",
"1124 871 LINE SMOOTH",
"1132 916 OFFCURVE",
"1112 934 OFFCURVE",
"1037 934 CURVE SMOOTH",
"962 934 OFFCURVE",
"922 916 OFFCURVE",
"914 871 CURVE SMOOTH",
"898 777 LINE",
"848 882 OFFCURVE",
"742 946 OFFCURVE",
"614 946 CURVE SMOOTH"
);
},
{
closed = 1;
nodes = (
"733 719 OFFCURVE",
"815 650 OFFCURVE",
"815 522 CURVE SMOOTH",
"815 375 OFFCURVE",
"714 205 OFFCURVE",
"534 205 CURVE SMOOTH",
"429 205 OFFCURVE",
"369 276 OFFCURVE",
"369 391 CURVE SMOOTH",
"369 520 OFFCURVE",
"442 719 OFFCURVE",
"624 719 CURVE SMOOTH"
);
}
);
};
layerId = UUID0;
name = "Bold Italic";
paths = (
{
closed = 1;
nodes = (
"271 946 OFFCURVE",
"106 632 OFFCURVE",
"106 380 CURVE SMOOTH",
"106 144 OFFCURVE",
"245 -22 OFFCURVE",
"464 -22 CURVE SMOOTH",
"620 -22 OFFCURVE",
"751 37 OFFCURVE",
"861 171 CURVE",
"816 181 LINE",
"835 52 OFFCURVE",
"928 0 OFFCURVE",
"1051 0 CURVE SMOOTH",
"1075 0 LINE SMOOTH",
"1120 0 OFFCURVE",
"1143 20 OFFCURVE",
"1158 113 CURVE SMOOTH",
"1173 206 OFFCURVE",
"1160 225 OFFCURVE",
"1115 225 CURVE SMOOTH",
"1110 225 LINE SMOOTH",
"1047 225 OFFCURVE",
"1016 261 OFFCURVE",
"1032 350 CURVE SMOOTH",
"1122 861 LINE SMOOTH",
"1130 906 OFFCURVE",
"1115 924 OFFCURVE",
"1070 924 CURVE SMOOTH",
"976 924 LINE SMOOTH",
"931 924 OFFCURVE",
"909 906 OFFCURVE",
"902 861 CURVE SMOOTH",
"889 782 LINE",
"840 881 OFFCURVE",
"737 946 OFFCURVE",
"614 946 CURVE SMOOTH"
);
},
{
closed = 1;
nodes = (
"734 718 OFFCURVE",
"815 647 OFFCURVE",
"815 522 CURVE SMOOTH",
"815 377 OFFCURVE",
"715 206 OFFCURVE",
"535 206 CURVE SMOOTH",
"430 206 OFFCURVE",
"372 279 OFFCURVE",
"372 391 CURVE SMOOTH",
"372 525 OFFCURVE",
"443 718 OFFCURVE",
"625 718 CURVE SMOOTH"
);
}
);
width = 1228;
},
{
background = {
paths = (
{
closed = 1;
nodes = (
"292 946 OFFCURVE",
"131 625 OFFCURVE",
"131 366 CURVE SMOOTH",
"131 127 OFFCURVE",
"280 -22 OFFCURVE",
"495 -22 CURVE SMOOTH",
"623 -22 OFFCURVE",
"739 34 OFFCURVE",
"840 143 CURVE",
"846 55 OFFCURVE",
"904 0 OFFCURVE",
"986 0 CURVE SMOOTH",
"1037 0 LINE SMOOTH",
"1082 0 OFFCURVE",
"1103 18 OFFCURVE",
"1111 68 CURVE SMOOTH",
"1120 118 OFFCURVE",
"1105 136 OFFCURVE",
"1060 136 CURVE SMOOTH",
"1035 136 LINE SMOOTH",
"998 136 OFFCURVE",
"984 160 OFFCURVE",
"991 201 CURVE SMOOTH",
"1109 869 LINE SMOOTH",
"1117 915 OFFCURVE",
"1106 934 OFFCURVE",
"1050 934 CURVE SMOOTH",
"994 934 OFFCURVE",
"977 915 OFFCURVE",
"969 869 CURVE SMOOTH",
"950 766 LINE",
"887 873 OFFCURVE",
"782 946 OFFCURVE",
"645 946 CURVE SMOOTH"
);
},
{
closed = 1;
nodes = (
"793 798 OFFCURVE",
"894 705 OFFCURVE",
"894 541 CURVE SMOOTH",
"894 335 OFFCURVE",
"758 126 OFFCURVE",
"521 126 CURVE SMOOTH",
"368 126 OFFCURVE",
"288 226 OFFCURVE",
"288 375 CURVE SMOOTH",
"288 581 OFFCURVE",
"414 798 OFFCURVE",
"639 798 CURVE SMOOTH"
);
}
);
};
layerId = "38D47A70-C265-4203-8B70-C23C50FC2DCC";
name = "Regular Italic";
paths = (
{
closed = 1;
nodes = (
"305 946 OFFCURVE",
"141 625 OFFCURVE",
"141 366 CURVE SMOOTH",
"141 127 OFFCURVE",
"293 -22 OFFCURVE",
"502 -22 CURVE SMOOTH",
"653 -22 OFFCURVE",
"770 50 OFFCURVE",
"864 184 CURVE",
"859 196 LINE",
"859 69 OFFCURVE",
"933 0 OFFCURVE",
"1042 0 CURVE SMOOTH",
"1053 0 LINE SMOOTH",
"1098 0 OFFCURVE",
"1119 20 OFFCURVE",
"1129 72 CURVE SMOOTH",
"1138 124 OFFCURVE",
"1123 144 OFFCURVE",
"1078 144 CURVE SMOOTH",
"1073 144 LINE SMOOTH",
"1012 144 OFFCURVE",
"975 188 OFFCURVE",
"991 279 CURVE SMOOTH",
"1095 869 LINE SMOOTH",
"1103 915 OFFCURVE",
"1088 934 OFFCURVE",
"1035 934 CURVE SMOOTH",
"1033 934 LINE SMOOTH",
"980 934 OFFCURVE",
"963 915 OFFCURVE",
"955 869 CURVE SMOOTH",
"936 766 LINE",
"877 874 OFFCURVE",
"779 946 OFFCURVE",
"651 946 CURVE SMOOTH"
);
},
{
closed = 1;
nodes = (
"787 798 OFFCURVE",
"880 705 OFFCURVE",
"880 541 CURVE SMOOTH",
"880 339 OFFCURVE",
"731 126 OFFCURVE",
"524 126 CURVE SMOOTH",
"378 126 OFFCURVE",
"298 226 OFFCURVE",
"298 375 CURVE SMOOTH",
"298 581 OFFCURVE",
"426 798 OFFCURVE",
"645 798 CURVE SMOOTH"
);
}
);
width = 1228;
}
);
unicode = 0061;
},
{
color = 3;
glyphname = aogonek;
lastChange = "2015-01-14 13:50:19 +0000";
layers = (
{
background = {
paths = (
{
closed = 1;
nodes = (
"248 946 OFFCURVE",
"83 632 OFFCURVE",
"83 380 CURVE SMOOTH",
"83 156 OFFCURVE",
"220 -22 OFFCURVE",
"454 -22 CURVE SMOOTH",
"570 -22 OFFCURVE",
"687 25 OFFCURVE",
"785 127 CURVE",
"794 69 OFFCURVE",
"825 34 OFFCURVE",
"866 16 CURVE",
"720 -64 OFFCURVE",
"605 -164 OFFCURVE",
"605 -300 CURVE SMOOTH",
"605 -408 OFFCURVE",
"688 -472 OFFCURVE",
"827 -472 CURVE SMOOTH",
"906 -472 OFFCURVE",
"998 -457 OFFCURVE",
"1064 -436 CURVE SMOOTH",
"1094 -427 OFFCURVE",
"1110 -400 OFFCURVE",
"1104 -350 CURVE SMOOTH",
"1098 -302 OFFCURVE",
"1079 -280 OFFCURVE",
"1052 -285 CURVE SMOOTH",
"1012 -292 OFFCURVE",
"972 -298 OFFCURVE",
"933 -298 CURVE SMOOTH",
"884 -298 OFFCURVE",
"855 -280 OFFCURVE",
"855 -235 CURVE SMOOTH",
"855 -166 OFFCURVE",
"941 -84 OFFCURVE",
"1056 0 CURVE",
"1094 3 OFFCURVE",
"1112 24 OFFCURVE",
"1126 102 CURVE SMOOTH",
"1141 187 OFFCURVE",
"1127 205 OFFCURVE",
"1082 205 CURVE SMOOTH",
"1053 205 LINE SMOOTH",
"1010 205 OFFCURVE",
"992 237 OFFCURVE",
"1002 290 CURVE",
"1104 871 LINE SMOOTH",
"1112 916 OFFCURVE",
"1092 934 OFFCURVE",
"1017 934 CURVE SMOOTH",
"942 934 OFFCURVE",
"902 916 OFFCURVE",
"894 871 CURVE SMOOTH",
"878 777 LINE",
"828 882 OFFCURVE",
"722 946 OFFCURVE",
"594 946 CURVE SMOOTH"
);
},
{
closed = 1;
nodes = (
"713 719 OFFCURVE",
"795 650 OFFCURVE",
"795 522 CURVE SMOOTH",
"795 375 OFFCURVE",
"694 205 OFFCURVE",
"514 205 CURVE SMOOTH",
"409 205 OFFCURVE",
"349 276 OFFCURVE",
"349 391 CURVE SMOOTH",
"349 520 OFFCURVE",
"422 719 OFFCURVE",
"604 719 CURVE SMOOTH"
);
}
);
};
components = (
{
name = a;
transform = "{1, 0, 0, 1, 0, 0}";
},
{
name = ogonek;
transform = "{1, 0, 0, 1, 411, 0}";
}
);
layerId = UUID0;
name = "Bold Italic";
width = 1228;
},
{
background = {
paths = (
{
closed = 1;
nodes = (
"282 946 OFFCURVE",
"121 625 OFFCURVE",
"121 366 CURVE SMOOTH",
"121 127 OFFCURVE",
"270 -22 OFFCURVE",
"485 -22 CURVE SMOOTH",
"613 -22 OFFCURVE",
"729 34 OFFCURVE",
"830 143 CURVE",
"833 88 OFFCURVE",
"857 47 OFFCURVE",
"894 23 CURVE",
"745 -86 OFFCURVE",
"659 -192 OFFCURVE",
"659 -310 CURVE SMOOTH",
"659 -406 OFFCURVE",
"720 -472 OFFCURVE",
"827 -472 CURVE SMOOTH",
"891 -472 OFFCURVE",
"957 -460 OFFCURVE",
"1006 -443 CURVE SMOOTH",
"1037 -432 OFFCURVE",
"1047 -411 OFFCURVE",
"1042 -374 CURVE SMOOTH",
"1037 -337 OFFCURVE",
"1022 -322 OFFCURVE",
"995 -326 CURVE SMOOTH",
"959 -332 OFFCURVE",
"923 -336 OFFCURVE",
"884 -336 CURVE SMOOTH",
"844 -336 OFFCURVE",
"819 -316 OFFCURVE",
"819 -277 CURVE SMOOTH",
"819 -205 OFFCURVE",
"887 -117 OFFCURVE",
"1035 0 CURVE",
"1074 2 OFFCURVE",
"1093 21 OFFCURVE",
"1101 68 CURVE SMOOTH",
"1110 118 OFFCURVE",
"1095 136 OFFCURVE",
"1050 136 CURVE SMOOTH",
"1025 136 LINE SMOOTH",
"988 136 OFFCURVE",
"974 160 OFFCURVE",
"981 201 CURVE SMOOTH",
"1099 869 LINE SMOOTH",
"1107 915 OFFCURVE",
"1096 934 OFFCURVE",
"1040 934 CURVE SMOOTH",
"984 934 OFFCURVE",
"967 915 OFFCURVE",
"959 869 CURVE SMOOTH",
"940 766 LINE",
"877 873 OFFCURVE",
"772 946 OFFCURVE",
"635 946 CURVE SMOOTH"
);
},
{
closed = 1;
nodes = (
"783 798 OFFCURVE",
"884 705 OFFCURVE",
"884 541 CURVE SMOOTH",
"884 335 OFFCURVE",
"748 126 OFFCURVE",
"511 126 CURVE SMOOTH",
"358 126 OFFCURVE",
"278 226 OFFCURVE",
"278 375 CURVE SMOOTH",
"278 581 OFFCURVE",
"404 798 OFFCURVE",
"629 798 CURVE SMOOTH"
);
}
);
};
components = (
{
name = a;
transform = "{1, 0, 0, 1, 0, 0}";
},
{
name = ogonek;
transform = "{1, 0, 0, 1, 408, 0}";
}
);
layerId = "38D47A70-C265-4203-8B70-C23C50FC2DCC";
name = "Regular Italic";
width = 1228;
}
);
unicode = 0105;
},
{
glyphname = ae;
lastChange = "2015-01-03 15:19:36 +0000";
layers = (
{
layerId = UUID0;
name = "Bold Italic";
paths = (
{
closed = 1;
nodes = (
"841 946 OFFCURVE",
"758 910 OFFCURVE",
"694 852 CURVE",
"653 911 OFFCURVE",
"582 946 OFFCURVE",
"469 946 CURVE SMOOTH",
"372 946 OFFCURVE",
"263 916 OFFCURVE",
"162 862 CURVE SMOOTH",
"125 842 OFFCURVE",
"112 803 OFFCURVE",
"137 740 CURVE SMOOTH",
"167 663 OFFCURVE",
"197 649 OFFCURVE",
"236 667 CURVE SMOOTH",
"297 696 OFFCURVE",
"359 719 OFFCURVE",
"421 719 CURVE SMOOTH",
"506 719 OFFCURVE",
"545 684 OFFCURVE",
"545 620 CURVE SMOOTH",
"545 608 OFFCURVE",
"543 594 OFFCURVE",
"542 588 CURVE SMOOTH",
"541 582 LINE",
"507 586 OFFCURVE",
"473 588 OFFCURVE",
"442 588 CURVE SMOOTH",
"169 588 OFFCURVE",
"6 451 OFFCURVE",
"6 221 CURVE SMOOTH",
"6 72 OFFCURVE",
"112 -22 OFFCURVE",
"271 -22 CURVE SMOOTH",
"384 -22 OFFCURVE",
"492 18 OFFCURVE",
"570 102 CURVE",
"609 24 OFFCURVE",
"679 -22 OFFCURVE",
"789 -22 CURVE SMOOTH",
"896 -22 OFFCURVE",
"996 10 OFFCURVE",
"1093 49 CURVE SMOOTH",
"1143 69 OFFCURVE",
"1154 99 OFFCURVE",
"1132 179 CURVE SMOOTH",
"1110 259 OFFCURVE",
"1086 273 OFFCURVE",
"1040 255 CURVE SMOOTH",
"960 224 OFFCURVE",
"899 205 OFFCURVE",
"824 205 CURVE SMOOTH",
"756 205 OFFCURVE",
"717 249 OFFCURVE",
"717 332 CURVE SMOOTH",
"717 346 OFFCURVE",
"718 361 OFFCURVE",
"719 370 CURVE",
"1125 370 LINE SMOOTH",
"1170 370 OFFCURVE",
"1191 387 OFFCURVE",
"1199 432 CURVE SMOOTH",
"1210 497 OFFCURVE",
"1217 558 OFFCURVE",
"1217 614 CURVE SMOOTH",
"1217 813 OFFCURVE",
"1138 946 OFFCURVE",
"934 946 CURVE SMOOTH"
);
},
{
closed = 1;
nodes = (
"502 358 LINE SMOOTH",
"485 261 OFFCURVE",
"416 189 OFFCURVE",
"321 189 CURVE SMOOTH",
"265 189 OFFCURVE",
"238 216 OFFCURVE",
"238 260 CURVE SMOOTH",
"238 355 OFFCURVE",
"307 393 OFFCURVE",
"438 393 CURVE SMOOTH",
"459 393 OFFCURVE",
"482 392 OFFCURVE",
"507 390 CURVE"
);
},
{
closed = 1;
nodes = (
"972 719 OFFCURVE",
"1000 677 OFFCURVE",
"1000 605 CURVE SMOOTH",
"1000 592 OFFCURVE",
"999 579 OFFCURVE",
"997 565 CURVE",
"753 565 LINE",
"785 669 OFFCURVE",
"833 719 OFFCURVE",
"914 719 CURVE SMOOTH"
);
}
);
width = 1228;
},
{
layerId = "38D47A70-C265-4203-8B70-C23C50FC2DCC";
name = "Regular Italic";
paths = (
{
closed = 1;
nodes = (
"845 946 OFFCURVE",
"761 907 OFFCURVE",
"695 830 CURVE",
"665 903 OFFCURVE",
"601 946 OFFCURVE",
"494 946 CURVE SMOOTH",
"400 946 OFFCURVE",
"308 917 OFFCURVE",
"211 844 CURVE SMOOTH",
"176 818 OFFCURVE",
"171 784 OFFCURVE",
"196 748 CURVE SMOOTH",
"220 713 OFFCURVE",
"253 707 OFFCURVE",
"286 729 CURVE SMOOTH",
"355 776 OFFCURVE",
"418 801 OFFCURVE",
"479 801 CURVE SMOOTH",
"557 801 OFFCURVE",
"584 760 OFFCURVE",
"584 689 CURVE SMOOTH",
"584 664 OFFCURVE",
"581 635 OFFCURVE",
"575 602 CURVE SMOOTH",
"571 580 LINE",
"437 580 OFFCURVE",
"323 556 OFFCURVE",
"236 510 CURVE SMOOTH",
"114 445 OFFCURVE",
"44 325 OFFCURVE",
"44 195 CURVE SMOOTH",
"44 65 OFFCURVE",
"133 -22 OFFCURVE",
"271 -22 CURVE SMOOTH",
"379 -22 OFFCURVE",
"490 33 OFFCURVE",
"570 122 CURVE",
"608 24 OFFCURVE",
"684 -22 OFFCURVE",
"789 -22 CURVE SMOOTH",
"884 -22 OFFCURVE",
"970 14 OFFCURVE",
"1056 84 CURVE SMOOTH",
"1094 114 OFFCURVE",
"1105 149 OFFCURVE",
"1080 187 CURVE SMOOTH",
"1056 225 OFFCURVE",
"1017 226 OFFCURVE",
"988 201 CURVE SMOOTH",
"922 147 OFFCURVE",
"868 123 OFFCURVE",
"804 123 CURVE SMOOTH",
"734 123 OFFCURVE",
"684 170 OFFCURVE",
"684 308 CURVE SMOOTH",
"684 345 OFFCURVE",
"688 389 OFFCURVE",
"696 440 CURVE",
"1095 440 LINE",
"1140 440 OFFCURVE",
"1162 457 OFFCURVE",
"1169 502 CURVE SMOOTH",
"1177 554 OFFCURVE",
"1181 602 OFFCURVE",
"1181 647 CURVE SMOOTH",
"1181 831 OFFCURVE",
"1110 946 OFFCURVE",
"939 946 CURVE SMOOTH"
);
},
{
closed = 1;
nodes = (
"528 340 LINE SMOOTH",
"506 211 OFFCURVE",
"402 119 OFFCURVE",
"289 119 CURVE SMOOTH",
"232 119 OFFCURVE",
"197 151 OFFCURVE",
"197 209 CURVE SMOOTH",
"197 288 OFFCURVE",
"239 359 OFFCURVE",
"316 398 CURVE SMOOTH",
"373 427 OFFCURVE",
"451 440 OFFCURVE",
"546 440 CURVE"
);
},
{
closed = 1;
nodes = (
"1001 801 OFFCURVE",
"1031 745 OFFCURVE",
"1031 649 CURVE SMOOTH",
"1031 628 OFFCURVE",
"1029 605 OFFCURVE",
"1026 580 CURVE",
"726 580 LINE",
"770 739 OFFCURVE",
"834 801 OFFCURVE",
"926 801 CURVE SMOOTH"
);
}
);
width = 1228;
}
);
unicode = 00E6;
},
{
glyphname = b;
lastChange = "2015-01-03 15:18:27 +0000";
layers = (
{
layerId = UUID0;
name = "Bold Italic";
paths = (
{
closed = 1;
nodes = (
"241 1312 LINE SMOOTH",
"196 1312 OFFCURVE",
"175 1294 OFFCURVE",
"160 1209 CURVE SMOOTH",
"145 1124 OFFCURVE",
"160 1107 OFFCURVE",
"205 1107 CURVE SMOOTH",
"302 1107 LINE",
"116 53 LINE SMOOTH",
"108 8 OFFCURVE",
"128 -10 OFFCURVE",
"203 -10 CURVE SMOOTH",
"278 -10 OFFCURVE",
"318 8 OFFCURVE",
"326 53 CURVE SMOOTH",
"343 152 LINE",
"393 47 OFFCURVE",
"498 -22 OFFCURVE",
"626 -22 CURVE SMOOTH",
"972 -22 OFFCURVE",
"1137 292 OFFCURVE",
"1137 544 CURVE SMOOTH",
"1137 780 OFFCURVE",
"998 946 OFFCURVE",
"776 946 CURVE SMOOTH",
"673 946 OFFCURVE",
"583 903 OFFCURVE",
"503 833 CURVE",
"577 1249 LINE SMOOTH",
"585 1294 OFFCURVE",
"570 1312 OFFCURVE",
"525 1312 CURVE SMOOTH"
);
},
{
closed = 1;
nodes = (
"811 719 OFFCURVE",
"871 648 OFFCURVE",
"871 533 CURVE SMOOTH",
"871 404 OFFCURVE",
"798 205 OFFCURVE",
"616 205 CURVE SMOOTH",
"507 205 OFFCURVE",
"425 274 OFFCURVE",
"425 402 CURVE SMOOTH",
"425 549 OFFCURVE",
"526 719 OFFCURVE",
"706 719 CURVE SMOOTH"
);
}
);
width = 1228;
},
{
layerId = "38D47A70-C265-4203-8B70-C23C50FC2DCC";
name = "Regular Italic";
paths = (
{
closed = 1;
nodes = (
"251 1312 LINE SMOOTH",
"206 1312 OFFCURVE",
"185 1294 OFFCURVE",
"176 1244 CURVE SMOOTH",
"167 1194 OFFCURVE",
"182 1176 OFFCURVE",
"227 1176 CURVE SMOOTH",
"329 1176 LINE",
"131 55 LINE SMOOTH",
"123 9 OFFCURVE",
"134 -10 OFFCURVE",
"190 -10 CURVE SMOOTH",
"246 -10 OFFCURVE",
"263 9 OFFCURVE",
"271 55 CURVE SMOOTH",
"290 158 LINE",
"353 51 OFFCURVE",
"458 -22 OFFCURVE",
"595 -22 CURVE SMOOTH",
"948 -22 OFFCURVE",
"1109 299 OFFCURVE",
"1109 558 CURVE SMOOTH",
"1109 797 OFFCURVE",
"960 946 OFFCURVE",
"745 946 CURVE SMOOTH",
"617 946 OFFCURVE",
"507 890 OFFCURVE",
"411 791 CURVE",
"491 1244 LINE SMOOTH",
"500 1294 OFFCURVE",
"485 1312 OFFCURVE",
"440 1312 CURVE SMOOTH"
);
},
{
closed = 1;
nodes = (
"872 798 OFFCURVE",
"952 698 OFFCURVE",
"952 549 CURVE SMOOTH",
"952 343 OFFCURVE",
"826 126 OFFCURVE",
"601 126 CURVE SMOOTH",
"447 126 OFFCURVE",
"346 219 OFFCURVE",
"346 383 CURVE SMOOTH",
"346 589 OFFCURVE",
"482 798 OFFCURVE",
"719 798 CURVE"
);
}
);
width = 1228;
}
);
unicode = 0062;
},
{
glyphname = c;
lastChange = "2015-01-03 15:18:27 +0000";
layers = (
{
layerId = UUID0;
name = "Bold Italic";
paths = (
{
closed = 1;
nodes = (
"966 946 OFFCURVE",
"926 928 OFFCURVE",
"918 883 CURVE SMOOTH",
"908 824 LINE",
"876 904 OFFCURVE",
"787 946 OFFCURVE",
"680 946 CURVE SMOOTH",
"326 946 OFFCURVE",
"134 654 OFFCURVE",
"134 389 CURVE SMOOTH",
"134 154 OFFCURVE",
"301 -22 OFFCURVE",
"575 -22 CURVE SMOOTH",
"714 -22 OFFCURVE",
"874 19 OFFCURVE",
"1005 83 CURVE SMOOTH",
"1051 106 OFFCURVE",
"1064 146 OFFCURVE",
"1035 225 CURVE SMOOTH",
"1007 300 OFFCURVE",
"973 322 OFFCURVE",
"930 299 CURVE SMOOTH",
"822 242 OFFCURVE",
"706 205 OFFCURVE",
"600 205 CURVE SMOOTH",
"474 205 OFFCURVE",
"400 280 OFFCURVE",
"400 402 CURVE SMOOTH",
"400 546 OFFCURVE",
"493 719 OFFCURVE",
"690 719 CURVE SMOOTH",
"809 719 OFFCURVE",
"856 644 OFFCURVE",
"842 562 CURVE SMOOTH",
"834 517 OFFCURVE",
"853 499 OFFCURVE",
"948 499 CURVE SMOOTH",
"1043 499 OFFCURVE",
"1084 517 OFFCURVE",
"1092 562 CURVE SMOOTH",
"1148 883 LINE SMOOTH",
"1156 928 OFFCURVE",
"1136 946 OFFCURVE",
"1051 946 CURVE SMOOTH"
);
}
);
width = 1228;
},
{
layerId = "38D47A70-C265-4203-8B70-C23C50FC2DCC";
name = "Regular Italic";
paths = (
{
closed = 1;
nodes = (
"1014 946 OFFCURVE",
"993 927 OFFCURVE",
"984 881 CURVE SMOOTH",
"971 811 LINE",
"919 893 OFFCURVE",
"822 946 OFFCURVE",
"700 946 CURVE SMOOTH",
"359 946 OFFCURVE",
"132 673 OFFCURVE",
"132 380 CURVE SMOOTH",
"132 150 OFFCURVE",
"288 -22 OFFCURVE",
"545 -22 CURVE SMOOTH",
"697 -22 OFFCURVE",
"857 27 OFFCURVE",
"979 105 CURVE SMOOTH",
"1019 131 OFFCURVE",
"1029 167 OFFCURVE",
"1004 211 CURVE SMOOTH",
"978 257 OFFCURVE",
"942 259 OFFCURVE",
"911 238 CURVE SMOOTH",
"803 165 OFFCURVE",
"683 126 OFFCURVE",
"561 126 CURVE SMOOTH",
"391 126 OFFCURVE",
"290 234 OFFCURVE",
"290 391 CURVE SMOOTH",
"290 607 OFFCURVE",
"460 798 OFFCURVE",
"689 798 CURVE SMOOTH",
"872 798 OFFCURVE",
"952 712 OFFCURVE",
"934 591 CURVE SMOOTH",
"927 545 OFFCURVE",
"943 526 OFFCURVE",
"999 526 CURVE SMOOTH",
"1055 526 OFFCURVE",
"1075 545 OFFCURVE",
"1083 591 CURVE SMOOTH",
"1134 881 LINE SMOOTH",
"1142 927 OFFCURVE",
"1126 946 OFFCURVE",
"1070 946 CURVE SMOOTH"
);
}
);
width = 1228;
}
);
unicode = 0063;
},
{
color = 6;
glyphname = ccedilla;
lastChange = "2014-11-22 20:02:32 +0000";
layers = (
{
background = {
paths = (
{
closed = 1;
nodes = (
"908 824 LINE",
"876 904 OFFCURVE",
"787 946 OFFCURVE",
"680 946 CURVE SMOOTH",
"326 946 OFFCURVE",
"134 654 OFFCURVE",
"134 389 CURVE SMOOTH",
"134 190 OFFCURVE",
"253 33 OFFCURVE",
"456 -10 CURVE",
"427 -180 LINE SMOOTH",
"421 -215 OFFCURVE",
"441 -224 OFFCURVE",
"459 -221 CURVE SMOOTH",
"525 -209 OFFCURVE",
"577 -215 OFFCURVE",
"577 -258 CURVE SMOOTH",
"577 -291 OFFCURVE",
"556 -322 OFFCURVE",
"481 -322 CURVE SMOOTH",
"414 -322 OFFCURVE",
"372 -308 OFFCURVE",
"324 -288 CURVE SMOOTH",
"298 -277 OFFCURVE",
"272 -308 OFFCURVE",
"255 -346 CURVE SMOOTH",
"237 -386 OFFCURVE",
"233 -420 OFFCURVE",
"259 -431 CURVE SMOOTH",
"324 -458 OFFCURVE",
"411 -472 OFFCURVE",
"507 -472 CURVE SMOOTH",
"631 -472 OFFCURVE",
"716 -445 OFFCURVE",
"764 -389 CURVE SMOOTH",
"799 -350 OFFCURVE",
"812 -292 OFFCURVE",
"812 -250 CURVE SMOOTH",
"812 -156 OFFCURVE",
"749 -89 OFFCURVE",
"617 -93 CURVE",
"629 -20 LINE",
"754 -11 OFFCURVE",
"891 27 OFFCURVE",
"1005 83 CURVE SMOOTH",
"1051 106 OFFCURVE",
"1064 146 OFFCURVE",
"1035 225 CURVE SMOOTH",
"1007 300 OFFCURVE",
"973 322 OFFCURVE",
"930 299 CURVE SMOOTH",
"822 242 OFFCURVE",
"706 205 OFFCURVE",
"600 205 CURVE SMOOTH",
"474 205 OFFCURVE",
"400 280 OFFCURVE",
"400 402 CURVE SMOOTH",
"400 546 OFFCURVE",
"493 719 OFFCURVE",
"690 719 CURVE SMOOTH",
"809 719 OFFCURVE",
"856 644 OFFCURVE",
"842 562 CURVE SMOOTH",
"834 517 OFFCURVE",
"853 499 OFFCURVE",
"948 499 CURVE SMOOTH",
"1043 499 OFFCURVE",
"1084 517 OFFCURVE",
"1092 562 CURVE SMOOTH",
"1148 883 LINE SMOOTH",
"1156 928 OFFCURVE",
"1136 946 OFFCURVE",
"1051 946 CURVE SMOOTH",
"966 946 OFFCURVE",
"926 928 OFFCURVE",
"918 883 CURVE SMOOTH"
);
}
);
};
components = (
{
name = c;
transform = "{1, 0, 0, 1, 0, 0}";
},
{
name = cedilla;
transform = "{1, 0, 0, 1, 20, 0}";
}
);
layerId = UUID0;
name = "Bold Italic";
width = 1228;
},
{
background = {
paths = (
{
closed = 1;
nodes = (
"448 -175 LINE SMOOTH",
"441 -213 OFFCURVE",
"461 -218 OFFCURVE",
"480 -217 CURVE SMOOTH",
"565 -212 OFFCURVE",
"614 -226 OFFCURVE",
"614 -271 CURVE SMOOTH",
"614 -317 OFFCURVE",
"578 -352 OFFCURVE",
"498 -352 CURVE SMOOTH",
"431 -352 OFFCURVE",
"360 -338 OFFCURVE",
"311 -318 CURVE SMOOTH",
"289 -309 OFFCURVE",
"265 -329 OFFCURVE",
"252 -354 CURVE SMOOTH",
"238 -380 OFFCURVE",
"236 -412 OFFCURVE",
"259 -424 CURVE SMOOTH",
"322 -456 OFFCURVE",
"408 -472 OFFCURVE",
"497 -472 CURVE SMOOTH",
"601 -472 OFFCURVE",
"673 -445 OFFCURVE",
"717 -398 CURVE SMOOTH",
"754 -359 OFFCURVE",
"771 -299 OFFCURVE",
"771 -258 CURVE SMOOTH",
"771 -177 OFFCURVE",
"715 -111 OFFCURVE",
"593 -113 CURVE",
"609 -19 LINE",
"741 -8 OFFCURVE",
"874 38 OFFCURVE",
"979 105 CURVE SMOOTH",
"1019 131 OFFCURVE",
"1029 167 OFFCURVE",
"1004 211 CURVE SMOOTH",
"978 257 OFFCURVE",
"942 259 OFFCURVE",
"911 238 CURVE SMOOTH",
"803 165 OFFCURVE",
"683 126 OFFCURVE",
"561 126 CURVE SMOOTH",
"391 126 OFFCURVE",
"290 234 OFFCURVE",
"290 391 CURVE SMOOTH",
"290 607 OFFCURVE",
"460 798 OFFCURVE",
"689 798 CURVE SMOOTH",
"872 798 OFFCURVE",
"952 712 OFFCURVE",
"934 591 CURVE SMOOTH",
"927 545 OFFCURVE",
"943 526 OFFCURVE",
"999 526 CURVE SMOOTH",
"1055 526 OFFCURVE",
"1075 545 OFFCURVE",
"1083 591 CURVE SMOOTH",
"1134 881 LINE SMOOTH",
"1142 927 OFFCURVE",
"1126 946 OFFCURVE",
"1070 946 CURVE SMOOTH",
"1014 946 OFFCURVE",
"993 927 OFFCURVE",
"984 881 CURVE SMOOTH",
"971 811 LINE",
"919 893 OFFCURVE",
"822 946 OFFCURVE",
"700 946 CURVE SMOOTH",
"359 946 OFFCURVE",
"132 673 OFFCURVE",
"132 380 CURVE SMOOTH",
"132 171 OFFCURVE",
"260 11 OFFCURVE",
"475 -17 CURVE"
);
}
);
};
components = (
{
name = c;
transform = "{1, 0, 0, 1, 0, 0}";
},
{
name = cedilla;
transform = "{1, 0, 0, 1, 20, 0}";
}
);
layerId = "38D47A70-C265-4203-8B70-C23C50FC2DCC";
name = "Regular Italic";
width = 1228;
}
);
unicode = 00E7;
},
{
glyphname = d;
lastChange = "2015-01-14 13:51:26 +0000";
layers = (
{
background = {
paths = (
{
closed = 1;
nodes = (
"805 1312 LINE SMOOTH",
"760 1312 OFFCURVE",
"739 1294 OFFCURVE",
"724 1209 CURVE SMOOTH",
"709 1124 OFFCURVE",
"724 1107 OFFCURVE",
"769 1107 CURVE SMOOTH",
"916 1107 LINE",
"866 824 LINE",
"810 899 OFFCURVE",
"720 946 OFFCURVE",
"614 946 CURVE SMOOTH",
"268 946 OFFCURVE",
"103 632 OFFCURVE",
"103 380 CURVE SMOOTH",
"103 148 OFFCURVE",
"240 -22 OFFCURVE",
"474 -22 CURVE SMOOTH",
"590 -22 OFFCURVE",
"707 25 OFFCURVE",
"805 127 CURVE",
"820 33 OFFCURVE",
"892 0 OFFCURVE",
"971 0 CURVE SMOOTH",
"1066 0 LINE SMOOTH",
"1111 0 OFFCURVE",
"1131 17 OFFCURVE",
"1146 102 CURVE SMOOTH",
"1161 187 OFFCURVE",
"1147 205 OFFCURVE",
"1102 205 CURVE SMOOTH",
"1073 205 LINE SMOOTH",
"1030 205 OFFCURVE",
"1012 237 OFFCURVE",
"1022 290 CURVE SMOOTH",
"1191 1249 LINE SMOOTH",
"1199 1294 OFFCURVE",
"1184 1312 OFFCURVE",
"1139 1312 CURVE SMOOTH"
);
},
{
closed = 1;
nodes = (
"733 719 OFFCURVE",
"815 650 OFFCURVE",
"815 522 CURVE SMOOTH",
"815 375 OFFCURVE",
"714 205 OFFCURVE",
"534 205 CURVE SMOOTH",
"429 205 OFFCURVE",
"369 276 OFFCURVE",
"369 391 CURVE SMOOTH",
"369 520 OFFCURVE",
"442 719 OFFCURVE",
"624 719 CURVE SMOOTH"
);
}
);
};
layerId = UUID0;
name = "Bold Italic";
paths = (
{
closed = 1;
nodes = (
"805 1312 LINE SMOOTH",
"760 1312 OFFCURVE",
"739 1294 OFFCURVE",
"724 1209 CURVE SMOOTH",
"709 1124 OFFCURVE",
"724 1107 OFFCURVE",
"769 1107 CURVE SMOOTH",
"916 1107 LINE",
"866 824 LINE",
"810 899 OFFCURVE",
"720 946 OFFCURVE",
"614 946 CURVE SMOOTH",
"268 946 OFFCURVE",
"103 632 OFFCURVE",
"103 380 CURVE SMOOTH",
"103 144 OFFCURVE",
"242 -22 OFFCURVE",
"464 -22 CURVE SMOOTH",
"585 -22 OFFCURVE",
"691 38 OFFCURVE",
"785 138 CURVE",
"772 63 LINE SMOOTH",
"764 18 OFFCURVE",
"779 0 OFFCURVE",
"824 0 CURVE SMOOTH",
"1058 0 LINE SMOOTH",
"1103 0 OFFCURVE",
"1124 18 OFFCURVE",
"1139 103 CURVE SMOOTH",
"1154 188 OFFCURVE",
"1139 205 OFFCURVE",
"1094 205 CURVE SMOOTH",
"1007 205 LINE",
"1191 1249 LINE SMOOTH",
"1199 1294 OFFCURVE",
"1184 1312 OFFCURVE",
"1139 1312 CURVE SMOOTH"
);
},
{
closed = 1;
nodes = (
"733 719 OFFCURVE",
"815 650 OFFCURVE",
"815 522 CURVE SMOOTH",
"815 375 OFFCURVE",
"714 205 OFFCURVE",
"534 205 CURVE SMOOTH",
"429 205 OFFCURVE",
"369 276 OFFCURVE",
"369 391 CURVE SMOOTH",
"369 520 OFFCURVE",
"442 719 OFFCURVE",
"624 719 CURVE SMOOTH"
);
}
);
width = 1228;
},
{
background = {
paths = (
{
closed = 1;
nodes = (
"875 1312 LINE SMOOTH",
"830 1312 OFFCURVE",
"809 1294 OFFCURVE",
"800 1244 CURVE SMOOTH",
"791 1194 OFFCURVE",
"806 1176 OFFCURVE",
"851 1176 CURVE SMOOTH",
"1013 1176 LINE",
"943 778 LINE",
"881 878 OFFCURVE",
"779 946 OFFCURVE",
"645 946 CURVE SMOOTH",
"292 946 OFFCURVE",
"131 625 OFFCURVE",
"131 366 CURVE SMOOTH",
"131 127 OFFCURVE",
"280 -22 OFFCURVE",
"495 -22 CURVE SMOOTH",
"623 -22 OFFCURVE",
"739 34 OFFCURVE",
"840 143 CURVE",
"846 55 OFFCURVE",
"904 0 OFFCURVE",
"986 0 CURVE SMOOTH",
"1037 0 LINE SMOOTH",
"1082 0 OFFCURVE",
"1103 18 OFFCURVE",
"1111 68 CURVE SMOOTH",
"1120 118 OFFCURVE",
"1105 136 OFFCURVE",
"1060 136 CURVE SMOOTH",
"1035 136 LINE SMOOTH",
"998 136 OFFCURVE",
"984 160 OFFCURVE",
"991 201 CURVE SMOOTH",
"1175 1244 LINE SMOOTH",
"1184 1295 OFFCURVE",
"1169 1312 OFFCURVE",
"1124 1312 CURVE SMOOTH"
);
},
{
closed = 1;
nodes = (
"793 798 OFFCURVE",
"894 705 OFFCURVE",
"894 541 CURVE SMOOTH",
"894 335 OFFCURVE",
"758 126 OFFCURVE",
"521 126 CURVE SMOOTH",
"368 126 OFFCURVE",
"288 226 OFFCURVE",
"288 375 CURVE SMOOTH",
"288 581 OFFCURVE",
"414 798 OFFCURVE",
"639 798 CURVE SMOOTH"
);
}
);
};
layerId = "38D47A70-C265-4203-8B70-C23C50FC2DCC";
name = "Regular Italic";
paths = (
{
closed = 1;
nodes = (
"875 1312 LINE SMOOTH",
"830 1312 OFFCURVE",
"809 1294 OFFCURVE",
"800 1244 CURVE SMOOTH",
"791 1194 OFFCURVE",
"806 1176 OFFCURVE",
"851 1176 CURVE SMOOTH",
"1013 1176 LINE",
"943 778 LINE",
"881 878 OFFCURVE",
"779 946 OFFCURVE",
"645 946 CURVE SMOOTH",
"292 946 OFFCURVE",
"131 625 OFFCURVE",
"131 366 CURVE SMOOTH",
"131 127 OFFCURVE",
"280 -22 OFFCURVE",
"495 -22 CURVE SMOOTH",
"628 -22 OFFCURVE",
"742 40 OFFCURVE",
"842 148 CURVE",
"827 68 LINE SMOOTH",
"818 18 OFFCURVE",
"834 0 OFFCURVE",
"879 0 CURVE SMOOTH",
"1038 0 LINE SMOOTH",
"1083 0 OFFCURVE",
"1104 18 OFFCURVE",
"1112 68 CURVE SMOOTH",
"1121 118 OFFCURVE",
"1106 136 OFFCURVE",
"1061 136 CURVE SMOOTH",
"979 136 LINE",
"1175 1244 LINE SMOOTH",
"1184 1294 OFFCURVE",
"1169 1312 OFFCURVE",
"1124 1312 CURVE SMOOTH"
);
},
{
closed = 1;
nodes = (
"793 798 OFFCURVE",
"894 705 OFFCURVE",
"894 541 CURVE SMOOTH",
"894 335 OFFCURVE",
"758 126 OFFCURVE",
"521 126 CURVE SMOOTH",
"368 126 OFFCURVE",
"288 226 OFFCURVE",
"288 375 CURVE SMOOTH",
"288 581 OFFCURVE",
"414 798 OFFCURVE",
"639 798 CURVE SMOOTH"
);
}
);
width = 1228;
}
);
unicode = 0064;
},
{
glyphname = eth;
lastChange = "2015-01-03 15:18:27 +0000";
layers = (
{
layerId = UUID0;
name = "Bold Italic";
paths = (
{
closed = 1;
nodes = (
"637 1361 OFFCURVE",
"604 1350 OFFCURVE",
"540 1277 CURVE SMOOTH",
"481 1209 OFFCURVE",
"476 1170 OFFCURVE",
"514 1149 CURVE SMOOTH",
"536 1136 OFFCURVE",
"560 1123 OFFCURVE",
"582 1108 CURVE",
"498 1067 LINE SMOOTH",
"454 1046 OFFCURVE",
"443 1024 OFFCURVE",
"472 960 CURVE SMOOTH",
"501 896 OFFCURVE",
"523 887 OFFCURVE",
"567 908 CURVE SMOOTH",
"730 987 LINE",
"778 937 OFFCURVE",
"821 879 OFFCURVE",
"852 811 CURVE",
"798 847 OFFCURVE",
"731 866 OFFCURVE",
"656 866 CURVE SMOOTH",
"273 866 OFFCURVE",
"122 572 OFFCURVE",
"122 359 CURVE SMOOTH",
"122 140 OFFCURVE",
"284 -22 OFFCURVE",
"550 -22 CURVE SMOOTH",
"849 -22 OFFCURVE",
"1060 142 OFFCURVE",
"1113 442 CURVE SMOOTH",
"1123 500 OFFCURVE",
"1129 557 OFFCURVE",
"1129 613 CURVE SMOOTH",
"1129 794 OFFCURVE",
"1074 961 OFFCURVE",
"964 1101 CURVE",
"1071 1153 LINE SMOOTH",
"1114 1174 OFFCURVE",
"1120 1197 OFFCURVE",
"1091 1259 CURVE SMOOTH",
"1061 1322 OFFCURVE",
"1046 1333 OFFCURVE",
"1002 1312 CURVE SMOOTH",
"836 1231 LINE",
"789 1271 OFFCURVE",
"735 1307 OFFCURVE",
"676 1340 CURVE SMOOTH"
);
},
{
closed = 1;
nodes = (
"774 639 OFFCURVE",
"846 577 OFFCURVE",
"846 470 CURVE SMOOTH",
"846 339 OFFCURVE",
"758 205 OFFCURVE",
"580 205 CURVE SMOOTH",
"461 205 OFFCURVE",
"390 268 OFFCURVE",
"390 375 CURVE SMOOTH",
"390 495 OFFCURVE",
"470 639 OFFCURVE",
"656 639 CURVE SMOOTH"
);
}
);
width = 1228;
},
{
layerId = "38D47A70-C265-4203-8B70-C23C50FC2DCC";
name = "Regular Italic";
paths = (
{
closed = 1;
nodes = (
"569 1343 OFFCURVE",
"540 1335 OFFCURVE",
"513 1288 CURVE SMOOTH",
"487 1243 OFFCURVE",
"496 1215 OFFCURVE",
"533 1195 CURVE SMOOTH",
"569 1176 OFFCURVE",
"603 1155 OFFCURVE",
"636 1134 CURVE",
"465 1074 LINE SMOOTH",
"420 1058 OFFCURVE",
"410 1033 OFFCURVE",
"425 988 CURVE SMOOTH",
"439 946 OFFCURVE",
"465 930 OFFCURVE",
"510 946 CURVE SMOOTH",
"764 1035 LINE",
"836 968 OFFCURVE",
"893 892 OFFCURVE",
"929 803 CURVE",
"865 853 OFFCURVE",
"783 886 OFFCURVE",
"690 886 CURVE SMOOTH",
"350 886 OFFCURVE",
"142 639 OFFCURVE",
"142 363 CURVE SMOOTH",
"142 137 OFFCURVE",
"308 -22 OFFCURVE",
"550 -22 CURVE SMOOTH",
"822 -22 OFFCURVE",
"1042 140 OFFCURVE",
"1090 412 CURVE SMOOTH",
"1101 473 OFFCURVE",
"1106 532 OFFCURVE",
"1106 587 CURVE SMOOTH",
"1106 792 OFFCURVE",
"1034 957 OFFCURVE",
"917 1089 CURVE",
"1102 1154 LINE SMOOTH",
"1147 1170 OFFCURVE",
"1156 1197 OFFCURVE",
"1142 1240 CURVE SMOOTH",
"1127 1286 OFFCURVE",
"1101 1298 OFFCURVE",
"1057 1282 CURVE SMOOTH",
"806 1194 LINE",
"745 1242 OFFCURVE",
"678 1285 OFFCURVE",
"606 1323 CURVE SMOOTH"
);
},
{
closed = 1;
nodes = (
"841 738 OFFCURVE",
"942 645 OFFCURVE",
"942 496 CURVE SMOOTH",
"942 307 OFFCURVE",
"799 126 OFFCURVE",
"566 126 CURVE SMOOTH",
"399 126 OFFCURVE",
"298 219 OFFCURVE",
"298 367 CURVE SMOOTH",
"298 570 OFFCURVE",
"451 738 OFFCURVE",
"674 738 CURVE SMOOTH"
);
}
);
width = 1228;
}
);
unicode = 00F0;
},
{
glyphname = dcaron;
lastChange = "2015-01-03 15:18:27 +0000";
layers = (
{
background = {
paths = (
{
closed = 1;
nodes = (
"685 1312 LINE SMOOTH",
"640 1312 OFFCURVE",
"619 1294 OFFCURVE",
"604 1209 CURVE SMOOTH",
"589 1124 OFFCURVE",
"604 1107 OFFCURVE",
"649 1107 CURVE SMOOTH",
"796 1107 LINE",
"747 827 LINE",
"703 902 OFFCURVE",
"650 946 OFFCURVE",
"555 946 CURVE SMOOTH",
"321 946 OFFCURVE",
"138 741 OFFCURVE",
"88 462 CURVE SMOOTH",
"39 183 OFFCURVE",
"150 -22 OFFCURVE",
"384 -22 CURVE SMOOTH",
"502 -22 OFFCURVE",
"588 36 OFFCURVE",
"665 137 CURVE",
"652 63 LINE SMOOTH",
"644 18 OFFCURVE",
"659 0 OFFCURVE",
"704 0 CURVE SMOOTH",
"938 0 LINE SMOOTH",
"983 0 OFFCURVE",
"1004 18 OFFCURVE",
"1019 103 CURVE SMOOTH",
"1034 188 OFFCURVE",
"1019 205 OFFCURVE",
"974 205 CURVE SMOOTH",
"887 205 LINE",
"1071 1249 LINE SMOOTH",
"1079 1294 OFFCURVE",
"1064 1312 OFFCURVE",
"1019 1312 CURVE SMOOTH"
);
},
{
closed = 1;
nodes = (
"660 719 OFFCURVE",
"720 635 OFFCURVE",
"689 462 CURVE SMOOTH",
"659 290 OFFCURVE",
"569 205 OFFCURVE",
"464 205 CURVE SMOOTH",
"372 205 OFFCURVE",
"327 297 OFFCURVE",
"356 462 CURVE SMOOTH",
"386 627 OFFCURVE",
"463 719 OFFCURVE",
"555 719 CURVE SMOOTH"
);
}
);
};
components = (
{
name = caron.alt;
transform = "{1, 0, 0, 1, 815, 0}";
}
);
layerId = UUID0;
name = "Bold Italic";
paths = (
{
closed = 1;
nodes = (
"685 1312 LINE SMOOTH",
"640 1312 OFFCURVE",
"619 1294 OFFCURVE",
"604 1209 CURVE SMOOTH",
"589 1124 OFFCURVE",
"604 1107 OFFCURVE",
"649 1107 CURVE SMOOTH",
"796 1107 LINE",
"746 821 LINE",
"702 900 OFFCURVE",
"634 946 OFFCURVE",
"529 946 CURVE SMOOTH",
"221 946 OFFCURVE",
"80 614 OFFCURVE",
"80 357 CURVE SMOOTH",
"80 139 OFFCURVE",
"186 -22 OFFCURVE",
"384 -22 CURVE SMOOTH",
"502 -22 OFFCURVE",
"587 34 OFFCURVE",
"664 132 CURVE",
"652 63 LINE SMOOTH",
"644 18 OFFCURVE",
"659 0 OFFCURVE",
"704 0 CURVE SMOOTH",
"938 0 LINE SMOOTH",
"983 0 OFFCURVE",
"1004 18 OFFCURVE",
"1019 103 CURVE SMOOTH",
"1034 188 OFFCURVE",
"1019 205 OFFCURVE",
"974 205 CURVE SMOOTH",
"887 205 LINE",
"1071 1249 LINE SMOOTH",
"1079 1294 OFFCURVE",
"1064 1312 OFFCURVE",
"1019 1312 CURVE SMOOTH"
);
},
{
closed = 1;
nodes = (
"642 719 OFFCURVE",
"697 661 OFFCURVE",
"697 542 CURVE SMOOTH",
"697 402 OFFCURVE",
"627 205 OFFCURVE",
"474 205 CURVE SMOOTH",
"390 205 OFFCURVE",
"347 266 OFFCURVE",
"347 376 CURVE SMOOTH",
"347 524 OFFCURVE",
"414 719 OFFCURVE",
"555 719 CURVE SMOOTH"
);
}
);
width = 1228;
},
{
background = {
paths = (
{
closed = 1;
nodes = (
"775 1312 LINE SMOOTH",
"730 1312 OFFCURVE",
"709 1294 OFFCURVE",
"700 1244 CURVE SMOOTH",
"692 1194 OFFCURVE",
"706 1176 OFFCURVE",
"751 1176 CURVE SMOOTH",
"913 1176 LINE",
"844 785 LINE",
"802 884 OFFCURVE",
"727 946 OFFCURVE",
"606 946 CURVE SMOOTH",
"389 946 OFFCURVE",
"192 764 OFFCURVE",
"138 462 CURVE SMOOTH",
"85 160 OFFCURVE",
"218 -22 OFFCURVE",
"435 -22 CURVE SMOOTH",
"565 -22 OFFCURVE",
"664 46 OFFCURVE",
"741 143 CURVE",
"728 68 LINE SMOOTH",
"719 18 OFFCURVE",
"734 0 OFFCURVE",
"779 0 CURVE SMOOTH",
"938 0 LINE SMOOTH",
"983 0 OFFCURVE",
"1004 18 OFFCURVE",
"1013 68 CURVE SMOOTH",
"1022 118 OFFCURVE",
"1007 136 OFFCURVE",
"962 136 CURVE SMOOTH",
"880 136 LINE",
"1075 1244 LINE SMOOTH",
"1084 1294 OFFCURVE",
"1069 1312 OFFCURVE",
"1024 1312 CURVE SMOOTH"
);
},
{
closed = 1;
nodes = (
"747 798 OFFCURVE",
"825 674 OFFCURVE",
"787 462 CURVE SMOOTH",
"750 250 OFFCURVE",
"628 126 OFFCURVE",
"471 126 CURVE SMOOTH",
"320 126 OFFCURVE",
"262 266 OFFCURVE",
"296 462 CURVE SMOOTH",
"331 658 OFFCURVE",
"439 798 OFFCURVE",
"590 798 CURVE SMOOTH"
);
}
);
};
components = (
{
name = caron.alt;
transform = "{1, 0, 0, 1, 799, 0}";
}
);
layerId = "38D47A70-C265-4203-8B70-C23C50FC2DCC";
name = "Regular Italic";
paths = (
{
closed = 1;
nodes = (
"767 1312 LINE SMOOTH",
"722 1312 OFFCURVE",
"701 1294 OFFCURVE",
"692 1244 CURVE SMOOTH",
"683 1194 OFFCURVE",
"698 1176 OFFCURVE",
"743 1176 CURVE SMOOTH",
"905 1176 LINE",
"838 790 LINE",
"793 883 OFFCURVE",
"708 946 OFFCURVE",
"577 946 CURVE SMOOTH",
"276 946 OFFCURVE",
"123 637 OFFCURVE",
"123 363 CURVE SMOOTH",
"123 128 OFFCURVE",
"250 -22 OFFCURVE",
"437 -22 CURVE SMOOTH",
"567 -22 OFFCURVE",
"659 46 OFFCURVE",
"731 133 CURVE",
"719 68 LINE SMOOTH",
"710 18 OFFCURVE",
"726 0 OFFCURVE",
"771 0 CURVE SMOOTH",
"930 0 LINE SMOOTH",
"975 0 OFFCURVE",
"996 18 OFFCURVE",
"1004 68 CURVE SMOOTH",
"1013 118 OFFCURVE",
"998 136 OFFCURVE",
"953 136 CURVE SMOOTH",
"871 136 LINE",
"1067 1244 LINE SMOOTH",
"1076 1294 OFFCURVE",
"1061 1312 OFFCURVE",
"1016 1312 CURVE SMOOTH"
);
},
{
closed = 1;
nodes = (
"711 798 OFFCURVE",
"789 708 OFFCURVE",
"789 551 CURVE SMOOTH",
"789 369 OFFCURVE",
"690 126 OFFCURVE",
"473 126 CURVE SMOOTH",
"338 126 OFFCURVE",
"279 224 OFFCURVE",
"279 369 CURVE SMOOTH",
"279 559 OFFCURVE",
"375 798 OFFCURVE",
"581 798 CURVE SMOOTH"
);
}
);
width = 1228;
}
);
unicode = 010F;
},
{
color = 6;
glyphname = dcroat;
lastChange = "2015-01-05 03:59:50 +0000";
layers = (
{
background = {
paths = (
{
closed = 1;
nodes = (
"995 1312 LINE SMOOTH",
"950 1312 OFFCURVE",
"929 1294 OFFCURVE",
"921 1249 CURVE SMOOTH",
"810 616 LINE",
"854 676 LINE",
"813 780 OFFCURVE",
"708 846 OFFCURVE",
"583 846 CURVE SMOOTH",
"326 846 OFFCURVE",
"157 660 OFFCURVE",
"126 412 CURVE SMOOTH",
"96 171 OFFCURVE",
"212 -22 OFFCURVE",
"466 -22 CURVE SMOOTH",
"611 -22 OFFCURVE",
"741 52 OFFCURVE",
"813 186 CURVE",
"787 259 LINE",
"752 63 LINE SMOOTH",
"744 18 OFFCURVE",
"759 0 OFFCURVE",
"804 0 CURVE SMOOTH",
"1038 0 LINE SMOOTH",
"1083 0 OFFCURVE",
"1104 18 OFFCURVE",
"1119 103 CURVE SMOOTH",
"1134 188 OFFCURVE",
"1119 205 OFFCURVE",
"1074 205 CURVE SMOOTH",
"987 205 LINE",
"1171 1249 LINE SMOOTH",
"1179 1294 OFFCURVE",
"1164 1312 OFFCURVE",
"1119 1312 CURVE SMOOTH"
);
},
{
closed = 1;
nodes = (
"717 614 OFFCURVE",
"799 545 OFFCURVE",
"781 412 CURVE SMOOTH",
"763 281 OFFCURVE",
"655 210 OFFCURVE",
"540 210 CURVE SMOOTH",
"427 210 OFFCURVE",
"371 288 OFFCURVE",
"388 412 CURVE SMOOTH",
"405 536 OFFCURVE",
"489 614 OFFCURVE",
"602 614 CURVE SMOOTH"
);
},
{
closed = 1;
nodes = (
"700 1155 LINE SMOOTH",
"655 1155 OFFCURVE",
"633 1137 OFFCURVE",
"618 1052 CURVE SMOOTH",
"604 967 OFFCURVE",
"619 950 OFFCURVE",
"664 950 CURVE SMOOTH",
"1226 950 LINE SMOOTH",
"1271 950 OFFCURVE",
"1292 967 OFFCURVE",
"1306 1052 CURVE SMOOTH",
"1321 1137 OFFCURVE",
"1307 1155 OFFCURVE",
"1262 1155 CURVE SMOOTH"
);
}
);
};
layerId = UUID0;
name = "Bold Italic";
paths = (
{
closed = 1;
nodes = (
"995 1312 LINE SMOOTH",
"950 1312 OFFCURVE",
"929 1294 OFFCURVE",
"921 1249 CURVE SMOOTH",
"810 616 LINE",
"854 676 LINE",
"813 780 OFFCURVE",
"708 846 OFFCURVE",
"583 846 CURVE SMOOTH",
"286 846 OFFCURVE",
"121 599 OFFCURVE",
"121 339 CURVE SMOOTH",
"121 133 OFFCURVE",
"238 -22 OFFCURVE",
"466 -22 CURVE SMOOTH",
"611 -22 OFFCURVE",
"741 52 OFFCURVE",
"813 186 CURVE",
"787 259 LINE",
"752 63 LINE SMOOTH",
"744 18 OFFCURVE",
"759 0 OFFCURVE",
"804 0 CURVE SMOOTH",
"1038 0 LINE SMOOTH",
"1083 0 OFFCURVE",
"1104 18 OFFCURVE",
"1119 103 CURVE SMOOTH",
"1134 188 OFFCURVE",
"1119 205 OFFCURVE",
"1074 205 CURVE SMOOTH",
"987 205 LINE",
"1171 1249 LINE SMOOTH",
"1179 1294 OFFCURVE",
"1164 1312 OFFCURVE",
"1119 1312 CURVE SMOOTH"
);
},
{
closed = 1;
nodes = (
"706 614 OFFCURVE",
"783 557 OFFCURVE",
"783 447 CURVE SMOOTH",
"783 325 OFFCURVE",
"696 210 OFFCURVE",
"540 210 CURVE SMOOTH",
"440 210 OFFCURVE",
"385 271 OFFCURVE",
"385 370 CURVE SMOOTH",
"385 500 OFFCURVE",
"464 614 OFFCURVE",
"602 614 CURVE SMOOTH"
);
},
{
closed = 1;
nodes = (
"700 1155 LINE SMOOTH",
"655 1155 OFFCURVE",
"633 1137 OFFCURVE",
"618 1052 CURVE SMOOTH",
"604 967 OFFCURVE",
"619 950 OFFCURVE",
"664 950 CURVE SMOOTH",
"1226 950 LINE SMOOTH",
"1271 950 OFFCURVE",
"1292 967 OFFCURVE",
"1306 1052 CURVE SMOOTH",
"1321 1137 OFFCURVE",
"1307 1155 OFFCURVE",
"1262 1155 CURVE SMOOTH"
);
}
);
width = 1228;
},
{
background = {
paths = (
{
closed = 1;
nodes = (
"815 1312 LINE SMOOTH",
"770 1312 OFFCURVE",
"749 1294 OFFCURVE",
"740 1244 CURVE SMOOTH",
"732 1194 OFFCURVE",
"746 1176 OFFCURVE",
"791 1176 CURVE SMOOTH",
"993 1176 LINE",
"905 674 LINE",
"938 702 LINE",
"879 815 OFFCURVE",
"786 886 OFFCURVE",
"645 886 CURVE SMOOTH",
"410 886 OFFCURVE",
"205 716 OFFCURVE",
"155 432 CURVE SMOOTH",
"105 148 OFFCURVE",
"250 -22 OFFCURVE",
"485 -22 CURVE SMOOTH",
"626 -22 OFFCURVE",
"753 53 OFFCURVE",
"855 178 CURVE",
"832 205 LINE",
"808 68 LINE SMOOTH",
"799 18 OFFCURVE",
"814 0 OFFCURVE",
"859 0 CURVE SMOOTH",
"1018 0 LINE SMOOTH",
"1063 0 OFFCURVE",
"1084 18 OFFCURVE",
"1093 68 CURVE SMOOTH",
"1102 118 OFFCURVE",
"1087 136 OFFCURVE",
"1042 136 CURVE SMOOTH",
"960 136 LINE",
"1155 1244 LINE SMOOTH",
"1164 1294 OFFCURVE",
"1149 1312 OFFCURVE",
"1104 1312 CURVE SMOOTH"
);
},
{
closed = 1;
nodes = (
"794 738 OFFCURVE",
"896 626 OFFCURVE",
"862 432 CURVE SMOOTH",
"828 238 OFFCURVE",
"686 126 OFFCURVE",
"521 126 CURVE SMOOTH",
"352 126 OFFCURVE",
"278 254 OFFCURVE",
"309 432 CURVE SMOOTH",
"341 610 OFFCURVE",
"460 738 OFFCURVE",
"629 738 CURVE SMOOTH"
);
},
{
closed = 1;
nodes = (
"678 1106 LINE SMOOTH",
"633 1106 OFFCURVE",
"612 1088 OFFCURVE",
"603 1038 CURVE SMOOTH",
"594 988 OFFCURVE",
"609 970 OFFCURVE",
"654 970 CURVE SMOOTH",
"1216 970 LINE SMOOTH",
"1261 970 OFFCURVE",
"1282 988 OFFCURVE",
"1291 1038 CURVE SMOOTH",
"1300 1088 OFFCURVE",
"1285 1106 OFFCURVE",
"1240 1106 CURVE SMOOTH"
);
}
);
};
layerId = "38D47A70-C265-4203-8B70-C23C50FC2DCC";
name = "Regular Italic";
paths = (
{
closed = 1;
nodes = (
"855 1312 LINE SMOOTH",
"810 1312 OFFCURVE",
"789 1294 OFFCURVE",
"780 1244 CURVE SMOOTH",
"771 1194 OFFCURVE",
"786 1176 OFFCURVE",
"831 1176 CURVE SMOOTH",
"993 1176 LINE",
"906 686 LINE",
"928 696 LINE",
"870 810 OFFCURVE",
"770 886 OFFCURVE",
"626 886 CURVE SMOOTH",
"328 886 OFFCURVE",
"148 625 OFFCURVE",
"148 340 CURVE SMOOTH",
"148 114 OFFCURVE",
"291 -22 OFFCURVE",
"495 -22 CURVE SMOOTH",
"625 -22 OFFCURVE",
"744 43 OFFCURVE",
"844 160 CURVE",
"828 182 LINE",
"807 68 LINE SMOOTH",
"798 18 OFFCURVE",
"814 0 OFFCURVE",
"859 0 CURVE SMOOTH",
"1018 0 LINE SMOOTH",
"1063 0 OFFCURVE",
"1084 18 OFFCURVE",
"1092 68 CURVE SMOOTH",
"1101 118 OFFCURVE",
"1086 136 OFFCURVE",
"1041 136 CURVE SMOOTH",
"959 136 LINE",
"1155 1244 LINE SMOOTH",
"1164 1294 OFFCURVE",
"1149 1312 OFFCURVE",
"1104 1312 CURVE SMOOTH"
);
},
{
closed = 1;
nodes = (
"769 738 OFFCURVE",
"869 654 OFFCURVE",
"869 506 CURVE SMOOTH",
"869 333 OFFCURVE",
"753 126 OFFCURVE",
"511 126 CURVE SMOOTH",
"378 126 OFFCURVE",
"305 217 OFFCURVE",
"305 352 CURVE SMOOTH",
"305 542 OFFCURVE",
"416 738 OFFCURVE",
"620 738 CURVE SMOOTH"
);
},
{
closed = 1;
nodes = (
"678 1106 LINE SMOOTH",
"633 1106 OFFCURVE",
"611 1088 OFFCURVE",
"603 1038 CURVE SMOOTH",
"594 988 OFFCURVE",
"609 970 OFFCURVE",
"654 970 CURVE SMOOTH",
"1216 970 LINE SMOOTH",
"1261 970 OFFCURVE",
"1282 988 OFFCURVE",
"1291 1038 CURVE SMOOTH",
"1299 1088 OFFCURVE",
"1285 1106 OFFCURVE",
"1240 1106 CURVE SMOOTH"
);
}
);
width = 1228;
}
);
unicode = 0111;
},
{
glyphname = e;
lastChange = "2015-01-09 13:10:12 +0000";
layers = (
{
background = {
paths = (
{
closed = 1;
nodes = (
"334 946 OFFCURVE",
"123 686 OFFCURVE",
"123 379 CURVE SMOOTH",
"123 149 OFFCURVE",
"269 -22 OFFCURVE",
"530 -22 CURVE SMOOTH",
"673 -22 OFFCURVE",
"829 5 OFFCURVE",
"970 49 CURVE SMOOTH",
"1021 65 OFFCURVE",
"1035 94 OFFCURVE",
"1019 176 CURVE SMOOTH",
"1003 257 OFFCURVE",
"981 273 OFFCURVE",
"935 260 CURVE SMOOTH",
"796 220 OFFCURVE",
"678 205 OFFCURVE",
"570 205 CURVE SMOOTH",
"469 205 OFFCURVE",
"405 247 OFFCURVE",
"385 329 CURVE",
"838 374 LINE SMOOTH",
"1012 391 OFFCURVE",
"1089 487 OFFCURVE",
"1089 637 CURVE SMOOTH",
"1089 820 OFFCURVE",
"935 946 OFFCURVE",
"700 946 CURVE SMOOTH"
);
},
{
closed = 1;
nodes = (
"780 719 OFFCURVE",
"825 675 OFFCURVE",
"825 624 CURVE SMOOTH",
"825 590 OFFCURVE",
"807 557 OFFCURVE",
"747 551 CURVE SMOOTH",
"398 516 LINE",
"439 653 OFFCURVE",
"533 719 OFFCURVE",
"670 719 CURVE SMOOTH"
);
}
);
};
layerId = UUID0;
name = "Bold Italic";
paths = (
{
closed = 1;
nodes = (
"348 946 OFFCURVE",
"137 686 OFFCURVE",
"137 379 CURVE SMOOTH",
"137 149 OFFCURVE",
"283 -22 OFFCURVE",
"544 -22 CURVE SMOOTH",
"687 -22 OFFCURVE",
"843 5 OFFCURVE",
"984 49 CURVE SMOOTH",
"1035 65 OFFCURVE",
"1049 94 OFFCURVE",
"1033 176 CURVE SMOOTH",
"1017 257 OFFCURVE",
"995 273 OFFCURVE",
"949 260 CURVE SMOOTH",
"810 220 OFFCURVE",
"692 205 OFFCURVE",
"584 205 CURVE SMOOTH",
"439 205 OFFCURVE",
"371 291 OFFCURVE",
"399 459 CURVE SMOOTH",
"428 633 OFFCURVE",
"527 719 OFFCURVE",
"688 719 CURVE SMOOTH",
"796 719 OFFCURVE",
"839 672 OFFCURVE",
"839 624 CURVE SMOOTH",
"839 590 OFFCURVE",
"821 557 OFFCURVE",
"761 551 CURVE SMOOTH",
"322 507 LINE",
"289 318 LINE",
"852 374 LINE SMOOTH",
"1023 391 OFFCURVE",
"1103 485 OFFCURVE",
"1103 634 CURVE SMOOTH",
"1103 817 OFFCURVE",
"949 946 OFFCURVE",
"714 946 CURVE SMOOTH"
);
}
);
width = 1228;
},
{
background = {
paths = (
{
closed = 1;
nodes = (
"379 946 OFFCURVE",
"148 684 OFFCURVE",
"148 354 CURVE SMOOTH",
"148 122 OFFCURVE",
"287 -22 OFFCURVE",
"539 -22 CURVE SMOOTH",
"694 -22 OFFCURVE",
"856 16 OFFCURVE",
"969 66 CURVE SMOOTH",
"1011 85 OFFCURVE",
"1026 114 OFFCURVE",
"1010 166 CURVE SMOOTH",
"994 217 OFFCURVE",
"962 232 OFFCURVE",
"929 215 CURVE SMOOTH",
"828 164 OFFCURVE",
"688 123 OFFCURVE",
"554 123 CURVE SMOOTH",
"400 123 OFFCURVE",
"306 192 OFFCURVE",
"304 354 CURVE",
"853 411 LINE SMOOTH",
"1015 428 OFFCURVE",
"1079 520 OFFCURVE",
"1079 655 CURVE SMOOTH",
"1079 821 OFFCURVE",
"941 946 OFFCURVE",
"719 946 CURVE SMOOTH"
);
},
{
closed = 1;
nodes = (
"849 801 OFFCURVE",
"921 734 OFFCURVE",
"921 650 CURVE SMOOTH",
"921 592 OFFCURVE",
"899 558 OFFCURVE",
"822 550 CURVE SMOOTH",
"319 492 LINE",
"363 670 OFFCURVE",
"497 801 OFFCURVE",
"704 801 CURVE SMOOTH"
);
}
);
};
layerId = "38D47A70-C265-4203-8B70-C23C50FC2DCC";
name = "Regular Italic";
paths = (
{
closed = 1;
nodes = (
"383 946 OFFCURVE",
"152 684 OFFCURVE",
"152 354 CURVE SMOOTH",
"152 122 OFFCURVE",
"291 -22 OFFCURVE",
"543 -22 CURVE SMOOTH",
"698 -22 OFFCURVE",
"860 16 OFFCURVE",
"973 66 CURVE SMOOTH",
"1015 85 OFFCURVE",
"1030 114 OFFCURVE",
"1014 166 CURVE SMOOTH",
"998 217 OFFCURVE",
"966 232 OFFCURVE",
"933 215 CURVE SMOOTH",
"832 164 OFFCURVE",
"692 123 OFFCURVE",
"558 123 CURVE SMOOTH",
"402 123 OFFCURVE",
"308 194 OFFCURVE",
"308 361 CURVE SMOOTH",
"308 602 OFFCURVE",
"453 801 OFFCURVE",
"708 801 CURVE SMOOTH",
"853 801 OFFCURVE",
"925 734 OFFCURVE",
"925 650 CURVE SMOOTH",
"925 592 OFFCURVE",
"903 558 OFFCURVE",
"826 550 CURVE SMOOTH",
"285 488 LINE",
"252 348 LINE",
"857 411 LINE SMOOTH",
"1019 428 OFFCURVE",
"1083 520 OFFCURVE",
"1083 655 CURVE SMOOTH",
"1083 821 OFFCURVE",
"945 946 OFFCURVE",
"723 946 CURVE SMOOTH"
);
}
);
width = 1228;
}
);
unicode = 0065;
},
{
color = 3;
glyphname = eogonek;
lastChange = "2015-01-09 13:18:29 +0000";
layers = (
{
layerId = UUID0;
name = "Bold Italic";
paths = (
{
closed = 1;
nodes = (
"348 946 OFFCURVE",
"137 686 OFFCURVE",
"137 379 CURVE SMOOTH",
"137 149 OFFCURVE",
"283 -22 OFFCURVE",
"544 -22 CURVE SMOOTH",
"589 -22 OFFCURVE",
"635 -19 OFFCURVE",
"681 -14 CURVE",
"561 -89 OFFCURVE",
"473 -180 OFFCURVE",
"473 -300 CURVE SMOOTH",
"473 -408 OFFCURVE",
"556 -472 OFFCURVE",
"695 -472 CURVE SMOOTH",
"774 -472 OFFCURVE",
"866 -457 OFFCURVE",
"932 -436 CURVE SMOOTH",
"962 -427 OFFCURVE",
"978 -400 OFFCURVE",
"972 -350 CURVE SMOOTH",
"966 -302 OFFCURVE",
"947 -280 OFFCURVE",
"920 -285 CURVE SMOOTH",
"880 -292 OFFCURVE",
"840 -298 OFFCURVE",
"801 -298 CURVE SMOOTH",
"752 -298 OFFCURVE",
"723 -280 OFFCURVE",
"723 -235 CURVE SMOOTH",
"723 -167 OFFCURVE",
"806 -88 OFFCURVE",
"919 -4 CURVE SMOOTH",
"978 40 OFFCURVE",
"995 52 OFFCURVE",
"1005 57 CURVE SMOOTH",
"1039 75 OFFCURVE",
"1047 106 OFFCURVE",
"1033 176 CURVE SMOOTH",
"1017 257 OFFCURVE",
"995 273 OFFCURVE",
"949 260 CURVE SMOOTH",
"810 220 OFFCURVE",
"692 205 OFFCURVE",
"584 205 CURVE SMOOTH",
"439 205 OFFCURVE",
"371 291 OFFCURVE",
"399 459 CURVE SMOOTH",
"428 633 OFFCURVE",
"527 719 OFFCURVE",
"688 719 CURVE SMOOTH",
"796 719 OFFCURVE",
"839 672 OFFCURVE",
"839 624 CURVE SMOOTH",
"839 590 OFFCURVE",
"821 557 OFFCURVE",
"761 551 CURVE SMOOTH",
"322 507 LINE",
"289 318 LINE",
"852 374 LINE SMOOTH",
"1023 391 OFFCURVE",
"1103 485 OFFCURVE",
"1103 634 CURVE SMOOTH",
"1103 817 OFFCURVE",
"949 946 OFFCURVE",
"714 946 CURVE SMOOTH"
);
}
);
width = 1228;
},
{
layerId = "38D47A70-C265-4203-8B70-C23C50FC2DCC";
name = "Regular Italic";
paths = (
{
closed = 1;
nodes = (
"383 946 OFFCURVE",
"152 684 OFFCURVE",
"152 354 CURVE SMOOTH",
"152 122 OFFCURVE",
"291 -22 OFFCURVE",
"543 -22 CURVE SMOOTH",
"593 -22 OFFCURVE",
"644 -18 OFFCURVE",
"693 -11 CURVE",
"572 -108 OFFCURVE",
"503 -204 OFFCURVE",
"503 -310 CURVE SMOOTH",
"503 -406 OFFCURVE",
"564 -472 OFFCURVE",
"671 -472 CURVE SMOOTH",
"735 -472 OFFCURVE",
"801 -460 OFFCURVE",
"850 -443 CURVE SMOOTH",
"881 -432 OFFCURVE",
"891 -411 OFFCURVE",
"886 -374 CURVE SMOOTH",
"881 -337 OFFCURVE",
"866 -322 OFFCURVE",
"839 -326 CURVE SMOOTH",
"803 -332 OFFCURVE",
"767 -336 OFFCURVE",
"728 -336 CURVE SMOOTH",
"688 -336 OFFCURVE",
"663 -316 OFFCURVE",
"663 -277 CURVE SMOOTH",
"663 -211 OFFCURVE",
"721 -131 OFFCURVE",
"847 -26 CURVE SMOOTH",
"921 36 OFFCURVE",
"948 55 OFFCURVE",
"973 66 CURVE SMOOTH",
"1015 85 OFFCURVE",
"1030 114 OFFCURVE",
"1014 166 CURVE SMOOTH",
"998 217 OFFCURVE",
"966 232 OFFCURVE",
"933 215 CURVE SMOOTH",
"832 164 OFFCURVE",
"692 123 OFFCURVE",
"558 123 CURVE SMOOTH",
"402 123 OFFCURVE",
"308 194 OFFCURVE",
"308 361 CURVE SMOOTH",
"308 602 OFFCURVE",
"453 801 OFFCURVE",
"708 801 CURVE SMOOTH",
"853 801 OFFCURVE",
"925 734 OFFCURVE",
"925 650 CURVE SMOOTH",
"925 592 OFFCURVE",
"903 558 OFFCURVE",
"826 550 CURVE SMOOTH",
"285 488 LINE",
"252 348 LINE",
"857 411 LINE SMOOTH",
"1019 428 OFFCURVE",
"1083 520 OFFCURVE",
"1083 655 CURVE SMOOTH",
"1083 821 OFFCURVE",
"945 946 OFFCURVE",
"723 946 CURVE SMOOTH"
);
}
);
width = 1228;
}
);
unicode = 0119;
},
{
glyphname = f;
lastChange = "2015-01-03 15:18:27 +0000";
layers = (
{
layerId = UUID0;
name = "Bold Italic";
paths = (
{
closed = 1;
nodes = (
"720 1317 OFFCURVE",
"592 1186 OFFCURVE",
"548 937 CURVE SMOOTH",
"535 864 LINE",
"352 864 LINE SMOOTH",
"307 864 OFFCURVE",
"285 841 OFFCURVE",
"270 756 CURVE SMOOTH",
"255 671 OFFCURVE",
"269 649 OFFCURVE",
"314 649 CURVE SMOOTH",
"497 649 LINE",
"377 -32 LINE SMOOTH",
"357 -142 OFFCURVE",
"307 -188 OFFCURVE",
"230 -188 CURVE SMOOTH",
"164 -188 OFFCURVE",
"116 -170 OFFCURVE",
"49 -126 CURVE SMOOTH",
"8 -99 OFFCURVE",
"-31 -120 OFFCURVE",
"-70 -187 CURVE SMOOTH",
"-106 -249 OFFCURVE",
"-110 -288 OFFCURVE",
"-67 -319 CURVE SMOOTH",
"35 -391 OFFCURVE",
"117 -415 OFFCURVE",
"232 -415 CURVE SMOOTH",
"459 -415 OFFCURVE",
"582 -289 OFFCURVE",
"625 -45 CURVE SMOOTH",
"747 649 LINE",
"1058 649 LINE SMOOTH",
"1103 649 OFFCURVE",
"1125 671 OFFCURVE",
"1140 756 CURVE SMOOTH",
"1155 841 OFFCURVE",
"1141 864 OFFCURVE",
"1096 864 CURVE SMOOTH",
"785 864 LINE",
"795 924 LINE SMOOTH",
"816 1039 OFFCURVE",
"872 1090 OFFCURVE",
"954 1090 CURVE SMOOTH",
"1022 1090 OFFCURVE",
"1088 1077 OFFCURVE",
"1169 1051 CURVE SMOOTH",
"1210 1038 OFFCURVE",
"1248 1046 OFFCURVE",
"1278 1127 CURVE SMOOTH",
"1309 1210 OFFCURVE",
"1289 1243 OFFCURVE",
"1246 1260 CURVE SMOOTH",
"1144 1301 OFFCURVE",
"1046 1317 OFFCURVE",
"952 1317 CURVE SMOOTH"
);
}
);
width = 1228;
},
{
background = {
paths = (
{
closed = 1;
nodes = (
"768 1317 OFFCURVE",
"627 1186 OFFCURVE",
"588 967 CURVE SMOOTH",
"566 844 LINE",
"368 844 LINE SMOOTH",
"323 844 OFFCURVE",
"302 826 OFFCURVE",
"293 776 CURVE SMOOTH",
"285 726 OFFCURVE",
"299 708 OFFCURVE",
"344 708 CURVE SMOOTH",
"542 708 LINE",
"403 -83 LINE SMOOTH",
"380 -211 OFFCURVE",
"316 -269 OFFCURVE",
"207 -269 CURVE SMOOTH",
"135 -269 OFFCURVE",
"65 -248 OFFCURVE",
"1 -200 CURVE SMOOTH",
"-26 -180 OFFCURVE",
"-58 -185 OFFCURVE",
"-87 -231 CURVE SMOOTH",
"-117 -279 OFFCURVE",
"-107 -308 OFFCURVE",
"-78 -329 CURVE SMOOTH",
"3 -387 OFFCURVE",
"97 -415 OFFCURVE",
"194 -415 CURVE SMOOTH",
"394 -415 OFFCURVE",
"515 -298 OFFCURVE",
"551 -96 CURVE SMOOTH",
"692 708 LINE",
"1038 708 LINE SMOOTH",
"1083 708 OFFCURVE",
"1105 726 OFFCURVE",
"1113 776 CURVE SMOOTH",
"1122 826 OFFCURVE",
"1107 844 OFFCURVE",
"1062 844 CURVE SMOOTH",
"716 844 LINE",
"736 954 LINE SMOOTH",
"760 1091 OFFCURVE",
"835 1171 OFFCURVE",
"976 1171 CURVE SMOOTH",
"1055 1171 OFFCURVE",
"1132 1153 OFFCURVE",
"1204 1124 CURVE SMOOTH",
"1236 1111 OFFCURVE",
"1267 1119 OFFCURVE",
"1286 1174 CURVE SMOOTH",
"1304 1225 OFFCURVE",
"1282 1252 OFFCURVE",
"1249 1266 CURVE SMOOTH",
"1174 1297 OFFCURVE",
"1086 1317 OFFCURVE",
"992 1317 CURVE SMOOTH"
);
}
);
};
layerId = "38D47A70-C265-4203-8B70-C23C50FC2DCC";
name = "Regular Italic";
paths = (
{
closed = 1;
nodes = (
"768 1317 OFFCURVE",
"627 1186 OFFCURVE",
"588 967 CURVE SMOOTH",
"566 844 LINE",
"368 844 LINE SMOOTH",
"323 844 OFFCURVE",
"302 826 OFFCURVE",
"293 776 CURVE SMOOTH",
"285 726 OFFCURVE",
"299 708 OFFCURVE",
"344 708 CURVE SMOOTH",
"542 708 LINE",
"404 -78 LINE SMOOTH",
"382 -206 OFFCURVE",
"317 -264 OFFCURVE",
"208 -264 CURVE SMOOTH",
"136 -264 OFFCURVE",
"66 -243 OFFCURVE",
"2 -195 CURVE SMOOTH",
"-25 -175 OFFCURVE",
"-57 -180 OFFCURVE",
"-86 -226 CURVE SMOOTH",
"-116 -274 OFFCURVE",
"-106 -303 OFFCURVE",
"-77 -324 CURVE SMOOTH",
"4 -382 OFFCURVE",
"98 -410 OFFCURVE",
"195 -410 CURVE SMOOTH",
"395 -410 OFFCURVE",
"517 -293 OFFCURVE",
"552 -91 CURVE SMOOTH",
"692 708 LINE",
"1038 708 LINE SMOOTH",
"1083 708 OFFCURVE",
"1105 726 OFFCURVE",
"1113 776 CURVE SMOOTH",
"1122 826 OFFCURVE",
"1107 844 OFFCURVE",
"1062 844 CURVE SMOOTH",
"716 844 LINE",
"736 954 LINE SMOOTH",
"760 1091 OFFCURVE",
"835 1171 OFFCURVE",
"976 1171 CURVE SMOOTH",
"1055 1171 OFFCURVE",
"1132 1153 OFFCURVE",
"1204 1124 CURVE SMOOTH",
"1236 1111 OFFCURVE",
"1267 1119 OFFCURVE",
"1286 1174 CURVE SMOOTH",
"1304 1225 OFFCURVE",
"1282 1252 OFFCURVE",
"1249 1266 CURVE SMOOTH",
"1174 1297 OFFCURVE",
"1086 1317 OFFCURVE",
"992 1317 CURVE SMOOTH"
);
}
);
width = 1228;
}
);
unicode = 0066;
},
{
glyphname = g;
lastChange = "2015-01-03 15:18:27 +0000";
layers = (
{
background = {
paths = (
{
closed = 1;
nodes = (
"297 946 OFFCURVE",
"130 652 OFFCURVE",
"130 395 CURVE SMOOTH",
"130 174 OFFCURVE",
"264 8 OFFCURVE",
"494 8 CURVE SMOOTH",
"593 8 OFFCURVE",
"689 52 OFFCURVE",
"767 123 CURVE",
"748 16 LINE SMOOTH",
"725 -118 OFFCURVE",
"650 -188 OFFCURVE",
"488 -188 CURVE SMOOTH",
"409 -188 OFFCURVE",
"308 -167 OFFCURVE",
"220 -141 CURVE SMOOTH",
"180 -129 OFFCURVE",
"143 -139 OFFCURVE",
"112 -221 CURVE SMOOTH",
"80 -306 OFFCURVE",
"91 -342 OFFCURVE",
"136 -356 CURVE SMOOTH",
"262 -395 OFFCURVE",
"381 -415 OFFCURVE",
"478 -415 CURVE SMOOTH",
"792 -415 OFFCURVE",
"950 -260 OFFCURVE",
"995 -4 CURVE SMOOTH",
"1149 871 LINE SMOOTH",
"1157 916 OFFCURVE",
"1137 934 OFFCURVE",
"1062 934 CURVE SMOOTH",
"987 934 OFFCURVE",
"947 916 OFFCURVE",
"939 871 CURVE SMOOTH",
"925 791 LINE",
"866 892 OFFCURVE",
"767 946 OFFCURVE",
"639 946 CURVE SMOOTH"
);
},
{
closed = 1;
nodes = (
"758 719 OFFCURVE",
"841 658 OFFCURVE",
"841 534 CURVE SMOOTH",
"841 390 OFFCURVE",
"748 235 OFFCURVE",
"564 235 CURVE SMOOTH",
"460 235 OFFCURVE",
"397 297 OFFCURVE",
"397 412 CURVE SMOOTH",
"397 551 OFFCURVE",
"476 719 OFFCURVE",
"649 719 CURVE SMOOTH"
);
},
{
closed = 0;
nodes = (
"489 -183 LINE SMOOTH",
"410 -183 OFFCURVE",
"309 -162 OFFCURVE",
"221 -136 CURVE SMOOTH",
"181 -124 OFFCURVE",
"144 -134 OFFCURVE",
"113 -216 CURVE SMOOTH",
"81 -301 OFFCURVE",
"92 -337 OFFCURVE",
"137 -351 CURVE SMOOTH",
"263 -390 OFFCURVE",
"382 -410 OFFCURVE",
"479 -410 CURVE SMOOTH"
);
}
);
};
layerId = UUID0;
name = "Bold Italic";
paths = (
{
closed = 1;
nodes = (
"297 946 OFFCURVE",
"130 652 OFFCURVE",
"130 395 CURVE SMOOTH",
"130 174 OFFCURVE",
"264 8 OFFCURVE",
"494 8 CURVE SMOOTH",
"593 8 OFFCURVE",
"689 52 OFFCURVE",
"767 123 CURVE",
"749 21 LINE SMOOTH",
"726 -112 OFFCURVE",
"647 -183 OFFCURVE",
"479 -183 CURVE SMOOTH",
"394 -183 OFFCURVE",
"284 -160 OFFCURVE",
"191 -126 CURVE SMOOTH",
"151 -111 OFFCURVE",
"116 -125 OFFCURVE",
"83 -210 CURVE SMOOTH",
"52 -293 OFFCURVE",
"63 -325 OFFCURVE",
"107 -341 CURVE SMOOTH",
"236 -387 OFFCURVE",
"366 -410 OFFCURVE",
"469 -410 CURVE SMOOTH",
"789 -410 OFFCURVE",
"951 -255 OFFCURVE",
"996 1 CURVE SMOOTH",
"1149 871 LINE SMOOTH",
"1157 916 OFFCURVE",
"1137 934 OFFCURVE",
"1062 934 CURVE SMOOTH",
"987 934 OFFCURVE",
"947 916 OFFCURVE",
"939 871 CURVE SMOOTH",
"925 791 LINE",
"866 892 OFFCURVE",
"767 946 OFFCURVE",
"639 946 CURVE SMOOTH"
);
},
{
closed = 1;
nodes = (
"758 719 OFFCURVE",
"841 658 OFFCURVE",
"841 534 CURVE SMOOTH",
"841 390 OFFCURVE",
"748 235 OFFCURVE",
"564 235 CURVE SMOOTH",
"460 235 OFFCURVE",
"397 297 OFFCURVE",
"397 412 CURVE SMOOTH",
"397 551 OFFCURVE",
"476 719 OFFCURVE",
"649 719 CURVE SMOOTH"
);
}
);
width = 1228;
},
{
background = {
paths = (
{
closed = 1;
nodes = (
"343 946 OFFCURVE",
"152 685 OFFCURVE",
"152 400 CURVE SMOOTH",
"152 172 OFFCURVE",
"302 28 OFFCURVE",
"518 28 CURVE SMOOTH",
"647 28 OFFCURVE",
"754 78 OFFCURVE",
"851 174 CURVE",
"817 -22 LINE SMOOTH",
"791 -169 OFFCURVE",
"688 -267 OFFCURVE",
"510 -267 CURVE SMOOTH",
"413 -267 OFFCURVE",
"308 -249 OFFCURVE",
"221 -211 CURVE SMOOTH",
"189 -197 OFFCURVE",
"160 -209 OFFCURVE",
"139 -261 CURVE SMOOTH",
"118 -312 OFFCURVE",
"132 -341 OFFCURVE",
"166 -355 CURVE SMOOTH",
"264 -395 OFFCURVE",
"379 -415 OFFCURVE",
"494 -415 CURVE SMOOTH",
"756 -415 OFFCURVE",
"920 -284 OFFCURVE",
"962 -45 CURVE SMOOTH",
"1124 869 LINE SMOOTH",
"1132 915 OFFCURVE",
"1121 934 OFFCURVE",
"1065 934 CURVE SMOOTH",
"1009 934 OFFCURVE",
"992 915 OFFCURVE",
"984 869 CURVE SMOOTH",
"965 766 LINE",
"905 877 OFFCURVE",
"806 946 OFFCURVE",
"670 946 CURVE SMOOTH"
);
},
{
closed = 1;
nodes = (
"809 798 OFFCURVE",
"913 710 OFFCURVE",
"913 556 CURVE SMOOTH",
"913 383 OFFCURVE",
"794 176 OFFCURVE",
"545 176 CURVE SMOOTH",
"390 176 OFFCURVE",
"309 271 OFFCURVE",
"309 412 CURVE SMOOTH",
"309 602 OFFCURVE",
"430 798 OFFCURVE",
"654 798 CURVE SMOOTH"
);
}
);
};
layerId = "38D47A70-C265-4203-8B70-C23C50FC2DCC";
name = "Regular Italic";
paths = (
{
closed = 1;
nodes = (
"343 946 OFFCURVE",
"152 685 OFFCURVE",
"152 400 CURVE SMOOTH",
"152 172 OFFCURVE",
"302 28 OFFCURVE",
"518 28 CURVE SMOOTH",
"647 28 OFFCURVE",
"754 78 OFFCURVE",
"851 174 CURVE",
"818 -17 LINE SMOOTH",
"793 -164 OFFCURVE",
"685 -262 OFFCURVE",
"501 -262 CURVE SMOOTH",
"392 -262 OFFCURVE",
"271 -240 OFFCURVE",
"172 -196 CURVE SMOOTH",
"140 -182 OFFCURVE",
"110 -194 OFFCURVE",
"90 -246 CURVE SMOOTH",
"70 -297 OFFCURVE",
"83 -326 OFFCURVE",
"117 -340 CURVE SMOOTH",
"227 -386 OFFCURVE",
"354 -410 OFFCURVE",
"485 -410 CURVE SMOOTH",
"753 -410 OFFCURVE",
"921 -279 OFFCURVE",
"963 -40 CURVE SMOOTH",
"1124 869 LINE SMOOTH",
"1132 915 OFFCURVE",
"1121 934 OFFCURVE",
"1065 934 CURVE SMOOTH",
"1009 934 OFFCURVE",
"992 915 OFFCURVE",
"984 869 CURVE SMOOTH",
"965 766 LINE",
"905 877 OFFCURVE",
"806 946 OFFCURVE",
"670 946 CURVE SMOOTH"
);
},
{
closed = 1;
nodes = (
"809 798 OFFCURVE",
"913 710 OFFCURVE",
"913 556 CURVE SMOOTH",
"913 383 OFFCURVE",
"794 176 OFFCURVE",
"545 176 CURVE SMOOTH",
"390 176 OFFCURVE",
"309 271 OFFCURVE",
"309 412 CURVE SMOOTH",
"309 602 OFFCURVE",
"430 798 OFFCURVE",
"654 798 CURVE SMOOTH"
);
}
);
width = 1228;
}
);
unicode = 0067;
},
{
glyphname = h;
lastChange = "2015-01-03 15:18:27 +0000";
layers = (
{
layerId = UUID0;
name = "Bold Italic";
paths = (
{
closed = 1;
nodes = (
"271 1312 LINE SMOOTH",
"226 1312 OFFCURVE",
"205 1294 OFFCURVE",
"190 1209 CURVE SMOOTH",
"175 1124 OFFCURVE",
"190 1107 OFFCURVE",
"235 1107 CURVE SMOOTH",
"332 1107 LINE",
"148 63 LINE SMOOTH",
"140 18 OFFCURVE",
"155 0 OFFCURVE",
"200 0 CURVE SMOOTH",
"324 0 LINE SMOOTH",
"369 0 OFFCURVE",
"390 18 OFFCURVE",
"398 63 CURVE SMOOTH",
"445 338 LINE SMOOTH",
"477 526 OFFCURVE",
"619 719 OFFCURVE",
"738 719 CURVE SMOOTH",
"807 719 OFFCURVE",
"833 682 OFFCURVE",
"833 619 CURVE SMOOTH",
"833 601 OFFCURVE",
"831 582 OFFCURVE",
"827 561 CURVE SMOOTH",
"740 63 LINE SMOOTH",
"732 18 OFFCURVE",
"747 0 OFFCURVE",
"792 0 CURVE SMOOTH",
"1056 0 LINE SMOOTH",
"1101 0 OFFCURVE",
"1121 17 OFFCURVE",
"1136 102 CURVE SMOOTH",
"1151 187 OFFCURVE",
"1137 205 OFFCURVE",
"1092 205 CURVE SMOOTH",
"1015 205 LINE",
"1084 600 LINE SMOOTH",
"1088 625 OFFCURVE",
"1091 652 OFFCURVE",
"1091 676 CURVE SMOOTH",
"1091 836 OFFCURVE",
"993 946 OFFCURVE",
"833 946 CURVE SMOOTH",
"726 946 OFFCURVE",
"624 891 OFFCURVE",
"523 774 CURVE",
"607 1249 LINE SMOOTH",
"615 1294 OFFCURVE",
"600 1312 OFFCURVE",
"555 1312 CURVE SMOOTH"
);
}
);
width = 1228;
},
{
layerId = "38D47A70-C265-4203-8B70-C23C50FC2DCC";
name = "Regular Italic";
paths = (
{
closed = 1;
nodes = (
"301 1312 LINE SMOOTH",
"256 1312 OFFCURVE",
"235 1294 OFFCURVE",
"226 1244 CURVE SMOOTH",
"217 1194 OFFCURVE",
"232 1176 OFFCURVE",
"277 1176 CURVE SMOOTH",
"369 1176 LINE",
"171 55 LINE SMOOTH",
"163 9 OFFCURVE",
"178 -10 OFFCURVE",
"234 -10 CURVE SMOOTH",
"236 -10 LINE SMOOTH",
"289 -10 OFFCURVE",
"313 9 OFFCURVE",
"321 55 CURVE SMOOTH",
"382 402 LINE SMOOTH",
"420 620 OFFCURVE",
"601 798 OFFCURVE",
"772 798 CURVE SMOOTH",
"863 798 OFFCURVE",
"905 743 OFFCURVE",
"905 658 CURVE SMOOTH",
"905 641 OFFCURVE",
"903 624 OFFCURVE",
"900 605 CURVE SMOOTH",
"805 68 LINE SMOOTH",
"796 18 OFFCURVE",
"812 0 OFFCURVE",
"857 0 CURVE SMOOTH",
"1026 0 LINE SMOOTH",
"1071 0 OFFCURVE",
"1092 18 OFFCURVE",
"1100 68 CURVE SMOOTH",
"1109 118 OFFCURVE",
"1094 136 OFFCURVE",
"1049 136 CURVE SMOOTH",
"967 136 LINE",
"1051 610 LINE SMOOTH",
"1056 637 OFFCURVE",
"1058 663 OFFCURVE",
"1058 687 CURVE SMOOTH",
"1058 844 OFFCURVE",
"962 946 OFFCURVE",
"803 946 CURVE SMOOTH",
"677 946 OFFCURVE",
"553 877 OFFCURVE",
"444 750 CURVE",
"531 1244 LINE SMOOTH",
"540 1294 OFFCURVE",
"525 1312 OFFCURVE",
"480 1312 CURVE SMOOTH"
);
}
);
width = 1228;
}
);
unicode = 0068;
},
{
color = 6;
glyphname = hbar;
lastChange = "2015-01-03 15:18:27 +0000";
layers = (
{
background = {
paths = (
{
closed = 1;
nodes = (
"270 1312 LINE SMOOTH",
"225 1312 OFFCURVE",
"207 1294 OFFCURVE",
"207 1249 CURVE SMOOTH",
"207 205 LINE",
"130 205 LINE SMOOTH",
"85 205 OFFCURVE",
"67 187 OFFCURVE",
"67 102 CURVE SMOOTH",
"67 17 OFFCURVE",
"85 0 OFFCURVE",
"130 0 CURVE SMOOTH",
"504 0 LINE SMOOTH",
"549 0 OFFCURVE",
"567 17 OFFCURVE",
"567 102 CURVE SMOOTH",
"567 187 OFFCURVE",
"549 205 OFFCURVE",
"504 205 CURVE SMOOTH",
"457 205 LINE",
"457 308 LINE SMOOTH",
"457 476 OFFCURVE",
"563 619 OFFCURVE",
"682 619 CURVE SMOOTH",
"770 619 OFFCURVE",
"799 567 OFFCURVE",
"799 481 CURVE SMOOTH",
"799 205 LINE",
"752 205 LINE SMOOTH",
"707 205 OFFCURVE",
"689 187 OFFCURVE",
"689 102 CURVE SMOOTH",
"689 17 OFFCURVE",
"707 0 OFFCURVE",
"752 0 CURVE SMOOTH",
"1126 0 LINE SMOOTH",
"1171 0 OFFCURVE",
"1189 17 OFFCURVE",
"1189 102 CURVE SMOOTH",
"1189 187 OFFCURVE",
"1171 205 OFFCURVE",
"1126 205 CURVE SMOOTH",
"1049 205 LINE",
"1049 520 LINE SMOOTH",
"1049 720 OFFCURVE",
"931 846 OFFCURVE",
"747 846 CURVE SMOOTH",
"637 846 OFFCURVE",
"537 793 OFFCURVE",
"457 683 CURVE",
"457 1249 LINE SMOOTH",
"457 1294 OFFCURVE",
"439 1312 OFFCURVE",
"394 1312 CURVE SMOOTH"
);
},
{
closed = 1;
nodes = (
"93 1155 LINE SMOOTH",
"48 1155 OFFCURVE",
"30 1137 OFFCURVE",
"30 1052 CURVE SMOOTH",
"30 967 OFFCURVE",
"48 950 OFFCURVE",
"93 950 CURVE SMOOTH",
"655 950 LINE SMOOTH",
"700 950 OFFCURVE",
"718 967 OFFCURVE",
"718 1052 CURVE SMOOTH",
"718 1137 OFFCURVE",
"700 1155 OFFCURVE",
"655 1155 CURVE SMOOTH"
);
}
);
};
layerId = UUID0;
name = "Bold Italic";
paths = (
{
closed = 1;
nodes = (
"431 1312 LINE SMOOTH",
"386 1312 OFFCURVE",
"365 1294 OFFCURVE",
"357 1249 CURVE SMOOTH",
"148 63 LINE SMOOTH",
"140 18 OFFCURVE",
"155 0 OFFCURVE",
"200 0 CURVE SMOOTH",
"324 0 LINE SMOOTH",
"369 0 OFFCURVE",
"390 18 OFFCURVE",
"398 63 CURVE SMOOTH",
"431 258 LINE SMOOTH",
"463 446 OFFCURVE",
"601 619 OFFCURVE",
"720 619 CURVE SMOOTH",
"789 619 OFFCURVE",
"815 582 OFFCURVE",
"815 519 CURVE SMOOTH",
"815 501 OFFCURVE",
"813 482 OFFCURVE",
"809 461 CURVE SMOOTH",
"740 63 LINE SMOOTH",
"732 19 OFFCURVE",
"747 0 OFFCURVE",
"792 0 CURVE SMOOTH",
"1056 0 LINE SMOOTH",
"1101 0 OFFCURVE",
"1121 17 OFFCURVE",
"1136 102 CURVE SMOOTH",
"1151 187 OFFCURVE",
"1137 205 OFFCURVE",
"1092 205 CURVE SMOOTH",
"1015 205 LINE",
"1066 500 LINE SMOOTH",
"1070 525 OFFCURVE",
"1073 552 OFFCURVE",
"1073 576 CURVE SMOOTH",
"1073 736 OFFCURVE",
"975 846 OFFCURVE",
"815 846 CURVE SMOOTH",
"708 846 OFFCURVE",
"606 791 OFFCURVE",
"505 674 CURVE",
"607 1249 LINE SMOOTH",
"615 1294 OFFCURVE",
"600 1312 OFFCURVE",
"555 1312 CURVE SMOOTH"
);
},
{
closed = 1;
nodes = (
"226 1155 LINE SMOOTH",
"181 1155 OFFCURVE",
"160 1137 OFFCURVE",
"145 1052 CURVE SMOOTH",
"130 967 OFFCURVE",
"145 950 OFFCURVE",
"190 950 CURVE SMOOTH",
"752 950 LINE SMOOTH",
"797 950 OFFCURVE",
"818 967 OFFCURVE",
"833 1052 CURVE SMOOTH",
"848 1137 OFFCURVE",
"833 1155 OFFCURVE",
"788 1155 CURVE SMOOTH"
);
}
);
width = 1228;
},
{
background = {
paths = (
{
closed = 1;
nodes = (
"140 1312 LINE SMOOTH",
"95 1312 OFFCURVE",
"77 1294 OFFCURVE",
"77 1244 CURVE SMOOTH",
"77 1194 OFFCURVE",
"95 1176 OFFCURVE",
"140 1176 CURVE SMOOTH",
"232 1176 LINE",
"232 136 LINE",
"150 136 LINE SMOOTH",
"105 136 OFFCURVE",
"87 118 OFFCURVE",
"87 68 CURVE SMOOTH",
"87 18 OFFCURVE",
"105 0 OFFCURVE",
"150 0 CURVE SMOOTH",
"474 0 LINE SMOOTH",
"519 0 OFFCURVE",
"537 18 OFFCURVE",
"537 68 CURVE SMOOTH",
"537 118 OFFCURVE",
"519 136 OFFCURVE",
"474 136 CURVE SMOOTH",
"382 136 LINE",
"382 362 LINE SMOOTH",
"382 580 OFFCURVE",
"531 738 OFFCURVE",
"702 738 CURVE SMOOTH",
"811 738 OFFCURVE",
"864 660 OFFCURVE",
"864 545 CURVE SMOOTH",
"864 136 LINE",
"772 136 LINE SMOOTH",
"727 136 OFFCURVE",
"709 118 OFFCURVE",
"709 68 CURVE SMOOTH",
"709 18 OFFCURVE",
"727 0 OFFCURVE",
"772 0 CURVE SMOOTH",
"1096 0 LINE SMOOTH",
"1141 0 OFFCURVE",
"1159 18 OFFCURVE",
"1159 68 CURVE SMOOTH",
"1159 118 OFFCURVE",
"1141 136 OFFCURVE",
"1096 136 CURVE SMOOTH",
"1014 136 LINE",
"1014 560 LINE SMOOTH",
"1014 760 OFFCURVE",
"901 886 OFFCURVE",
"717 886 CURVE SMOOTH",
"585 886 OFFCURVE",
"468 815 OFFCURVE",
"382 686 CURVE",
"382 1244 LINE SMOOTH",
"382 1294 OFFCURVE",
"364 1312 OFFCURVE",
"319 1312 CURVE SMOOTH"
);
},
{
closed = 1;
nodes = (
"83 1106 LINE SMOOTH",
"38 1106 OFFCURVE",
"20 1088 OFFCURVE",
"20 1038 CURVE SMOOTH",
"20 988 OFFCURVE",
"38 970 OFFCURVE",
"83 970 CURVE SMOOTH",
"625 970 LINE SMOOTH",
"670 970 OFFCURVE",
"688 988 OFFCURVE",
"688 1038 CURVE SMOOTH",
"688 1088 OFFCURVE",
"670 1106 OFFCURVE",
"625 1106 CURVE SMOOTH"
);
}
);
};
layerId = "38D47A70-C265-4203-8B70-C23C50FC2DCC";
name = "Regular Italic";
paths = (
{
closed = 1;
nodes = (
"301 1312 LINE SMOOTH",
"256 1312 OFFCURVE",
"235 1294 OFFCURVE",
"226 1244 CURVE SMOOTH",
"217 1194 OFFCURVE",
"232 1176 OFFCURVE",
"277 1176 CURVE SMOOTH",
"369 1176 LINE",
"171 55 LINE SMOOTH",
"163 9 OFFCURVE",
"179 -10 OFFCURVE",
"235 -10 CURVE SMOOTH",
"291 -10 OFFCURVE",
"313 9 OFFCURVE",
"321 55 CURVE SMOOTH",
"371 342 LINE SMOOTH",
"409 560 OFFCURVE",
"590 738 OFFCURVE",
"761 738 CURVE SMOOTH",
"852 738 OFFCURVE",
"894 683 OFFCURVE",
"894 598 CURVE SMOOTH",
"894 581 OFFCURVE",
"892 564 OFFCURVE",
"889 545 CURVE SMOOTH",
"805 68 LINE SMOOTH",
"796 18 OFFCURVE",
"812 0 OFFCURVE",
"857 0 CURVE SMOOTH",
"1026 0 LINE SMOOTH",
"1071 0 OFFCURVE",
"1092 18 OFFCURVE",
"1100 68 CURVE SMOOTH",
"1109 118 OFFCURVE",
"1094 136 OFFCURVE",
"1049 136 CURVE SMOOTH",
"967 136 LINE",
"1040 550 LINE SMOOTH",
"1045 577 OFFCURVE",
"1047 603 OFFCURVE",
"1047 627 CURVE SMOOTH",
"1047 784 OFFCURVE",
"951 886 OFFCURVE",
"792 886 CURVE SMOOTH",
"666 886 OFFCURVE",
"542 817 OFFCURVE",
"433 690 CURVE",
"531 1244 LINE SMOOTH",
"540 1294 OFFCURVE",
"525 1312 OFFCURVE",
"480 1312 CURVE SMOOTH"
);
},
{
closed = 1;
nodes = (
"208 1106 LINE SMOOTH",
"163 1106 OFFCURVE",
"142 1088 OFFCURVE",
"133 1038 CURVE SMOOTH",
"124 988 OFFCURVE",
"139 970 OFFCURVE",
"184 970 CURVE SMOOTH",
"726 970 LINE SMOOTH",
"771 970 OFFCURVE",
"792 988 OFFCURVE",
"801 1038 CURVE SMOOTH",
"810 1088 OFFCURVE",
"795 1106 OFFCURVE",
"750 1106 CURVE SMOOTH"
);
}
);
width = 1228;
}
);
unicode = 0127;
},
